<?xml version="1.0" encoding="utf-8"?>
<!-- Generator: Adobe Illustrator 21.0.2, SVG Export Plug-In . SVG Version: 6.00 Build 0)  -->
<svg version="1.1" id="Layer_1" xmlns="http://www.w3.org/2000/svg" xmlns:xlink="http://www.w3.org/1999/xlink" x="0px" y="0px"
	 width="150" viewBox="0 0 276 53" style="enable-background:new 0 0 276 53;" xml:space="preserve">
<style type="text/css">
	.st0{enable-background:new    ;}
	.st1{fill:#E57200;}
</style>
<g class="st0">
	<path class="st1" d="M29.3,31.5c0,7.1,0.2,10.1,1.1,11c0.8,0.8,2,1.1,5.8,1.1c2.5,0,4.7,0,5.8-1.4c0.6-0.8,1.1-2,1.2-2.9
		c0-0.4,0.1-0.6,0.4-0.6c0.2,0,0.3,0.2,0.3,0.7s-0.3,3.4-0.7,4.8c-0.3,1.1-0.5,1.3-3,1.3c-3.5,0-6-0.1-8-0.1c-2-0.1-3.5-0.1-4.9-0.1
		c-0.2,0-1,0-2,0c-1,0-2,0.1-2.7,0.1c-0.5,0-0.8-0.1-0.8-0.4c0-0.1,0.1-0.3,0.4-0.3c0.4,0,1-0.1,1.4-0.2c1-0.2,1.2-1.2,1.4-2.6
		c0.2-2,0.2-5.8,0.2-10.4V23c0-7.5,0-8.8-0.1-10.4c-0.1-1.6-0.5-2.4-2.1-2.7c-0.4-0.1-1.2-0.1-1.6-0.1c-0.2,0-0.4-0.1-0.4-0.3
		c0-0.3,0.2-0.4,0.8-0.4c2.2,0,5.2,0.1,5.4,0.1c0.2,0,3.7-0.1,5.2-0.1c0.5,0,0.8,0.1,0.8,0.4c0,0.2-0.2,0.3-0.4,0.3
		c-0.3,0-1,0-1.6,0.1c-1.4,0.2-1.8,1.1-1.9,2.7c-0.1,1.5-0.1,2.9-0.1,10.4V31.5z"/>
	<path class="st1" d="M56.4,33.5c0,3.9,0,7.2,0.2,8.8c0.1,1.2,0.3,2,1.5,2.2c0.6,0.1,1.5,0.2,1.9,0.2c0.2,0,0.3,0.2,0.3,0.3
		c0,0.2-0.2,0.3-0.7,0.3c-2.4,0-5.1-0.1-5.3-0.1c-0.2,0-2.9,0.1-4.2,0.1c-0.4,0-0.7-0.1-0.7-0.3c0-0.1,0.1-0.3,0.3-0.3
		c0.4,0,0.9-0.1,1.3-0.2c0.8-0.2,1-1,1.1-2.2c0.2-1.7,0.2-4.9,0.2-8.8v-7.2c0-6.3,0-7.5-0.1-8.8c-0.1-1.4-0.4-2-1.3-2.2
		c-0.5-0.1-1-0.1-1.3-0.1c-0.2,0-0.3-0.2-0.3-0.3c0-0.2,0.2-0.3,0.7-0.3c1.4,0,4,0.1,4.3,0.1c0.2,0,2.9-0.1,4.2-0.1
		c0.5,0,0.7,0.1,0.7,0.3c0,0.1-0.2,0.3-0.3,0.3c-0.3,0-0.6,0-1.1,0.1c-1.2,0.2-1.4,0.8-1.5,2.3c0,1.3,0,2.4,0,8.8V33.5z"/>
	<path class="st1" d="M70.3,26.3c0-6.3,0-7.5-0.1-8.8c-0.1-1.4-0.3-2.2-1.7-2.4c-0.3,0-1.1-0.1-1.4-0.1c-0.1,0-0.3-0.1-0.3-0.2
		c0-0.2,0.2-0.3,0.7-0.3c1.9,0,4.7,0.1,4.9,0.1c1,0,3-0.1,4.9-0.1c7.1,0,8.9,4.1,8.9,6.2c0,3.2-2.1,5.2-4.3,7.2
		c3.2,1,7.4,3.9,7.4,8.5c0,4.6-3.4,9.1-10.6,9.1c-0.8,0-2.3,0-3.6-0.1c-1.3,0-2.5-0.1-2.7-0.1c-0.1,0-0.9,0-1.7,0
		c-0.9,0-1.9,0.1-2.5,0.1c-0.4,0-0.7-0.1-0.7-0.3c0-0.1,0.1-0.2,0.3-0.2c0.4,0,0.9-0.1,1.3-0.2c0.8-0.1,0.9-1.1,1.1-2.3
		c0.2-1.7,0.2-4.9,0.2-8.8V26.3z M73.9,27.2c0,0.3,0.1,0.4,0.3,0.4c0.2,0,1,0.2,2.6,0.2c2.4,0,3.3-0.1,4.1-1.1
		c0.9-1,1.6-2.4,1.6-4.4c0-3.1-1.7-6.6-6-6.6c-0.5,0-1.5,0-2.2,0.2c-0.4,0.1-0.5,0.2-0.5,0.4V27.2z M73.9,31.7c0,3.2,0,8.1,0,8.7
		c0.1,2,0.1,2.4,1.4,3.1c1.2,0.5,2.9,0.6,3.7,0.6c2.8,0,6.2-1.1,6.2-6.3c0-1.8-0.7-5.3-4-7.4c-1.4-0.9-2.8-0.9-3.8-1.1
		c-0.5-0.1-2.6-0.1-3.3-0.1c-0.1,0-0.2,0.1-0.2,0.3V31.7z"/>
	<path class="st1" d="M98.3,26.3c0-6.3,0-7.5-0.1-8.8c-0.1-1.4-0.3-2.1-1.7-2.3c-0.3,0-1.1-0.1-1.4-0.1c-0.1,0-0.3-0.2-0.3-0.3
		c0-0.2,0.2-0.3,0.7-0.3c1.9,0,4.8,0.1,5,0.1c0.4,0,4-0.1,5.3-0.1c2.7,0,5.7,0.2,7.9,1.8c1.1,0.8,2.9,2.7,2.9,5.6c0,3-1.2,6-5.2,9.3
		c3.5,4.3,6.4,8,8.8,10.6c2.3,2.3,3.6,2.7,4.7,2.8c0.8,0.1,1.2,0.1,1.5,0.1c0.2,0,0.4,0.2,0.4,0.3c0,0.2-0.2,0.3-1,0.3H123
		c-2.4,0-3.5-0.2-4.5-0.8c-1.8-1-3.4-2.9-5.8-6c-1.8-2.2-3.6-4.8-4.6-6c-0.2-0.2-0.3-0.2-0.6-0.2l-5.4-0.1c-0.2,0-0.3,0.1-0.3,0.3v1
		c0,3.9,0,7.1,0.2,8.8c0.1,1.2,0.4,2,1.7,2.2c0.6,0.1,1.5,0.2,1.9,0.2c0.3,0,0.3,0.2,0.3,0.3c0,0.2-0.2,0.3-0.7,0.3
		c-2.3,0-5-0.1-5.2-0.1c0,0-2.9,0.1-4.2,0.1c-0.4,0-0.7-0.1-0.7-0.3c0-0.1,0.1-0.3,0.3-0.3c0.4,0,0.9-0.1,1.3-0.2
		c0.8-0.2,0.9-1,1.1-2.2c0.2-1.7,0.2-4.9,0.2-8.8V26.3z M102,29.8c0,0.2,0.1,0.4,0.3,0.5c0.6,0.3,2.8,0.6,4.7,0.6c1,0,2.2,0,3.2-0.7
		c1.4-1,2.5-3.1,2.5-6.2c0-5.1-2.8-8-7.3-8c-1.2,0-2.6,0.1-3,0.2c-0.2,0.1-0.3,0.2-0.3,0.5V29.8z"/>
	<path class="st1" d="M137.3,15.3c0.5-1.3,0.7-1.6,1-1.6c0.4,0,0.6,0.6,1,1.5c0.8,1.7,7.5,18.6,10.1,24.8c1.5,3.6,2.7,4.2,3.6,4.5
		c0.6,0.2,1.2,0.2,1.7,0.2c0.2,0,0.5,0.1,0.5,0.3c0,0.2-0.5,0.3-1,0.3c-0.6,0-3.7,0-6.7-0.1c-0.8,0-1.5,0-1.5-0.3
		c0-0.2,0.1-0.2,0.3-0.3c0.2-0.1,0.7-0.4,0.4-1.1l-3.8-9.4c-0.1-0.2-0.1-0.2-0.4-0.2h-9.7c-0.2,0-0.3,0.1-0.4,0.3l-2.4,6.5
		c-0.4,1-0.6,2-0.6,2.7c0,0.8,0.7,1.1,1.4,1.1h0.4c0.3,0,0.4,0.1,0.4,0.3c0,0.2-0.2,0.3-0.6,0.3c-1,0-3.3-0.1-3.8-0.1
		c-0.4,0-2.5,0.1-4.3,0.1c-0.5,0-0.8-0.1-0.8-0.3c0-0.2,0.2-0.3,0.4-0.3c0.3,0,0.9,0,1.2-0.1c1.9-0.2,2.7-1.7,3.6-3.7L137.3,15.3z
		 M142,32.3c0.2,0,0.2-0.1,0.1-0.3l-4.2-11.2c-0.2-0.6-0.5-0.6-0.7,0L133.3,32c0,0.2,0,0.3,0.1,0.3H142z"/>
	<path class="st1" d="M161.9,23c0-7.5,0-8.8-0.1-10.4c-0.1-1.6-0.5-2.4-2.1-2.7c-0.4-0.1-1.2-0.1-1.6-0.1c-0.2,0-0.4-0.1-0.4-0.3
		c0-0.3,0.2-0.4,0.8-0.4c1.1,0,2.4,0,3.5,0l2,0.1c0.3,0,9.9,0,11,0c0.9,0,1.7-0.1,2.1-0.2c0.2,0,0.4-0.2,0.7-0.2
		c0.1,0,0.2,0.2,0.2,0.4c0,0.3-0.2,0.9-0.4,2.3c0,0.5-0.1,2.6-0.2,3.2c0,0.2-0.1,0.5-0.3,0.5c-0.3,0-0.4-0.2-0.4-0.6
		c0-0.3,0-1.2-0.3-1.7c-0.3-0.8-0.8-1.3-3.4-1.6c-0.8-0.1-6-0.1-6.6-0.1c-0.2,0-0.3,0.1-0.3,0.5v13.2c0,0.3,0,0.5,0.3,0.5
		c0.6,0,6.5,0,7.6-0.1c1.2-0.1,1.8-0.2,2.3-0.7c0.3-0.4,0.5-0.6,0.7-0.6c0.1,0,0.2,0.1,0.2,0.4s-0.2,1.1-0.4,2.7
		c-0.1,1-0.2,2.7-0.2,3.1c0,0.4,0,0.9-0.3,0.9c-0.2,0-0.3-0.2-0.3-0.4c0-0.5,0-1-0.2-1.6c-0.2-0.7-0.6-1.5-2.5-1.7
		c-1.3-0.1-6-0.2-6.9-0.2c-0.2,0-0.3,0.1-0.3,0.3v4.2c0,1.6,0,7.2,0,8.2c0.1,3.3,0.9,3.9,5.6,3.9c1.2,0,3.4,0,4.6-0.5
		s1.8-1.5,2.2-3.5c0.1-0.5,0.2-0.7,0.4-0.7c0.3,0,0.3,0.4,0.3,0.7c0,0.4-0.4,3.6-0.6,4.7c-0.3,1.2-0.7,1.2-2.6,1.2
		c-3.6,0-6.2-0.1-8.1-0.1c-1.9-0.1-3-0.1-3.7-0.1c-0.1,0-0.9,0-1.9,0c-1,0-2.1,0.1-2.8,0.1c-0.5,0-0.8-0.1-0.8-0.4
		c0-0.1,0.1-0.3,0.4-0.3c0.4,0,1-0.1,1.4-0.2c1-0.2,1.2-1.2,1.4-2.6c0.2-2,0.2-5.8,0.2-10.4V23z"/>
	<path class="st1" d="M201.4,31.5c0,4.6,0,8.4,0.2,10.4c0.1,1.4,0.4,2.4,1.9,2.6c0.7,0.1,1.7,0.2,2.2,0.2c0.3,0,0.4,0.1,0.4,0.3
		c0,0.2-0.2,0.4-0.8,0.4c-2.6,0-5.7-0.1-5.9-0.1s-3.3,0.1-4.7,0.1c-0.5,0-0.8-0.1-0.8-0.4c0-0.1,0.1-0.3,0.4-0.3
		c0.4,0,1-0.1,1.4-0.2c1-0.2,1.2-1.2,1.4-2.6c0.2-2,0.2-5.8,0.2-10.4V11.1l-7.1,0.1c-3,0-4.1,0.4-4.9,1.5c-0.5,0.8-0.7,1.2-0.8,1.5
		c-0.1,0.4-0.3,0.5-0.5,0.5c-0.1,0-0.2-0.1-0.2-0.4c0-0.5,1-4.6,1.1-5c0.1-0.3,0.3-0.9,0.5-0.9c0.3,0,0.8,0.5,2.1,0.6
		c1.4,0.1,3.2,0.2,3.8,0.2h18c1.5,0,2.6-0.1,3.4-0.2c0.7-0.1,1.2-0.2,1.3-0.2c0.2,0,0.2,0.3,0.2,0.6c0,1.4-0.1,4.8-0.1,5.3
		c0,0.4-0.1,0.6-0.3,0.6c-0.2,0-0.3-0.1-0.4-0.8l0-0.5c-0.1-1.4-1.3-2.5-5.9-2.6l-6-0.1V31.5z"/>
	<path class="st1" d="M224.3,23c0-7.5,0-8.8-0.1-10.4c-0.1-1.6-0.5-2.4-2.1-2.7c-0.4-0.1-1.2-0.1-1.6-0.1c-0.2,0-0.4-0.1-0.4-0.3
		c0-0.3,0.2-0.4,0.8-0.4c2.2,0,5.2,0.1,5.4,0.1c0.6,0,3.6-0.1,6.5-0.1c4.8,0,13.5-0.4,19.2,5.5c2.4,2.5,4.7,6.5,4.7,12.2
		c0,6-2.5,10.7-5.2,13.5c-2.1,2.2-6.4,5.5-14.5,5.5c-2.1,0-4.6-0.1-6.7-0.3c-2.1-0.1-3.7-0.3-4-0.3c-0.1,0-0.9,0-1.9,0
		c-1,0-2.1,0.1-2.8,0.1c-0.5,0-0.8-0.1-0.8-0.4c0-0.1,0.1-0.3,0.4-0.3c0.4,0,1-0.1,1.4-0.2c1-0.2,1.2-1.2,1.4-2.6
		c0.2-2,0.2-5.8,0.2-10.4V23z M228.4,28.2c0,5.1,0,9.5,0.1,10.4c0,1.2,0.1,3.1,0.5,3.6c0.6,0.9,2.5,1.9,8.2,1.9
		c4.5,0,8.6-1.6,11.4-4.5c2.5-2.4,3.8-7.1,3.8-11.5c0-6.1-2.6-10-4.6-12.1c-4.5-4.8-10-5.4-15.7-5.4c-1,0-2.7,0.1-3.1,0.3
		c-0.4,0.2-0.6,0.4-0.6,1c0,1.6,0,6.5,0,10.2V28.2z"/>
</g>
</svg>
