<?xml version="1.0" encoding="UTF-8" standalone="no"?>
<svg width="78px" height="20px" viewBox="0 0 78 20" version="1.1" xmlns="http://www.w3.org/2000/svg" xmlns:xlink="http://www.w3.org/1999/xlink">
    <!-- Generator: Sketch 3.8.2 (29753) - http://www.bohemiancoding.com/sketch -->
    <title>libra-logo</title>
    <desc>Created with Sketch.</desc>
    <defs></defs>
    <g id="Symbols" stroke="none" stroke-width="1" fill="none" fill-rule="evenodd">
        <g id="navigation-bar" transform="translate(-83.000000, -18.000000)" stroke-width="0.4" stroke="#002F6C" fill="#002F6C">
            <g id="libra-logo">
                <path d="M87.288,25.888 L87.288,23.608 L87.288,22.192 C87.288,21.8239982 87.292,21.5320011 87.3,21.316 C87.308,21.0999989 87.3199999,20.896001 87.336,20.704 C87.3680002,20.2879979 87.4439994,19.9720011 87.564,19.756 C87.6840006,19.5399989 87.9199982,19.4000003 88.272,19.336 C88.4160007,19.3039998 88.5639992,19.284 88.716,19.276 C88.8680008,19.268 88.9839996,19.264 89.064,19.264 C89.1920006,19.264 89.256,19.2160005 89.256,19.12 C89.256,18.9919994 89.1280013,18.928 88.872,18.928 C88.6959991,18.928 88.4680014,18.932 88.188,18.94 C87.9079986,18.948 87.6320014,18.956 87.36,18.964 C87.0879986,18.972 86.848001,18.98 86.64,18.988 C86.431999,18.996 86.3120002,19 86.28,19 C86.2479998,19 86.1400009,18.996 85.956,18.988 C85.7719991,18.98 85.5480013,18.972 85.284,18.964 C85.0199987,18.956 84.7360015,18.948 84.432,18.94 C84.1279985,18.932 83.8400014,18.928 83.568,18.928 C83.3119987,18.928 83.184,18.9919994 83.184,19.12 C83.184,19.2160005 83.2479994,19.264 83.376,19.264 C83.4880006,19.264 83.6279992,19.268 83.796,19.276 C83.9640008,19.284 84.0959995,19.3039998 84.192,19.336 C84.592002,19.4160004 84.8559994,19.559999 84.984,19.768 C85.1120006,19.976001 85.1919998,20.2879979 85.224,20.704 C85.2400001,20.896001 85.252,21.0999989 85.26,21.316 C85.268,21.5320011 85.272,21.8239982 85.272,22.192 L85.272,23.608 L85.272,25.888 L85.272,30.112 C85.272,31.2640058 85.268,32.2919955 85.26,33.196 C85.252,34.1000045 85.2160003,34.8079974 85.152,35.32 C85.1039998,35.6720018 85.0360004,35.9679988 84.948,36.208 C84.8599996,36.4480012 84.6960012,36.5919998 84.456,36.64 C84.3439994,36.6720002 84.2240006,36.6959999 84.096,36.712 C83.9679994,36.7280001 83.8480006,36.736 83.736,36.736 C83.6079994,36.736 83.544,36.7839995 83.544,36.88 C83.544,37.0080006 83.6719987,37.072 83.928,37.072 C84.1040009,37.072 84.3159988,37.068 84.564,37.06 C84.8120012,37.052 85.0559988,37.0400001 85.296,37.024 C85.5360012,37.024 85.7479991,37.02 85.932,37.012 C86.1160009,37.004 86.2319998,37 86.28,37 C86.6320018,37 86.9999981,37.004 87.384,37.012 C87.7680019,37.02 88.2159974,37.0399998 88.728,37.072 C89.2400026,37.0880001 89.8159968,37.1039999 90.456,37.12 C91.0960032,37.1360001 91.8479957,37.144 92.712,37.144 C93.0320016,37.144 93.2839991,37.1360001 93.468,37.12 C93.6520009,37.1039999 93.7919995,37.0720002 93.888,37.024 C93.9840005,36.9759998 94.0519998,36.9120004 94.092,36.832 C94.1320002,36.7519996 94.1759998,36.6400007 94.224,36.496 C94.2720002,36.3199991 94.3159998,36.1080012 94.356,35.86 C94.3960002,35.6119988 94.4359998,35.3680012 94.476,35.128 C94.5160002,34.8879988 94.5439999,34.672001 94.56,34.48 C94.5760001,34.287999 94.584,34.1600003 94.584,34.096 C94.584,33.8559988 94.5360005,33.736 94.44,33.736 C94.3279994,33.736 94.2560002,33.839999 94.224,34.048 C94.1919998,34.2720011 94.1200006,34.5199986 94.008,34.792 C93.8959994,35.0640014 93.7600008,35.295999 93.6,35.488 C93.3119986,35.8400018 92.9160025,36.0479997 92.412,36.112 C91.9079975,36.1760003 91.3360032,36.208 90.696,36.208 C90.2319977,36.208 89.8360016,36.1960001 89.508,36.172 C89.1799984,36.1479999 88.9080011,36.1160002 88.692,36.076 C88.4759989,36.0359998 88.3000007,35.9800004 88.164,35.908 C88.0279993,35.8359996 87.9120005,35.7520005 87.816,35.656 C87.5919989,35.447999 87.4480003,34.9200042 87.384,34.072 C87.3199997,33.2239958 87.288,31.9200088 87.288,30.16 L87.288,25.888 Z M101.957539,25.888 L101.957539,23.608 L101.957539,22.192 C101.957539,21.8239982 101.961539,21.5320011 101.969539,21.316 C101.977539,21.0999989 101.989538,20.896001 102.005539,20.704 C102.037539,20.2879979 102.113538,19.9720011 102.233539,19.756 C102.353539,19.5399989 102.573537,19.4000003 102.893539,19.336 C103.037539,19.3039998 103.153538,19.284 103.241539,19.276 C103.329539,19.268 103.413538,19.264 103.493539,19.264 C103.621539,19.264 103.685539,19.2160005 103.685539,19.12 C103.685539,18.9919994 103.55754,18.928 103.301539,18.928 C103.125538,18.928 102.90954,18.932 102.653539,18.94 C102.397537,18.948 102.14954,18.956 101.909539,18.964 C101.669537,18.972 101.457539,18.98 101.273539,18.988 C101.089538,18.996 100.981539,19 100.949539,19 C100.917538,19 100.809539,18.996 100.625539,18.988 C100.441538,18.98 100.22954,18.972 99.9895386,18.964 C99.7495374,18.956 99.4935399,18.948 99.2215386,18.94 C98.9495372,18.932 98.7175395,18.928 98.5255386,18.928 C98.2695373,18.928 98.1415386,18.9919994 98.1415386,19.12 C98.1415386,19.2160005 98.2055379,19.264 98.3335386,19.264 C98.413539,19.264 98.5255378,19.2719999 98.6695386,19.288 C98.8135393,19.3040001 98.9495379,19.3279998 99.0775386,19.36 C99.573541,19.4720006 99.8455383,19.9199961 99.8935386,20.704 C99.9095386,20.896001 99.9215385,21.0999989 99.9295386,21.316 C99.9375386,21.5320011 99.9415386,21.8239982 99.9415386,22.192 L99.9415386,23.608 L99.9415386,25.888 L99.9415386,30.112 C99.9415386,31.2640058 99.9375386,32.2919955 99.9295386,33.196 C99.9215385,34.1000045 99.8855389,34.8079974 99.8215386,35.32 C99.7735383,35.6720018 99.705539,35.9679988 99.6175386,36.208 C99.5295381,36.4480012 99.3655398,36.5919998 99.1255386,36.64 C99.013538,36.6720002 98.8935392,36.6959999 98.7655386,36.712 C98.6375379,36.7280001 98.5175391,36.736 98.4055386,36.736 C98.2775379,36.736 98.2135386,36.7839995 98.2135386,36.88 C98.2135386,37.0080006 98.3415373,37.072 98.5975386,37.072 C98.7735394,37.072 98.9895373,37.068 99.2455386,37.06 C99.5015398,37.052 99.7495374,37.044 99.9895386,37.036 C100.22954,37.028 100.441538,37.02 100.625539,37.012 C100.809539,37.004 100.917538,37 100.949539,37 C100.981539,37 101.089538,37.004 101.273539,37.012 C101.457539,37.02 101.689537,37.028 101.969539,37.036 C102.24954,37.044 102.557537,37.052 102.893539,37.06 C103.22954,37.068 103.565537,37.072 103.901539,37.072 C104.15754,37.072 104.285539,37.0080006 104.285539,36.88 C104.285539,36.7839995 104.221539,36.736 104.093539,36.736 C103.981538,36.736 103.81754,36.7280001 103.601539,36.712 C103.385537,36.6959999 103.189539,36.6720002 103.013539,36.64 C102.645537,36.5919998 102.405539,36.4480012 102.293539,36.208 C102.181538,35.9679988 102.109539,35.6720018 102.077539,35.32 C102.013538,34.8079974 101.977539,34.1000045 101.969539,33.196 C101.961539,32.2919955 101.957539,31.2640058 101.957539,30.112 L101.957539,25.888 Z M110.963077,30.112 C110.963077,31.2640058 110.959077,32.2919955 110.951077,33.196 C110.943077,34.1000045 110.907077,34.8079974 110.843077,35.32 C110.795077,35.6720018 110.727078,35.9679988 110.639077,36.208 C110.551077,36.4480012 110.387078,36.5919998 110.147077,36.64 C110.035077,36.6720002 109.915078,36.6959999 109.787077,36.712 C109.659076,36.7280001 109.539078,36.736 109.427077,36.736 C109.299076,36.736 109.235077,36.7839995 109.235077,36.88 C109.235077,37.0080006 109.363076,37.072 109.619077,37.072 C109.795078,37.072 110.011076,37.0640001 110.267077,37.048 C110.523078,37.0319999 110.771076,37.024 111.011077,37.024 C111.267078,37.0079999 111.483076,37 111.659077,37 L111.971077,37 C112.019077,37 112.187076,37.004 112.475077,37.012 C112.763079,37.02 113.083075,37.0399998 113.435077,37.072 C113.787079,37.0880001 114.131075,37.1039999 114.467077,37.12 C114.803079,37.1360001 115.035076,37.144 115.163077,37.144 C116.187082,37.144 117.083073,36.9920015 117.851077,36.688 C118.619081,36.3839985 119.255075,35.9840025 119.759077,35.488 C120.26308,34.9919975 120.643076,34.4320031 120.899077,33.808 C121.155078,33.1839969 121.283077,32.5520032 121.283077,31.912 C121.283077,31.2079965 121.151078,30.5760028 120.887077,30.016 C120.623076,29.4559972 120.287079,28.9640021 119.879077,28.54 C119.471075,28.1159979 119.02308,27.7640014 118.535077,27.484 C118.047075,27.2039986 117.579079,26.9920007 117.131077,26.848 C117.419079,26.5599986 117.695076,26.2640015 117.959077,25.96 C118.223078,25.6559985 118.463076,25.3320017 118.679077,24.988 C118.895078,24.6439983 119.067076,24.272002 119.195077,23.872 C119.323078,23.471998 119.387077,23.0240025 119.387077,22.528 C119.387077,22.2239985 119.323078,21.868002 119.195077,21.46 C119.067076,21.051998 118.823079,20.6600019 118.463077,20.284 C118.103075,19.9079981 117.61108,19.5880013 116.987077,19.324 C116.363074,19.0599987 115.563082,18.928 114.587077,18.928 C114.027074,18.928 113.523079,18.9399999 113.075077,18.964 C112.627075,18.9880001 112.259079,19 111.971077,19 C111.939077,19 111.831078,18.996 111.647077,18.988 C111.463076,18.98 111.239078,18.972 110.975077,18.964 C110.711076,18.956 110.427079,18.948 110.123077,18.94 C109.819076,18.932 109.531078,18.928 109.259077,18.928 C109.003076,18.928 108.875077,18.9919994 108.875077,19.12 C108.875077,19.2160005 108.939076,19.264 109.067077,19.264 C109.179078,19.264 109.319076,19.268 109.487077,19.276 C109.655078,19.284 109.787077,19.3039998 109.883077,19.336 C110.283079,19.4160004 110.547076,19.559999 110.675077,19.768 C110.803078,19.976001 110.883077,20.2879979 110.915077,20.704 C110.931077,20.896001 110.943077,21.0999989 110.951077,21.316 C110.959077,21.5320011 110.963077,21.8239982 110.963077,22.192 L110.963077,23.608 L110.963077,25.888 L110.963077,30.112 Z M112.883077,19.984 C112.883077,19.8559994 112.979076,19.7680002 113.171077,19.72 C113.363078,19.6719998 113.571076,19.6400001 113.795077,19.624 C114.019078,19.6079999 114.195076,19.6 114.323077,19.6 C114.91508,19.6 115.415075,19.7199988 115.823077,19.96 C116.231079,20.2000012 116.563076,20.515998 116.819077,20.908 C117.075078,21.300002 117.263077,21.7439975 117.383077,22.24 C117.503078,22.7360025 117.563077,23.2319975 117.563077,23.728 C117.563077,24.2240025 117.483078,24.6799979 117.323077,25.096 C117.163076,25.5120021 116.955078,25.8639986 116.699077,26.152 C116.571076,26.2960007 116.447078,26.4079996 116.327077,26.488 C116.207077,26.5680004 116.071078,26.6319998 115.919077,26.68 C115.767076,26.7280002 115.579078,26.756 115.355077,26.764 C115.131076,26.772 114.851079,26.776 114.515077,26.776 C114.067075,26.776 113.731078,26.7640001 113.507077,26.74 C113.283076,26.7159999 113.131078,26.6960001 113.051077,26.68 C112.939077,26.6319998 112.883077,26.5440006 112.883077,26.416 L112.883077,19.984 Z M112.883077,27.592 C112.883077,27.4799994 112.931077,27.424 113.027077,27.424 L113.435077,27.424 L113.987077,27.424 C114.179078,27.424 114.359076,27.428 114.527077,27.436 C114.695078,27.444 114.819077,27.4559999 114.899077,27.472 C115.187079,27.5040002 115.487076,27.5599996 115.799077,27.64 C116.111079,27.7200004 116.475075,27.8959986 116.891077,28.168 C117.355079,28.4880016 117.735076,28.847998 118.031077,29.248 C118.327079,29.648002 118.563076,30.0639978 118.739077,30.496 C118.915078,30.9280022 119.039077,31.3599978 119.111077,31.792 C119.183077,32.2240022 119.219077,32.6159982 119.219077,32.968 C119.219077,33.6400034 119.103078,34.1959978 118.871077,34.636 C118.639076,35.0760022 118.351079,35.4239987 118.007077,35.68 C117.663075,35.9360013 117.295079,36.1159995 116.903077,36.22 C116.511075,36.3240005 116.155079,36.376 115.835077,36.376 C115.723077,36.376 115.583078,36.372 115.415077,36.364 C115.247076,36.356 115.063078,36.3400001 114.863077,36.316 C114.663076,36.2919999 114.463078,36.2560002 114.263077,36.208 C114.063076,36.1599998 113.883078,36.0960004 113.723077,36.016 C113.531076,35.9199995 113.387078,35.8240005 113.291077,35.728 C113.195077,35.6319995 113.119077,35.5160007 113.063077,35.38 C113.007077,35.2439993 112.971077,35.076001 112.955077,34.876 C112.939077,34.675999 112.923077,34.4320014 112.907077,34.144 C112.907077,34.0479995 112.903077,33.8120019 112.895077,33.436 C112.887077,33.0599981 112.883077,32.6160026 112.883077,32.104 L112.883077,30.496 L112.883077,28.96 L112.883077,27.592 Z M127.912616,30.112 C127.912616,31.2640058 127.908616,32.2919955 127.900616,33.196 C127.892616,34.1000045 127.856616,34.8079974 127.792616,35.32 C127.744615,35.6720018 127.676616,35.9679988 127.588616,36.208 C127.500615,36.4480012 127.336617,36.5919998 127.096616,36.64 C126.984615,36.6720002 126.864616,36.6959999 126.736616,36.712 C126.608615,36.7280001 126.488616,36.736 126.376616,36.736 C126.248615,36.736 126.184616,36.7839995 126.184616,36.88 C126.184616,37.0080006 126.312614,37.072 126.568616,37.072 C126.744617,37.072 126.960614,37.068 127.216616,37.06 C127.472617,37.052 127.720614,37.044 127.960616,37.036 C128.200617,37.028 128.404615,37.02 128.572616,37.012 C128.740616,37.004 128.824616,37 128.824616,37 C128.856616,37 128.964615,37.004 129.148616,37.012 C129.332617,37.02 129.564614,37.028 129.844616,37.036 C130.124617,37.044 130.432614,37.052 130.768616,37.06 C131.104617,37.068 131.440614,37.072 131.776616,37.072 C132.032617,37.072 132.160616,37.0080006 132.160616,36.88 C132.160616,36.7839995 132.096616,36.736 131.968616,36.736 C131.856615,36.736 131.692617,36.7280001 131.476616,36.712 C131.260615,36.6959999 131.064617,36.6720002 130.888616,36.64 C130.520614,36.5919998 130.280616,36.4480012 130.168616,36.208 C130.056615,35.9679988 129.984616,35.6720018 129.952616,35.32 C129.888615,34.8079974 129.852616,34.1000045 129.844616,33.196 C129.836616,32.2919955 129.832616,31.2640058 129.832616,30.112 L129.832616,29.536 C129.832616,29.4079994 129.888615,29.344 130.000616,29.344 L132.952616,29.392 C133.064616,29.392 133.168615,29.4399995 133.264616,29.536 C133.376616,29.6960008 133.532615,29.9079987 133.732616,30.172 C133.932617,30.4360013 134.148614,30.7279984 134.380616,31.048 C134.612617,31.3680016 134.856614,31.7039982 135.112616,32.056 C135.368617,32.4080018 135.624614,32.7519983 135.880616,33.088 C136.568619,34.0000046 137.152613,34.7479971 137.632616,35.332 C138.112618,35.9160029 138.608613,36.3439986 139.120616,36.616 C139.424617,36.7920009 139.760614,36.9119997 140.128616,36.976 C140.496617,37.0400003 141.016612,37.072 141.688616,37.072 L143.392616,37.072 C143.616617,37.072 143.768615,37.0600001 143.848616,37.036 C143.928616,37.0119999 143.968616,36.9600004 143.968616,36.88 C143.968616,36.7839995 143.896616,36.736 143.752616,36.736 C143.672615,36.736 143.552616,36.732 143.392616,36.724 C143.232615,36.716 143.040617,36.6960002 142.816616,36.664 C142.512614,36.6159998 142.112618,36.488001 141.616616,36.28 C141.120613,36.071999 140.544619,35.6240034 139.888616,34.936 C139.184612,34.1839962 138.42462,33.2880052 137.608616,32.248 C136.792612,31.2079948 135.888621,30.0560063 134.896616,28.792 C135.968621,27.799995 136.720613,26.8520045 137.152616,25.948 C137.584618,25.0439955 137.800616,24.1440045 137.800616,23.248 C137.800616,22.8319979 137.740616,22.4480018 137.620616,22.096 C137.500615,21.7439982 137.356616,21.4320014 137.188616,21.16 C137.020615,20.8879986 136.840617,20.652001 136.648616,20.452 C136.456615,20.251999 136.288616,20.0960006 136.144616,19.984 C135.504612,19.5199977 134.804619,19.2280006 134.044616,19.108 C133.284612,18.9879994 132.520619,18.928 131.752616,18.928 C131.560615,18.928 131.320617,18.932 131.032616,18.94 C130.744614,18.948 130.452617,18.956 130.156616,18.964 C129.860614,18.972 129.596617,18.98 129.364616,18.988 C129.132614,18.996 128.984616,19 128.920616,19 C128.888615,19 128.780617,18.996 128.596616,18.988 C128.412615,18.98 128.188617,18.972 127.924616,18.964 C127.660614,18.956 127.376617,18.948 127.072616,18.94 C126.768614,18.932 126.480617,18.928 126.208616,18.928 C125.952614,18.928 125.824616,18.9919994 125.824616,19.12 C125.824616,19.2160005 125.888615,19.264 126.016616,19.264 C126.128616,19.264 126.268615,19.268 126.436616,19.276 C126.604616,19.284 126.736615,19.3039998 126.832616,19.336 C127.232618,19.4160004 127.496615,19.559999 127.624616,19.768 C127.752616,19.976001 127.832615,20.2879979 127.864616,20.704 C127.880616,20.896001 127.892616,21.0999989 127.900616,21.316 C127.908616,21.5320011 127.912616,21.8239982 127.912616,22.192 L127.912616,23.608 L127.912616,25.888 L127.912616,30.112 Z M129.832616,20.128 C129.832616,19.9839993 129.896615,19.8880002 130.024616,19.84 C130.152616,19.8079998 130.360614,19.7760002 130.648616,19.744 C130.936617,19.7119998 131.264614,19.696 131.632616,19.696 C132.928622,19.696 133.944612,20.1199958 134.680616,20.968 C135.416619,21.8160042 135.784616,22.9919925 135.784616,24.496 C135.784616,25.4080046 135.644617,26.1799968 135.364616,26.812 C135.084614,27.4440032 134.736618,27.9039986 134.320616,28.192 C134.048614,28.384001 133.752617,28.5079997 133.432616,28.564 C133.112614,28.6200003 132.808617,28.648 132.520616,28.648 C131.992613,28.648 131.484618,28.6120004 130.996616,28.54 C130.508613,28.4679996 130.176617,28.3760006 130.000616,28.264 C129.888615,28.1999997 129.832616,28.1040006 129.832616,27.976 L129.832616,20.128 Z M144.598154,34.432 C144.374153,35.040003 144.122156,35.547998 143.842154,35.956 C143.562153,36.364002 143.142157,36.6079996 142.582154,36.688 C142.486154,36.7040001 142.366155,36.716 142.222154,36.724 C142.078153,36.732 141.966155,36.736 141.886154,36.736 C141.742153,36.736 141.670154,36.7839995 141.670154,36.88 C141.670154,37.0080006 141.822153,37.072 142.126154,37.072 C142.414156,37.072 142.702153,37.068 142.990154,37.06 C143.278156,37.052 143.550153,37.044 143.806154,37.036 C144.062155,37.028 144.282153,37.02 144.466154,37.012 C144.650155,37.004 144.774154,37 144.838154,37 C144.902155,37 145.010153,37.004 145.162154,37.012 C145.314155,37.02 145.478153,37.028 145.654154,37.036 C145.830155,37.044 146.014153,37.052 146.206154,37.06 C146.398155,37.068 146.566153,37.072 146.710154,37.072 C146.950155,37.072 147.070154,37.0080006 147.070154,36.88 C147.070154,36.7839995 146.990155,36.736 146.830154,36.736 L146.590154,36.736 C146.382153,36.736 146.178155,36.6800006 145.978154,36.568 C145.778153,36.4559994 145.678154,36.2800012 145.678154,36.04 C145.678154,35.5919978 145.790153,35.0560031 146.014154,34.432 L147.454154,30.184 C147.502154,30.0559994 147.582154,29.992 147.694154,29.992 L152.854154,29.992 C152.950155,29.992 153.022154,30.0399995 153.070154,30.136 L155.302154,36.04 C155.382155,36.232001 155.398154,36.3799995 155.350154,36.484 C155.302154,36.5880005 155.238155,36.6559998 155.158154,36.688 C155.046154,36.7200002 154.990154,36.7759996 154.990154,36.856 C154.990154,36.9360004 155.054154,36.98 155.182154,36.988 C155.310155,36.996 155.486153,37.0079999 155.710154,37.024 C156.126156,37.0400001 156.538152,37.052 156.946154,37.06 C157.354156,37.068 157.726153,37.072 158.062154,37.072 L158.950154,37.072 L159.478154,37.072 C159.606155,37.072 159.718154,37.0600001 159.814154,37.036 C159.910155,37.0119999 159.958154,36.9600004 159.958154,36.88 C159.958154,36.7839995 159.878155,36.736 159.718154,36.736 C159.590154,36.736 159.442155,36.7280001 159.274154,36.712 C159.106153,36.6959999 158.934155,36.6560003 158.758154,36.592 C158.630154,36.5599998 158.490155,36.5040004 158.338154,36.424 C158.186153,36.3439996 158.026155,36.208001 157.858154,36.016 C157.690153,35.823999 157.506155,35.5600017 157.306154,35.224 C157.106153,34.8879983 156.902155,34.4560026 156.694154,33.928 C156.454153,33.319997 156.154156,32.5600046 155.794154,31.648 C155.434152,30.7359954 155.058156,29.7720051 154.666154,28.756 C154.274152,27.7399949 153.878156,26.7120052 153.478154,25.672 C153.078152,24.6319948 152.714156,23.6760044 152.386154,22.804 C152.058153,21.9319956 151.778155,21.192003 151.546154,20.584 C151.314153,19.975997 151.166155,19.6000007 151.102154,19.456 C150.958153,19.0879982 150.854155,18.8520005 150.790154,18.748 C150.726154,18.6439995 150.654155,18.592 150.574154,18.592 C150.494154,18.592 150.422155,18.6479994 150.358154,18.76 C150.294154,18.8720006 150.190155,19.127998 150.046154,19.528 L144.598154,34.432 Z M147.958154,29.128 C147.862154,29.128 147.838154,29.0720006 147.886154,28.96 L149.998154,22.48 C150.110155,22.1279982 150.230154,22.1279982 150.358154,22.48 L152.638154,28.96 C152.670154,29.0720006 152.638155,29.128 152.542154,29.128 L147.958154,29.128 Z"></path>
            </g>
        </g>
    </g>
</svg>