<?xml version="1.0" encoding="UTF-8" standalone="no"?>
<svg width="241px" height="19px" viewBox="0 0 241 19" version="1.1" xmlns="http://www.w3.org/2000/svg" xmlns:xlink="http://www.w3.org/1999/xlink">
    <!-- Generator: Sketch 3.8.2 (29753) - http://www.bohemiancoding.com/sketch -->
    <title>uva-logo@2x</title>
    <desc>Created with Sketch.</desc>
    <defs></defs>
    <g id="Symbols" stroke="none" stroke-width="1" fill="none" fill-rule="evenodd">
        <g id="top-bar" transform="translate(-39.000000, -10.000000)">
            <g id="uva-logo">
                <g transform="translate(39.000000, 10.000000)">
                    <g id="horizontal_uva_library_logo">
                        <g id="Rotunda" fill="#E57200">
                            <polygon id="Fill-1" points="11.8312378 15.1578947 13.3070526 15.1578947 13.3070526 8.12605263 11.8312378 8.12605263"></polygon>
                            <polygon id="Fill-2" points="3.86388925 15.1578947 5.29263152 15.1578947 5.29263152 8.12605263 3.86388925 8.12605263"></polygon>
                            <polygon id="Fill-3" points="5.78439446 15.1578947 7.30780768 15.1578947 7.30780768 8.12605263 5.78439446 8.12605263"></polygon>
                            <polygon id="Fill-4" points="7.80035954 15.1578947 9.32377276 15.1578947 9.32377276 8.12605263 7.80035954 8.12605263"></polygon>
                            <polygon id="Fill-5" points="9.81527273 15.1578947 11.3386859 15.1578947 11.3386859 8.12605263 9.81527273 8.12605263"></polygon>
                            <polyline id="Fill-6" points="12.6727573 7.62921053 4.46583864 7.62921053 8.67816954 5.03552632 12.6727573 7.62921053"></polyline>
                            <polyline id="Fill-7" points="3.52044411 7.62921053 0.00473354702 7.62921053 0.00473354702 5.00894737 7.77669181 5.00894737 3.52044411 7.62921053"></polyline>
                            <polyline id="Fill-8" points="9.54730137 5.00894737 17.1193988 5.00894737 17.1193988 7.62921053 13.5823872 7.62921053 9.54730137 5.00894737"></polyline>
                            <path d="M16.0356795,4.51210526 L1.08818987,4.51210526 C2.5519078,1.86973684 5.35022301,0.0842105263 8.56167169,0.0842105263 C11.7728574,0.0842105263 14.5714356,1.86973684 16.0356795,4.51210526" id="Fill-9"></path>
                            <path d="M1.15603737,13.1534211 L1.02744268,13.5473684 L1.36220964,13.3039474 L1.69697661,13.5473684 L1.56917084,13.1534211 L1.9039378,12.91 L1.49001541,12.91 L1.36220964,12.5163158 L1.23440387,12.91 L0.820481484,12.91 L1.15603737,13.1534211 L1.15603737,13.1534211 Z M0.00289272318,10.9176316 L0.338185637,11.1610526 L0.209590943,11.555 L0.544357908,11.3115789 L0.879124872,11.555 L0.751319103,11.1610526 L1.08608607,10.9176316 L0.672426652,10.9176316 L0.544357908,10.5239474 L0.416552138,10.9176316 L0.00289272318,10.9176316 L0.00289272318,10.9176316 Z M3.37238928,15.1576316 L2.91980959,15.1576316 L2.79279274,14.7665789 L3.12755971,14.5231579 L2.71363732,14.5231579 L2.58583155,14.1294737 L2.45802578,14.5231579 L2.04410339,14.5231579 L2.37965928,14.7665789 L2.25185351,15.1576316 L0.00473354702,15.1576316 L0.00289272318,10.9176316 L0.00473354702,9.38894737 L0.3187255,9.16052632 L0.653492464,9.40394737 L0.525686694,9.01026316 L0.860190684,8.76684211 L0.446531269,8.76684211 L0.3187255,8.37289474 L0.260345086,8.55263158 L0.179611812,8.76684211 L0.00473354702,8.76684211 L0.00473354702,8.12605263 L3.37238928,8.12605263 L3.37238928,15.1576316 L3.37238928,15.1576316 Z M2.91691687,15.1576316 L2.25474623,15.1576316 L2.58583155,14.9171053 L2.91691687,15.1576316 L2.91691687,15.1576316 Z M0.00473354702,9.34052632 L0.00473354702,8.93210526 L0.10334911,9.00368421 L0.0315569802,9.22289474 L0.00473354702,9.34052632 L0.00473354702,9.34052632 Z" id="Fill-10"></path>
                            <polygon id="Fill-11" points="0.0157784901 17.5210526 3.37238928 17.5210526 3.37238928 15.6544737 0.0157784901 15.6544737"></polygon>
                            <polygon id="Fill-12" points="13.7985525 17.5210526 17.1193988 17.5210526 17.1193988 15.6544737 13.7985525 15.6544737"></polygon>
                            <path d="M10.8703278,16.9726316 L11.2056207,16.7292105 L10.7916983,16.7292105 L10.6638925,16.3352632 L10.5360867,16.7292105 L10.1224273,16.7292105 L10.4571943,16.9726316 L10.3291256,17.3663158 L10.6638925,17.1228947 L10.9986595,17.3663158 L10.8703278,16.9726316 L10.8703278,16.9726316 Z M8.36943709,17.2339474 L8.27555507,17.5213158 L3.86388925,17.5213158 L3.86388925,15.6544737 L4.40824715,15.6544737 L4.31331324,15.9468421 L3.89939085,15.9468421 L4.23494674,16.1902632 L4.10635204,16.5839474 L4.44111901,16.3405263 L4.77588597,16.5839474 L4.6480802,16.19 L4.98284717,15.9468421 L4.56892478,15.9468421 L4.47425384,15.6544737 L12.6724943,15.6544737 L12.5775604,15.9468421 L12.163901,15.9468421 L12.4986679,16.19 L12.3708622,16.5839474 L12.7056291,16.3405263 L13.0403961,16.5839474 L12.9118014,16.1902632 L13.2470943,15.9468421 L12.8334349,15.9468421 L12.738501,15.6544737 L13.3070526,15.6544737 L13.3070526,17.5213158 L8.87592662,17.5213158 L8.78257055,17.2339474 L9.11733752,16.9905263 L8.7036781,16.9905263 L8.57560936,16.5968421 L8.44780359,16.9905263 L8.03414417,16.9905263 L8.36943709,17.2339474 L8.36943709,17.2339474 Z M6.21646212,16.9726316 L6.08786742,17.3663158 L6.42263439,17.1228947 L6.75740135,17.3663158 L6.62959558,16.9726316 L6.96436255,16.7292105 L6.55044016,16.7292105 L6.42263439,16.3352632 L6.29482862,16.7292105 L5.8811692,16.7292105 L6.21646212,16.9726316 L6.21646212,16.9726316 Z M8.76600314,17.5213158 L8.38731938,17.5213158 L8.57560936,17.3844737 L8.76600314,17.5213158 L8.76600314,17.5213158 Z" id="Fill-13"></path>
                            <path d="M15.9907108,13.1534211 L16.3262667,12.91 L15.9123443,12.91 L15.7845385,12.5163158 L15.6567327,12.91 L15.2428103,12.91 L15.5775773,13.1534211 L15.4497715,13.5473684 L15.7845385,13.3039474 L16.1193055,13.5473684 L15.9907108,13.1534211 L15.9907108,13.1534211 Z M14.8946317,15.1576316 L14.7670889,14.7665789 L15.1023818,14.5231579 L14.6887224,14.5231579 L14.5609166,14.1294737 L14.4328478,14.5231579 L14.0191884,14.5231579 L14.3539554,14.7665789 L14.2269386,15.1576316 L14.5609166,14.9171053 L14.8920019,15.1576316 L14.8946317,15.1576316 L14.8946317,15.1576316 Z M17.1193988,15.1576316 L13.7985525,15.1576316 L13.7985525,8.12605263 L17.1193988,8.12605263 L17.1193988,8.76684211 L16.9558284,8.76684211 L16.8280226,8.37289474 L16.7002169,8.76684211 L16.2862945,8.76684211 L16.6210614,9.01026316 L16.4932557,9.40394737 L16.8280226,9.16052632 L17.1193988,9.37236842 L17.1193988,10.9178947 L16.730196,10.9176316 L16.6021273,10.5239474 L16.4743215,10.9176316 L16.0606621,10.9176316 L16.395429,11.1610526 L16.2673603,11.555 L16.6021273,11.3115789 L16.9368942,11.555 L16.8085625,11.1610526 L17.1193988,10.9355263 L17.1193988,15.1576316 L17.1193988,15.1576316 Z M17.1193988,8.94842105 L17.1193988,9.27078947 L17.0341949,9.01026316 L17.1193988,8.94842105 L17.1193988,8.94842105 Z" id="Fill-14"></path>
                        </g>
                        <path d="M106.059855,15.3155263 C105.340618,15.3155263 104.712635,14.6218421 104.712635,13.6271053 C104.712635,11.9781579 105.955191,9.74026316 107.694506,9.74026316 C108.571001,9.74026316 109.094058,10.3815789 109.094058,11.2713158 C109.094058,12.7110526 107.956166,15.3155263 106.059855,15.3155263 L106.059855,15.3155263 Z M105.863675,14.6873684 C107.223781,14.6873684 108.571001,11.9389474 108.571001,11.075 C108.58415,10.6694737 108.348525,10.3421053 107.916983,10.3421053 C107.367628,10.3421053 106.674427,10.8394737 106.020671,11.8997368 C105.575981,12.6063158 105.261989,13.4047368 105.261989,14.0197368 C105.261989,14.4386842 105.549946,14.6873684 105.863675,14.6873684 L105.863675,14.6873684 Z" id="Fill-15" fill="#FFFFFF"></path>
                        <path d="M110.553569,10.4465789 L109.389642,10.4465789 C109.324161,10.4465789 109.292078,10.3826316 109.318376,10.2910526 L109.370708,10.0686842 C109.396742,9.97684211 109.487206,9.76736842 109.59187,9.76736842 L110.729499,9.76736842 C111.12212,8.64184211 111.502382,7.72578947 112.195583,6.95368421 C112.561907,6.53473684 113.281144,6.06368421 114.131341,6.06368421 C114.889761,6.06368421 115.308417,6.52184211 115.308417,6.83578947 C115.308417,7.24157895 115.046757,7.43789474 114.785097,7.43789474 C114.366704,7.43789474 114.248891,7.20236842 114.209708,6.91447368 C114.196559,6.78342105 114.06586,6.53473684 113.673502,6.53473684 C112.457243,6.53473684 112.194532,8.26368421 111.762727,9.72947368 L112.514046,9.74710526 L112.514046,10.4568421 L111.450313,10.4465789 C111.110023,11.5068421 110.5086,13.7460526 109.854581,15.4213158 C109.056716,17.4631579 108.128152,18.9157895 106.728863,18.9157895 C106.205543,18.9157895 105.78715,18.5623684 105.78715,18.1436842 C105.78715,17.8426316 106.009626,17.5807895 106.349653,17.5807895 C106.728863,17.5807895 106.925042,17.9473684 106.964225,18.1697368 C106.99026,18.3005263 107.082038,18.3923684 107.186439,18.3923684 C107.814423,18.3923684 108.52051,17.2928947 109.226861,14.8715789 L110.553569,10.4465789" id="Fill-16" fill="#FFFFFF"></path>
                        <path d="M114.339617,4.11078947 C114.989165,4.12342105 115.850671,4.13657895 116.622239,4.13657895 C118.220074,4.13657895 119.076057,4.07947368 119.247254,4.07947368 C119.41845,4.07947368 119.437384,4.13657895 119.437384,4.21289474 L119.437384,4.65052632 C119.437384,4.74578947 119.41845,4.82184211 119.285122,4.82184211 L118.372073,4.82184211 C117.839549,4.82184211 117.573419,4.99315789 117.573419,5.31684211 C117.573419,5.46894737 117.592353,5.69736842 117.649419,5.96394737 C117.76355,6.64921053 118.46727,8.91421053 118.809664,9.98026316 C119.037926,10.7034211 120.141105,13.9773684 120.578695,15.1384211 C121.016022,14.2439474 122.499726,10.3228947 122.651989,9.885 C122.84212,9.37105263 123.565037,7.18210526 123.850365,6.34473684 C124.002365,5.86868421 124.116496,5.52605263 124.116496,5.25973684 C124.116496,5.03131579 123.98343,4.82184211 123.507972,4.82184211 L123.013316,4.82184211 C122.937317,4.82184211 122.918119,4.76473684 122.918119,4.65052632 L122.918119,4.21289474 C122.918119,4.11763158 122.937317,4.07947368 123.03225,4.07947368 C123.203447,4.07947368 124.078364,4.13657895 125.276741,4.13657895 C126.665248,4.13657895 127.140969,4.07947368 127.312166,4.07947368 C127.426297,4.07947368 127.445231,4.11763158 127.445231,4.21289474 L127.445231,4.68868421 C127.445231,4.76473684 127.426297,4.82184211 127.312166,4.82184211 L126.798576,4.82184211 C126.170855,4.82184211 125.809528,5.12631579 125.447937,5.56421053 C124.953545,6.17342105 123.431709,10.0752632 123.108513,10.8747368 C122.880251,11.5028947 120.426433,17.5557895 120.331499,17.7463158 C120.255236,17.8984211 120.160039,17.9936842 120.065105,17.9936842 C119.912843,17.9936842 119.836843,17.8034211 119.741646,17.5557895 C119.133123,15.8047368 117.592353,11.465 117.344894,10.7797368 L117.154763,10.1323684 C116.698239,8.78105263 115.804387,6.02105263 115.556928,5.45 C115.366797,5.01236842 115.176666,4.82184211 114.777207,4.82184211 L114.339617,4.81763158 L114.339617,4.11078947" id="Fill-17" fill="#FFFFFF"></path>
                        <path d="M26.949924,16.9813158 C25.9608757,16.9813158 25.0099587,16.8481579 24.3822377,16.5815789 C23.0886645,16.0676316 22.4230752,15.23 22.1185504,14.0310526 C21.8902882,13.1744737 21.8142885,11.8992105 21.8142885,9.40552632 L21.8142885,4.87552632 C21.8142885,4.20921053 21.6812232,3.90473684 21.0913707,3.90473684 L20.1975192,3.90473684 C20.0833881,3.90473684 20.0644539,3.86657895 20.0644539,3.73342105 L20.0644539,3.31447368 C20.0644539,3.20026316 20.0833881,3.16236842 20.2356505,3.16236842 C20.4257814,3.16236842 21.3577642,3.21947368 22.8414682,3.21947368 C24.3251722,3.21947368 25.2382208,3.16236842 25.4472858,3.16236842 C25.5995483,3.16236842 25.6184824,3.20026316 25.6184824,3.27657895 L25.6184824,3.77131579 C25.6184824,3.86657895 25.5995483,3.90473684 25.46622,3.90473684 L24.515303,3.90473684 C23.9635818,3.90473684 23.6403857,4.26631579 23.6022544,4.685 C23.5833202,4.85631579 23.564123,6.18868421 23.564123,7.15947368 L23.564123,8.41578947 C23.564123,9.42473684 23.6403857,11.8421053 23.6593199,12.4510526 C23.6782541,13.3265789 23.8305165,14.2213158 24.2681067,14.8684211 C24.9718273,15.8963158 26.1891378,16.2389474 27.2923173,16.2389474 C28.3765625,16.2389474 29.4797419,15.8773684 30.1455942,15.1921053 C30.8874462,14.3926316 31.1346426,13.2505263 31.1346426,11.8421053 L31.1346426,7.76868421 C31.1346426,6.32210526 31.0965112,5.21815789 31.0394457,4.74210526 C30.9823801,4.24736842 30.6781183,3.90473684 30.1834626,3.90473684 L29.3466767,3.90473684 C29.2325456,3.90473684 29.2136114,3.84763158 29.2136114,3.75236842 L29.2136114,3.29552632 C29.2136114,3.20026316 29.2325456,3.16236842 29.3466767,3.16236842 C29.5368075,3.16236842 30.4117247,3.21947368 31.6861008,3.21947368 C32.9986082,3.21947368 33.6073949,3.16236842 33.7785916,3.16236842 C33.9497882,3.16236842 33.9687224,3.23842105 33.9687224,3.29552632 L33.9687224,3.71421053 C33.9687224,3.82842105 33.9497882,3.90473684 33.8545913,3.90473684 L33.0748709,3.90473684 C32.3711502,3.90473684 32.3138217,4.43763158 32.2567562,4.66605263 C32.2188878,4.85631579 32.2188878,7.55921053 32.2188878,7.82578947 C32.2188878,8.09210526 32.1807565,11.4231579 32.1236909,12.1655263 C32.0095598,13.7263158 31.5911669,14.9255263 30.5258558,15.8392105 C29.7650696,16.5434211 28.6048247,16.9813158 26.949924,16.9813158" id="Fill-18" fill="#FFFFFF"></path>
                        <path d="M42.1919454,10.365 C42.1919454,9.51473684 42.1506584,8.20842105 42.2542705,7.25447368 C42.2958205,6.96421053 42.3991696,6.81894737 42.91723,6.81894737 L43.1244542,6.81894737 C43.2075543,6.81894737 43.2488413,6.75684211 43.2488413,6.67368421 L43.2488413,6.23842105 C43.2488413,6.11394737 43.2075543,6.07236842 43.1039422,6.07236842 C42.9587801,6.07236842 42.2334955,6.13473684 41.7982721,6.13473684 C41.1353126,6.13473684 40.2440908,6.07236842 40.0991917,6.07236842 C39.9955796,6.07236842 39.9540296,6.11394737 39.9540296,6.17605263 L39.9540296,6.67368421 C39.9540296,6.77736842 39.9955796,6.81894737 40.0991917,6.81894737 L40.451315,6.81894737 C40.8037013,6.81894737 41.1145375,6.94342105 41.2181496,7.19210526 C41.3217617,7.44105263 41.3838238,8.64368421 41.3838238,9.14131579 C41.4253738,9.805 41.4461488,10.4478947 41.4461488,11.6297368 L41.4461488,12.9984211 L41.3630488,12.9984211 C41.1145375,12.7289474 39.187458,10.3026316 38.8142967,9.86736842 C38.3790733,9.34868421 35.9959954,6.34210526 35.9339333,6.25894737 C35.8510962,6.13473684 35.7267091,6.09315789 35.4366479,6.09315789 C35.1878737,6.09315789 34.7526503,6.13473684 34.4213021,6.13473684 C34.1933029,6.13473684 33.8616916,6.11394737 33.5924054,6.09315789 C33.3228562,6.09315789 33.094857,6.07236842 33.0535699,6.07236842 C32.9707329,6.07236842 32.9291828,6.13473684 32.9291828,6.19684211 L32.9291828,6.69447368 C32.9291828,6.77736842 32.9707329,6.81894737 33.0535699,6.81894737 L33.2400191,6.81894737 C33.8201416,6.81894737 34.338202,7.17157895 34.338202,7.91789474 L34.338202,10.0952632 C34.338202,12.4386842 34.296915,13.9107895 34.2761399,14.1597368 C34.2140779,14.6365789 33.8824666,14.7818421 33.6752424,14.7818421 L33.1984691,14.7818421 C33.136407,14.7818421 33.115632,14.8026316 33.115632,14.8439474 L33.115632,15.3831579 C33.115632,15.4868421 33.136407,15.5284211 33.177957,15.5284211 C33.3436312,15.5284211 34.2761399,15.4660526 34.5662012,15.4660526 C35.1670987,15.4660526 35.9959954,15.5284211 36.1411575,15.5284211 C36.2447696,15.5284211 36.2447696,15.4868421 36.2447696,15.4039474 L36.2447696,14.9063158 C36.2447696,14.8234211 36.2447696,14.7818421 36.1411575,14.7818421 L35.7059341,14.7818421 C35.49871,14.7818421 35.2707108,14.5536842 35.2086487,14.0768421 C35.1670987,13.8902632 35.0842616,11.8165789 35.0842616,10.5723684 L35.0842616,7.73131579 L35.1258116,7.73131579 C35.4574229,8.10473684 37.1357283,10.3442105 37.6332767,10.9247368 C37.8610129,11.1944737 38.7522346,12.2518421 39.7052554,13.3923684 C40.5549271,14.4086842 41.2594367,15.2586842 41.4045988,15.4039474 C41.4874359,15.4660526 41.69466,15.6113158 41.8811092,15.6113158 C42.1298834,15.6113158 42.1919454,15.4039474 42.1919454,15.2173684 L42.1919454,10.365" id="Fill-19" fill="#FFFFFF"></path>
                        <path d="M46.7056455,10.1576316 C46.7056455,10.0123684 46.7264205,7.54473684 46.7264205,7.33736842 C46.7471955,6.90184211 46.9336447,6.81894737 47.4929922,6.81894737 L47.8453784,6.81894737 C47.9489905,6.81894737 47.9697655,6.75684211 47.9697655,6.67368421 L47.9697655,6.17605263 C47.9697655,6.11394737 47.9282155,6.07236842 47.8453784,6.07236842 C47.6797043,6.07236842 46.6228084,6.13473684 46.0219109,6.13473684 C45.0478521,6.15526316 43.7632201,6.07236842 43.638833,6.07236842 C43.5559959,6.07236842 43.5144459,6.11394737 43.5144459,6.19684211 L43.5144459,6.67368421 C43.5144459,6.75684211 43.5352209,6.81894737 43.638833,6.81894737 L44.0117313,6.81894737 C44.882178,6.81894737 45.0686272,7.02631579 45.0686272,7.25447368 C45.0686272,7.54473684 45.1099142,9.61842105 45.1099142,9.95026316 L45.1099142,10.8626316 C45.1099142,11.5676316 45.0894022,14.2013158 45.0686272,14.3878947 C45.0270771,14.7610526 44.6954659,14.7818421 44.1776684,14.7818421 L43.7216701,14.7818421 C43.638833,14.7818421 43.597283,14.8439474 43.597283,14.9063158 L43.597283,15.3623684 C43.597283,15.4660526 43.638833,15.5284211 43.7216701,15.5284211 C43.8460572,15.5284211 45.0478521,15.4660526 45.7523617,15.4660526 C46.6848705,15.4660526 47.7625414,15.5284211 47.9282155,15.5284211 C48.0318276,15.5284211 48.0526026,15.4660526 48.0526026,15.3831579 L48.0526026,14.8855263 C48.0526026,14.8234211 48.0318276,14.7818421 47.9282155,14.7818421 L47.6173793,14.7818421 C47.0164818,14.7818421 46.7677076,14.4915789 46.7264205,14.0144737 C46.7056455,13.7034211 46.7056455,11.3186842 46.7056455,11.1944737 L46.7056455,10.1576316" id="Fill-20" fill="#FFFFFF"></path>
                        <path d="M67.4101802,10.7381579 C67.3894052,12.0031579 67.4101802,13.2265789 67.3894052,14.2426316 C67.3894052,14.6989474 67.140631,14.7818421 66.6433456,14.7818421 L66.3945714,14.7818421 C66.3117343,14.7818421 66.2704472,14.8234211 66.2704472,14.8855263 L66.2704472,15.3623684 C66.2704472,15.4660526 66.3117343,15.5284211 66.3945714,15.5284211 C66.5397335,15.5284211 67.5966293,15.4660526 68.1146898,15.4660526 C68.7984243,15.4660526 69.9173823,15.5284211 70.0625444,15.5284211 C70.1869315,15.5284211 70.2282185,15.4868421 70.2282185,15.3831579 L70.2282185,14.8855263 C70.2282185,14.8234211 70.1869315,14.7818421 70.1038314,14.7818421 L69.565259,14.7818421 C69.1508106,14.7818421 69.0264235,14.5536842 68.9848735,14.2634211 L68.9848735,11.5260526 C69.1300356,11.4847368 69.3164848,11.4847368 69.5237089,11.4847368 C70.3941556,11.4847368 70.7049919,11.9407895 71.4510515,13.2265789 C71.6375006,13.5376316 72.5492344,15.2173684 72.9429077,15.5076316 C73.295294,15.4868421 73.7925794,15.4660526 74.2690898,15.4660526 C74.476314,15.4660526 74.7250882,15.4868421 74.9115373,15.4868421 C75.1187615,15.5076316 75.2844357,15.5284211 75.3259857,15.5284211 C75.4088228,15.5284211 75.4503728,15.4660526 75.4503728,15.3831579 L75.4503728,14.9684211 C75.4503728,14.8439474 75.4295978,14.7818421 75.3467607,14.7818421 C74.9735994,14.7818421 74.7043132,14.7610526 74.4142519,14.5536842 C74.0205786,14.2634211 73.5438052,13.6413158 73.253744,13.2265789 C72.4040723,12.0239474 71.989624,11.3810526 71.5131136,11.2773684 L71.5131136,11.2357895 C73.1501319,10.6552632 73.9582536,9.82578947 73.9582536,8.395 C73.9582536,7.91789474 73.6889673,7.31657895 73.232969,6.88105263 C72.7149085,6.425 71.7823998,6.07236842 70.5390548,6.07236842 C70.2697685,6.07236842 68.4668131,6.13473684 68.2183018,6.13473684 C67.8451406,6.13473684 66.5605085,6.07236842 66.4568964,6.07236842 C66.3740593,6.07236842 66.3325093,6.11394737 66.3325093,6.17605263 L66.3325093,6.67368421 C66.3325093,6.75684211 66.3532843,6.81894737 66.4153464,6.81894737 L66.6225706,6.81894737 C67.202693,6.81894737 67.3894052,7.04710526 67.4101802,7.46184211 L67.4101802,10.7381579 L67.4101802,10.7381579 Z M68.9848735,7.19210526 C68.9848735,6.81894737 69.2957097,6.73605263 69.606546,6.73605263 C70.4354427,6.73605263 71.0158281,6.92263158 71.5751756,7.27526316 C71.9483369,7.52394737 72.2591732,8.08394737 72.2591732,8.70605263 C72.2591732,9.24526316 71.9067869,10.8626316 69.606546,10.8626316 C69.3372598,10.8626316 69.1300356,10.8418421 68.9848735,10.8210526 L68.9848735,7.19210526 L68.9848735,7.19210526 Z" id="Fill-21" fill="#FFFFFF"></path>
                        <path d="M78.7154683,15.715 C80.6012609,15.715 81.5958317,14.3878947 81.5958317,12.8326316 C81.5958317,11.7957895 81.3470575,11.2773684 80.9326092,10.8418421 C80.4145487,10.3026316 79.6479771,10.0744737 78.6946933,9.72210526 C78.30102,9.57684211 77.5549604,9.26578947 77.2441241,8.87184211 C77.0161249,8.60236842 76.9125129,8.16684211 76.9125129,7.85578947 C76.9125129,7.48263158 77.2441241,6.59078947 78.3838571,6.59078947 C78.9847546,6.59078947 79.4407529,6.79815789 79.7515892,7.15078947 C80.1865495,7.64842105 80.3524867,8.37421053 80.4768738,8.62315789 C80.4976488,8.68526316 80.5389358,8.72684211 80.6012609,8.70605263 L80.9741592,8.62315789 C81.0362212,8.60236842 81.0569962,8.56078947 81.0569962,8.49868421 C81.0362212,8.20842105 80.8497721,6.86052632 80.8497721,6.17605263 C80.8497721,6.07236842 80.8289971,5.98947368 80.6633229,5.98947368 C80.4976488,5.98947368 80.4353237,5.98947368 80.3940367,6.05157895 L80.3109366,6.19684211 C80.2696496,6.30052632 80.1660375,6.27973684 79.9588133,6.15526316 C79.7100391,6.03105263 79.2750788,5.88578947 78.4874691,5.88578947 C77.7414095,5.88578947 77.07845,6.07236842 76.5396145,6.50789474 C76.0836162,6.90184211 75.6486558,7.54473684 75.6486558,8.24973684 C75.6486558,9.26578947 75.897167,9.92947368 76.3739404,10.3857895 C76.9953499,10.9455263 77.9901837,11.3186842 78.4046321,11.4639474 C79.502815,11.8786842 80.3109366,12.3971053 80.3109366,13.5792105 C80.3109366,14.4707895 79.3163658,14.9892105 78.6534063,14.9892105 C77.8865716,14.9892105 77.2025741,14.5744737 76.8917378,13.9523684 C76.5188395,13.2681579 76.5188395,12.8326316 76.5188395,12.5423684 C76.5188395,12.4592105 76.4360025,12.4178947 76.3531654,12.3971053 L75.9800041,12.3555263 C75.897167,12.3555263 75.85588,12.4178947 75.835105,12.5007895 C75.8143299,12.8326316 75.6691678,14.4915789 75.6071058,15.0721053 C75.5863308,15.1757895 75.6486558,15.2586842 75.7727799,15.3002632 C75.938717,15.3418421 76.0423291,15.3002632 76.0836162,15.1965789 L76.1459412,15.0307895 C76.1872283,14.8647368 76.3116154,14.8855263 76.4567775,14.9892105 C76.9332879,15.3623684 77.6585725,15.715 78.7154683,15.715" id="Fill-22" fill="#FFFFFF"></path>
                        <path d="M85.1062828,10.1576316 C85.1062828,10.0123684 85.1267948,7.54473684 85.1267948,7.33736842 C85.1475698,6.90184211 85.334019,6.81894737 85.8936294,6.81894737 L86.2460157,6.81894737 C86.3493648,6.81894737 86.3701398,6.75684211 86.3701398,6.67368421 L86.3701398,6.17605263 C86.3701398,6.11394737 86.3288528,6.07236842 86.2460157,6.07236842 C86.0800786,6.07236842 85.0231827,6.13473684 84.4222852,6.13473684 C83.4484894,6.15526316 82.1635944,6.07236842 82.0392073,6.07236842 C81.9563702,6.07236842 81.9148202,6.11394737 81.9148202,6.19684211 L81.9148202,6.67368421 C81.9148202,6.75684211 81.9355952,6.81894737 82.0392073,6.81894737 L82.4123685,6.81894737 C83.2825523,6.81894737 83.4690014,7.02631579 83.4690014,7.25447368 C83.4690014,7.54473684 83.5105515,9.61842105 83.5105515,9.95026316 L83.5105515,10.8626316 C83.5105515,11.5676316 83.4897764,14.2013158 83.4690014,14.3878947 C83.4277144,14.7610526 83.0961031,14.7818421 82.5780427,14.7818421 L82.1220443,14.7818421 C82.0392073,14.7818421 81.9979202,14.8439474 81.9979202,14.9063158 L81.9979202,15.3623684 C81.9979202,15.4660526 82.0392073,15.5284211 82.1220443,15.5284211 C82.2464314,15.5284211 83.4484894,15.4660526 84.152736,15.4660526 C85.0855077,15.4660526 86.1629156,15.5284211 86.3288528,15.5284211 C86.4324648,15.5284211 86.4529769,15.4660526 86.4529769,15.3831579 L86.4529769,14.8855263 C86.4529769,14.8234211 86.4324648,14.7818421 86.3288528,14.7818421 L86.0180165,14.7818421 C85.416856,14.7818421 85.1683448,14.4915789 85.1267948,14.0144737 C85.1062828,13.7034211 85.1062828,11.3186842 85.1062828,11.1944737 L85.1062828,10.1576316" id="Fill-23" fill="#FFFFFF"></path>
                        <path d="M86.8676882,6.03421053 C86.8892521,6.02421053 86.8690031,6.02263158 86.9284354,6.02921053 C87.2437422,6.06447368 88.4200286,6.17605263 90.7084357,6.17605263 L91.5370694,6.17605263 C92.2144925,6.17605263 92.9437217,6.14842105 93.7336982,6.11578947 C94.1307902,6.10447368 96.5646222,6.13473684 97.0621706,6.13473684 C97.517906,6.13473684 98.9271882,6.07236842 99.0720873,6.07236842 C99.1549244,6.07236842 99.2172494,6.11394737 99.2172494,6.21763158 L99.2172494,6.67368421 C99.2172494,6.75684211 99.1964744,6.81894737 99.0720873,6.81894737 L98.761251,6.81894737 C98.3883527,6.81894737 98.3675777,7.04710526 98.4504148,7.17157895 C98.5748019,7.35815789 100.294657,10.1160526 100.626269,10.6136842 C100.937105,10.0952632 102.65696,7.58605263 102.74006,7.42026316 C102.905734,7.08842105 102.926509,6.81894737 102.470511,6.81894737 L102.139163,6.81894737 C102.035551,6.81894737 101.994001,6.75684211 101.994001,6.67368421 L101.994001,6.21763158 C101.994001,6.13473684 102.035551,6.07236842 102.139163,6.07236842 C102.263287,6.07236842 103.299408,6.13473684 103.92108,6.13473684 C104.294242,6.13473684 105.019526,6.07236842 105.14365,6.07236842 C105.247262,6.07236842 105.288812,6.11394737 105.288812,6.23842105 L105.288812,6.67368421 C105.288812,6.77736842 105.247262,6.81894737 105.164425,6.81894737 L104.957201,6.81894737 C104.625853,6.81894737 104.397854,6.88105263 104.211142,6.98473684 C103.900305,7.15078947 101.496715,10.5307895 101.019942,11.2565789 L101.019942,12.9984211 C101.040717,13.5168421 101.019942,14.0768421 101.061492,14.3255263 C101.103042,14.7610526 101.43439,14.7818421 101.807552,14.7818421 L102.076838,14.7818421 C102.18045,14.7818421 102.222,14.8234211 102.222,14.8855263 L102.222,15.3831579 C102.222,15.4660526 102.18045,15.5284211 102.056063,15.5284211 C101.931676,15.5284211 100.771431,15.4660526 100.087433,15.4660526 C99.6316977,15.4660526 98.4296398,15.5284211 98.3055157,15.5284211 C98.2019036,15.5284211 98.1603535,15.4868421 98.1603535,15.3623684 L98.1603535,14.9063158 C98.1603535,14.8439474 98.2019036,14.7818421 98.2847406,14.7818421 L98.5955769,14.7818421 C99.2585365,14.7818421 99.3829235,14.6573684 99.4036986,14.3671053 C99.4244736,14.1805263 99.4244736,13.4339474 99.4244736,12.2105263 L99.4244736,11.4639474 C99.2377614,11.0907895 96.7097844,7.37894737 96.3781731,7.06789474 C96.2027689,6.89236842 95.908763,6.83552632 95.7220509,6.82236842 C95.8453861,7.38447368 96.0123751,8.12078947 96.0783818,8.47789474 C96.0991568,8.56078947 96.0578697,8.60236842 95.9750327,8.64368421 L95.6226464,8.74736842 C95.4982593,8.78894737 95.4361972,8.76815789 95.3946472,8.66447368 C95.146136,8.14605263 94.7937497,7.46184211 94.3585264,7.06789474 C93.8404659,6.88105263 92.324679,6.86052632 91.9515177,6.86052632 L91.9515177,10.3442105 C91.9515177,12.5215789 91.9515177,14.0768421 91.9722927,14.2426316 C92.0138427,14.5744737 92.1174548,14.7818421 92.4488031,14.7818421 L93.2364127,14.7818421 C93.3400248,14.7818421 93.3813119,14.8439474 93.3813119,14.9684211 L93.3813119,15.4039474 C93.3813119,15.4660526 93.3400248,15.5284211 93.2364127,15.5284211 C93.0912506,15.5284211 91.8066186,15.4660526 91.122884,15.4660526 C90.5424985,15.4660526 89.1955414,15.5284211 89.0298673,15.5284211 C88.9054802,15.5284211 88.8639302,15.4660526 88.8639302,15.3418421 L88.8639302,14.9271053 C88.8639302,14.8234211 88.9054802,14.7818421 88.9883173,14.7818421 L89.8172139,14.7818421 C90.1280502,14.7818421 90.2732123,14.6160526 90.2937243,14.45 C90.3560494,13.6621053 90.3560494,12.5628947 90.3560494,11.3186842 L90.3560494,6.86052632 C89.9621131,6.86052632 88.7987124,6.83973684 88.0318778,7.04710526 C87.5138174,7.44105263 87.078594,8.10473684 86.8093078,8.64368421 C86.7677578,8.72684211 86.7056957,8.78894737 86.6228586,8.74736842 L86.2496973,8.60236842 C86.1460852,8.56078947 86.1460852,8.47789474 86.1668603,8.395 C86.2878287,8.015 86.6528378,6.71763158 86.8195638,6.09605263 C86.8266641,6.06894737 86.8400758,6.04710526 86.8676882,6.03421053" id="Fill-24" fill="#FFFFFF"></path>
                        <path d="M52.2962275,6.21763158 L52.2962275,6.69447368 C52.2962275,6.77736842 52.2341655,6.81894737 52.1513284,6.81894737 L51.674555,6.81894737 C51.4052688,6.81894737 51.0944325,6.86052632 51.0944325,7.13 C51.0944325,7.60684211 51.4468188,8.41578947 52.0061663,10.1576316 C52.1718404,10.6760526 52.938675,13.0813158 53.0630621,13.4131579 L53.1251242,13.4131579 C53.2495113,12.9776316 54.2648571,10.4063158 54.3684692,10.0952632 C55.1560788,7.79368421 55.4253651,7.23368421 55.4253651,7.02631579 C55.4253651,6.92263158 55.342528,6.81894737 54.9901417,6.81894737 L54.7621425,6.81894737 C54.6793055,6.81894737 54.6380184,6.77736842 54.6380184,6.67368421 L54.6380184,6.19684211 C54.6380184,6.13473684 54.6793055,6.07236842 54.7621425,6.07236842 C54.8865296,6.07236842 55.9642005,6.13473684 56.4407109,6.13473684 L59.6082428,6.13473684 L64.2500116,6.11394737 C64.4572358,6.11394737 64.726785,6.07236842 64.809622,6.07236842 C64.8511721,6.07236842 64.8924591,6.11394737 64.9340091,6.36263158 C64.9752962,6.54947368 65.5556816,8.33263158 65.5969687,8.47789474 C65.6177437,8.56078947 65.6177437,8.60236842 65.5764567,8.62315789 L65.2448454,8.76815789 C65.2032954,8.78894737 65.1204583,8.78894737 65.0583962,8.68526316 C65.0168462,8.62315789 64.0222754,7.46184211 63.6698891,7.13 C63.4211149,6.90184211 63.0897666,6.81894737 62.8825425,6.81894737 L60.6859137,6.77736842 L60.6859137,10.3026316 C60.8103008,10.3026316 62.0328708,10.2405263 62.1985449,10.1989474 C62.7373803,10.0539474 62.9446045,9.76368421 62.9446045,9.12078947 C62.9446045,9.03789474 62.9653795,9.01710526 63.0482166,9.01710526 L63.504215,9.03789474 C63.587052,9.03789474 63.6491141,9.07921053 63.6283391,9.16210526 C63.587052,9.34868421 63.587052,10.4478947 63.587052,10.6344737 C63.587052,11.0907895 63.6491141,11.7334211 63.6698891,12.0031579 C63.6698891,12.0860526 63.6283391,12.1068421 63.566277,12.1068421 L63.1310537,12.1481579 C63.0689916,12.1481579 63.0274416,12.1481579 63.0066666,12.0652632 C62.9030545,11.5468421 62.7786674,11.215 62.2400949,11.0907895 C61.6184224,10.9455263 60.8931378,10.9455263 60.6859137,10.9455263 L60.6859137,11.6505263 C60.6859137,12.3763158 60.7274637,13.5792105 60.7274637,13.8486842 C60.7274637,14.8234211 61.3283612,14.8855263 62.2193199,14.8855263 C63.1310537,14.8855263 63.7114391,14.8647368 64.4159487,14.305 C64.5816229,14.1805263 65.3069075,13.2473684 65.5141316,12.9155263 C65.6177437,12.7702632 65.7213558,12.7497368 65.7834179,12.7910526 L66.1150291,12.9776316 C66.1565791,12.9984211 66.1981292,13.0607895 66.1773542,13.1228947 L65.4312946,15.3210526 C65.3897445,15.4247368 65.2861324,15.5284211 65.2032954,15.5284211 C65.0583962,15.5284211 63.9599504,15.4660526 59.6082428,15.4660526 C59.2353445,15.4660526 58.0956115,15.5284211 57.8468373,15.5284211 C57.7432253,15.5284211 57.7227132,15.4660526 57.7227132,15.3831579 L57.7227132,14.9063158 C57.7227132,14.8234211 57.7640003,14.7818421 57.8676124,14.7818421 L58.0540615,14.7818421 C59.0281203,14.7818421 59.0901824,14.6989474 59.0901824,14.4086842 L59.0901824,9.99157895 C59.0901824,8.89263158 59.0696703,7.54473684 59.0488953,7.33736842 C58.9865703,6.90184211 58.8624462,6.81894737 58.0335495,6.81894737 L57.5391568,6.81894737 C57.1452205,6.81894737 56.8551592,6.94342105 56.6687101,7.13 C56.2750368,7.52394737 55.1560788,10.2405263 54.9485917,10.7797368 C54.7621425,11.215 53.0630621,15.2794737 52.897125,15.5489474 C52.8350629,15.6528947 52.7314509,15.715 52.5657767,15.715 C52.3998396,15.715 52.2962275,15.5697368 52.2341655,15.4039474 C51.7781671,14.1805263 50.6799842,11.1736842 50.51431,10.7173684 L50.3691479,10.2613158 C50.0167616,9.30736842 49.3950891,7.42026316 49.25019,7.21289474 C49.0842529,6.98473684 48.9185787,6.81894737 48.6490295,6.81894737 L48.4420683,6.81894737 C48.3589683,6.81894737 48.3381933,6.75684211 48.3381933,6.69447368 L48.3381933,6.17605263 C48.3381933,6.11394737 48.3797433,6.07236842 48.4625804,6.07236842 C48.5661925,6.07236842 49.7059254,6.13473684 50.2447608,6.13473684 C50.7420462,6.13473684 52.0061663,6.07236842 52.1305534,6.07236842 C52.2549405,6.07236842 52.2962275,6.11394737 52.2962275,6.21763158" id="Fill-25" fill="#FFFFFF"></path>
                        <path d="M129.454885,10.1576316 C129.454885,10.0123684 129.47566,7.54473684 129.47566,7.33736842 C129.496172,6.90184211 129.682621,6.81894737 130.242231,6.81894737 L130.594618,6.81894737 C130.69823,6.81894737 130.719005,6.75684211 130.719005,6.67368421 L130.719005,6.17605263 C130.719005,6.11394737 130.677455,6.07236842 130.594618,6.07236842 C130.428944,6.07236842 129.372048,6.13473684 128.77115,6.13473684 C127.797091,6.15526316 126.512196,6.07236842 126.387809,6.07236842 C126.304972,6.07236842 126.263422,6.11394737 126.263422,6.19684211 L126.263422,6.67368421 C126.263422,6.75684211 126.28446,6.81894737 126.387809,6.81894737 L126.760971,6.81894737 C127.631154,6.81894737 127.817866,7.02631579 127.817866,7.25447368 C127.817866,7.54473684 127.859154,9.61842105 127.859154,9.95026316 L127.859154,10.8626316 C127.859154,11.5676316 127.838641,14.2013158 127.817866,14.3878947 C127.776316,14.7610526 127.444705,14.7818421 126.926645,14.7818421 L126.470909,14.7818421 C126.387809,14.7818421 126.346522,14.8439474 126.346522,14.9063158 L126.346522,15.3623684 C126.346522,15.4660526 126.387809,15.5284211 126.470909,15.5284211 C126.595296,15.5284211 127.797091,15.4660526 128.501601,15.4660526 C129.43411,15.4660526 130.511781,15.5284211 130.677455,15.5284211 C130.781067,15.5284211 130.801842,15.4660526 130.801842,15.3831579 L130.801842,14.8855263 C130.801842,14.8234211 130.781067,14.7818421 130.677455,14.7818421 L130.366619,14.7818421 C129.765721,14.7818421 129.516947,14.4915789 129.47566,14.0144737 C129.454885,13.7034211 129.454885,11.3186842 129.454885,11.1944737 L129.454885,10.1576316" id="Fill-26" fill="#FFFFFF"></path>
                        <path d="M132.600064,10.7381579 C132.579289,12.0031579 132.600064,13.2265789 132.579289,14.2426316 C132.579289,14.6989474 132.330778,14.7818421 131.833492,14.7818421 L131.584718,14.7818421 C131.501881,14.7818421 131.460331,14.8234211 131.460331,14.8855263 L131.460331,15.3623684 C131.460331,15.4660526 131.501881,15.5284211 131.584718,15.5284211 C131.72988,15.5284211 132.786776,15.4660526 133.304573,15.4660526 C133.988571,15.4660526 135.107529,15.5284211 135.252691,15.5284211 C135.376815,15.5284211 135.418365,15.4868421 135.418365,15.3831579 L135.418365,14.8855263 C135.418365,14.8234211 135.376815,14.7818421 135.293978,14.7818421 L134.755406,14.7818421 C134.340694,14.7818421 134.21657,14.5536842 134.17502,14.2634211 L134.17502,11.5260526 C134.320182,11.4847368 134.506631,11.4847368 134.713856,11.4847368 C135.584039,11.4847368 135.894876,11.9407895 136.640935,13.2265789 C136.827384,13.5376316 137.739381,15.2173684 138.133054,15.5076316 C138.485178,15.4868421 138.982726,15.4660526 139.459236,15.4660526 C139.666461,15.4660526 139.914972,15.4868421 140.101684,15.4868421 C140.308908,15.5076316 140.474582,15.5284211 140.516132,15.5284211 C140.598969,15.5284211 140.640519,15.4660526 140.640519,15.3831579 L140.640519,14.9684211 C140.640519,14.8439474 140.619744,14.7818421 140.536907,14.7818421 C140.163746,14.7818421 139.89446,14.7610526 139.604136,14.5536842 C139.210725,14.2634211 138.733952,13.6413158 138.443891,13.2265789 C137.594219,12.0239474 137.179771,11.3810526 136.70326,11.2773684 L136.70326,11.2357895 C138.340279,10.6552632 139.1484,9.82578947 139.1484,8.395 C139.1484,7.91789474 138.879114,7.31657895 138.423116,6.88105263 C137.905055,6.425 136.972546,6.07236842 135.729201,6.07236842 C135.459915,6.07236842 133.65696,6.13473684 133.408186,6.13473684 C133.035287,6.13473684 131.750392,6.07236842 131.647043,6.07236842 C131.563943,6.07236842 131.522656,6.11394737 131.522656,6.17605263 L131.522656,6.67368421 C131.522656,6.75684211 131.543431,6.81894737 131.605493,6.81894737 L131.812717,6.81894737 C132.39284,6.81894737 132.579289,7.04710526 132.600064,7.46184211 L132.600064,10.7381579 L132.600064,10.7381579 Z M134.294148,7.19210526 C134.294148,6.81894737 134.604984,6.73605263 134.91582,6.73605263 C135.744717,6.73605263 136.325102,6.92263158 136.88445,7.27526316 C137.257348,7.52394737 137.568447,8.08394737 137.568447,8.70605263 C137.568447,9.24526316 137.216061,10.8626316 134.91582,10.8626316 C134.646534,10.8626316 134.43931,10.8418421 134.294148,10.8210526 L134.294148,7.19210526 L134.294148,7.19210526 Z" id="Fill-27" fill="#FFFFFF"></path>
                        <path d="M148.156077,12.6460526 C148.156077,12.2934211 148.549751,12.2105263 148.756975,12.2105263 L149.109361,12.2105263 C149.171423,12.2105263 149.212973,12.1484211 149.212973,12.0860526 L149.212973,11.5884211 C149.212973,11.5260526 149.171423,11.4847368 149.088586,11.4847368 C149.005749,11.4847368 148.07324,11.5260526 147.306406,11.5260526 C146.187448,11.5260526 145.172102,11.4847368 145.047715,11.4847368 C144.964878,11.4847368 144.944103,11.5260526 144.944103,11.5884211 L144.944103,12.0860526 C144.944103,12.1484211 144.964878,12.1897368 145.047715,12.1897368 L145.545,12.1897368 C146.083836,12.1897368 146.560609,12.335 146.560609,12.8118421 L146.560609,13.5792105 C146.560609,13.9939474 146.519059,14.2634211 146.249773,14.4707895 C145.918161,14.7402632 145.254939,14.9271053 144.529654,14.9271053 C143.949532,14.9271053 143.120635,14.6160526 142.540513,13.9939474 C141.732128,13.1436842 141.276393,11.9615789 141.276393,10.365 C141.276393,9.43184211 141.732128,8.33263158 142.3538,7.64842105 C143.120635,6.81894737 143.928757,6.59078947 144.571204,6.59078947 C145.524225,6.59078947 146.104611,7.00552632 146.663958,7.58605263 C147.161506,8.08394737 147.51363,8.72684211 147.658792,9.05842105 C147.720854,9.22447368 147.762404,9.24526316 147.824466,9.22447368 L148.218402,9.1 C148.280464,9.07921053 148.301239,9.03789474 148.301239,8.93421053 C148.259689,8.56078947 147.990403,6.63236842 147.990403,6.52868421 C147.990403,6.38342105 147.948853,6.30052632 147.762404,6.30052632 C147.596467,6.30052632 147.534405,6.36263158 147.492855,6.44578947 L147.389506,6.63236842 C147.347956,6.69447368 147.265118,6.69447368 147.099181,6.54947368 C146.705508,6.25894737 145.731712,5.88578947 144.736878,5.88578947 C143.265797,5.88578947 142.001677,6.32131579 141.027618,7.15078947 C140.033048,8.02157895 139.494212,9.28657895 139.494212,10.5515789 C139.494212,12.1689474 139.90866,13.2886842 140.737557,14.2013158 C141.711616,15.2794737 143.369146,15.715 144.446817,15.715 C145.772999,15.715 146.891957,15.4247368 147.990403,14.8855263 C148.135565,14.8234211 148.218402,14.7610526 148.218402,14.6573684 C148.218402,14.5536842 148.156077,14.4292105 148.156077,14.2426316 L148.156077,12.6460526" id="Fill-28" fill="#FFFFFF"></path>
                        <path d="M152.199841,10.1576316 C152.199841,10.0123684 152.220353,7.54473684 152.220353,7.33736842 C152.241128,6.90184211 152.42784,6.81894737 152.987188,6.81894737 L153.339311,6.81894737 C153.443186,6.81894737 153.463698,6.75684211 153.463698,6.67368421 L153.463698,6.17605263 C153.463698,6.11394737 153.422411,6.07236842 153.339311,6.07236842 C153.173637,6.07236842 152.116741,6.13473684 151.515844,6.13473684 C150.542048,6.15526316 149.257153,6.07236842 149.132766,6.07236842 C149.049929,6.07236842 149.008642,6.11394737 149.008642,6.19684211 L149.008642,6.67368421 C149.008642,6.75684211 149.029154,6.81894737 149.132766,6.81894737 L149.505927,6.81894737 C150.376111,6.81894737 150.56256,7.02631579 150.56256,7.25447368 C150.56256,7.54473684 150.60411,9.61842105 150.60411,9.95026316 L150.60411,10.8626316 C150.60411,11.5676316 150.583335,14.2013158 150.56256,14.3878947 C150.521273,14.7610526 150.189662,14.7818421 149.671601,14.7818421 L149.215603,14.7818421 C149.132766,14.7818421 149.091479,14.8439474 149.091479,14.9063158 L149.091479,15.3623684 C149.091479,15.4660526 149.132766,15.5284211 149.215603,15.5284211 C149.33999,15.5284211 150.542048,15.4660526 151.246557,15.4660526 C152.179066,15.4660526 153.256474,15.5284211 153.422411,15.5284211 C153.526023,15.5284211 153.546798,15.4660526 153.546798,15.3831579 L153.546798,14.8855263 C153.546798,14.8234211 153.526023,14.7818421 153.422411,14.7818421 L153.111575,14.7818421 C152.510677,14.7818421 152.261903,14.4915789 152.220353,14.0144737 C152.199841,13.7034211 152.199841,11.3186842 152.199841,11.1944737 L152.199841,10.1576316" id="Fill-29" fill="#FFFFFF"></path>
                        <path d="M163.356549,10.365 C163.356549,9.51473684 163.314999,8.20842105 163.418611,7.25447368 C163.460161,6.96421053 163.563773,6.81894737 164.081833,6.81894737 L164.289057,6.81894737 C164.371894,6.81894737 164.413444,6.75684211 164.413444,6.67368421 L164.413444,6.23842105 C164.413444,6.11394737 164.371894,6.07236842 164.268282,6.07236842 C164.12312,6.07236842 163.397836,6.13473684 162.962875,6.13473684 C162.299653,6.13473684 161.408694,6.07236842 161.263532,6.07236842 C161.15992,6.07236842 161.11837,6.11394737 161.11837,6.17605263 L161.11837,6.67368421 C161.11837,6.77736842 161.15992,6.81894737 161.263532,6.81894737 L161.615655,6.81894737 C161.968041,6.81894737 162.278878,6.94342105 162.38249,7.19210526 C162.486102,7.44105263 162.548427,8.64368421 162.548427,9.14131579 C162.589714,9.805 162.610489,10.4478947 162.610489,11.6297368 L162.610489,12.9984211 L162.527652,12.9984211 C162.278878,12.7289474 160.351798,10.3026316 159.978637,9.86736842 C159.543676,9.34868421 157.160599,6.34210526 157.098536,6.25894737 C157.015436,6.13473684 156.891049,6.09315789 156.600988,6.09315789 C156.352477,6.09315789 155.917253,6.13473684 155.585642,6.13473684 C155.357643,6.13473684 155.026032,6.11394737 154.756746,6.09315789 C154.487459,6.09315789 154.25946,6.07236842 154.21791,6.07236842 C154.135073,6.07236842 154.093786,6.13473684 154.093786,6.19684211 L154.093786,6.69447368 C154.093786,6.77736842 154.135073,6.81894737 154.21791,6.81894737 L154.404359,6.81894737 C154.984745,6.81894737 155.502805,7.17157895 155.502805,7.91789474 L155.502805,10.0952632 C155.502805,12.4386842 155.461255,13.9107895 155.44048,14.1597368 C155.378418,14.6365789 155.046807,14.7818421 154.839583,14.7818421 L154.363072,14.7818421 C154.300747,14.7818421 154.280235,14.8026316 154.280235,14.8439474 L154.280235,15.3831579 C154.280235,15.4868421 154.300747,15.5284211 154.342297,15.5284211 C154.507971,15.5284211 155.44048,15.4660526 155.730804,15.4660526 C156.331702,15.4660526 157.160599,15.5284211 157.305498,15.5284211 C157.40911,15.5284211 157.40911,15.4868421 157.40911,15.4039474 L157.40911,14.9063158 C157.40911,14.8234211 157.40911,14.7818421 157.305498,14.7818421 L156.870537,14.7818421 C156.663313,14.7818421 156.435314,14.5536842 156.372989,14.0768421 C156.331702,13.8902632 156.248602,11.8165789 156.248602,10.5723684 L156.248602,7.73131579 L156.290152,7.73131579 C156.621763,8.10473684 158.300331,10.3442105 158.797617,10.9247368 C159.025616,11.1944737 159.916575,12.2518421 160.869859,13.3923684 C161.71953,14.4086842 162.42404,15.2586842 162.568939,15.4039474 C162.652039,15.4660526 162.859,15.6113158 163.045712,15.6113158 C163.294224,15.6113158 163.356549,15.4039474 163.356549,15.2173684 L163.356549,10.365" id="Fill-30" fill="#FFFFFF"></path>
                        <path d="M172.259036,11.2152632 L175.077337,11.2152632 C174.9945,10.9247368 174.020441,7.81421053 173.978891,7.64842105 C173.937604,7.52394737 173.916829,7.44105263 173.854504,7.44105263 C173.792442,7.44105263 173.751155,7.50315789 173.68883,7.66921053 C173.626768,7.835 172.362648,11.0078947 172.259036,11.2152632 L172.259036,11.2152632 Z M167.958345,10.1576316 L167.958345,11.1944737 C167.958345,11.3186842 167.958345,13.7034211 167.97912,14.0144737 C168.020407,14.4915789 168.269181,14.7818421 168.870079,14.7818421 L169.109386,14.7818421 C169.461509,14.7818421 169.793121,14.5744737 169.958795,14.3463158 C170.103957,14.1805263 171.160853,11.6921053 171.658138,10.6552632 C171.8033,10.365 173.02587,7.54473684 173.149994,7.19210526 C173.191544,7.06789474 173.315932,6.83973684 173.170769,6.77736842 C173.129482,6.73605263 173.067157,6.63236842 173.087932,6.57 C173.067157,6.52868421 173.108707,6.46631579 173.295157,6.425 C173.68883,6.36263158 174.269215,5.98947368 174.455664,5.82368421 C174.496952,5.74052632 174.580052,5.67842105 174.704176,5.67842105 C174.828563,5.67842105 174.870113,5.76131579 174.9114,5.90657895 C175.201461,6.73605263 176.258357,9.70131579 176.527906,10.5307895 C176.838742,11.5676316 177.729701,14.0144737 177.874863,14.2218421 C178.144149,14.5952632 178.496536,14.7818421 178.848659,14.7818421 L179.242332,14.7818421 C179.325432,14.7818421 179.345944,14.8439474 179.345944,14.9063158 L179.345944,15.3418421 C179.345944,15.4039474 179.325432,15.5284211 179.201045,15.5284211 C178.952271,15.5284211 177.854088,15.4660526 177.377578,15.4660526 C176.983642,15.4660526 175.761072,15.5284211 175.491785,15.5284211 C175.346623,15.5284211 175.325848,15.4247368 175.325848,15.3418421 L175.325848,14.9063158 C175.325848,14.8439474 175.346623,14.7818421 175.42946,14.7818421 L175.761072,14.7818421 C176.009846,14.7818421 176.092683,14.5952632 176.092683,14.4292105 C176.009846,14.0144737 175.450235,12.3555263 175.284561,11.8786842 L171.948199,11.8786842 C171.865362,12.1276316 171.20214,13.8486842 171.119303,14.0976316 C170.994916,14.5123684 171.057241,14.7818421 171.492201,14.7818421 L172.010261,14.7818421 C172.134649,14.7818421 172.155424,14.8439474 172.155424,14.9271053 L172.155424,15.3831579 C172.155424,15.4660526 172.134649,15.5284211 172.031036,15.5284211 C171.865362,15.5284211 170.766916,15.4660526 170.435568,15.4660526 L167.005061,15.4660526 C166.300552,15.4660526 165.098757,15.5284211 164.97437,15.5284211 C164.891533,15.5284211 164.849983,15.4660526 164.849983,15.3623684 L164.849983,14.9063158 C164.849983,14.8439474 164.891533,14.7818421 164.97437,14.7818421 L165.430368,14.7818421 C165.948166,14.7818421 166.279777,14.7610526 166.321327,14.3878947 C166.342102,14.2013158 166.362614,11.5676316 166.362614,10.8626316 L166.362614,9.95026316 C166.362614,9.61842105 166.321327,7.54473684 166.321327,7.25447368 C166.321327,7.02631579 166.134615,6.81894737 165.264431,6.81894737 L164.891533,6.81894737 C164.787921,6.81894737 164.767146,6.75684211 164.767146,6.67368421 L164.767146,6.19684211 C164.767146,6.11394737 164.808696,6.07236842 164.891533,6.07236842 C165.015657,6.07236842 166.300552,6.15526316 167.274611,6.13473684 C167.875508,6.13473684 168.932404,6.07236842 169.098078,6.07236842 C169.180915,6.07236842 169.222465,6.11394737 169.222465,6.17605263 L169.222465,6.67368421 C169.222465,6.75684211 169.20169,6.81894737 169.098078,6.81894737 L168.745955,6.81894737 C168.186344,6.81894737 167.999895,6.90184211 167.97912,7.33736842 C167.97912,7.54473684 167.958345,10.0123684 167.958345,10.1576316 L167.958345,10.1576316 Z" id="Fill-31" fill="#FFFFFF"></path>
                    </g>
                    <g id="library_stacked_logo_blue" transform="translate(178.548173, 3.800000)" fill="#FFFFFF">
                        <path d="M11.9953542,13.6 L0.0820926967,13.6 L0.0820926967,13.413 C0.391129503,13.3632364 0.697250867,13.2822545 1.00045679,13.1702091 C1.30366271,13.0580091 1.54165481,12.9022273 1.71504686,12.7030182 C1.77688491,12.6282182 1.82920942,12.5192636 1.87263415,12.3758455 C1.91590544,12.2325818 1.94981663,12.0673727 1.97482805,11.8805273 C1.99937914,11.6935273 2.02116823,11.4974091 2.03973499,11.2917091 C2.05830175,11.0861636 2.06766185,10.8837091 2.06766185,10.6843455 C2.06766185,10.5101727 2.07042385,10.2731 2.07686851,9.97405455 C2.08300628,9.67531818 2.0889906,9.34783636 2.09543526,8.99284545 C2.10157304,8.63785455 2.10479537,8.27343636 2.10479537,7.89959091 L2.10479537,6.81560909 L2.10479537,3.18981818 L2.10479537,2.53562727 C2.10479537,2.31138182 2.09543526,2.1029 2.07686851,1.90956364 C2.05830175,1.71669091 2.03052833,1.54514545 1.99339481,1.39554545 C1.95626129,1.24594545 1.90056101,1.12787273 1.82629398,1.04055455 C1.65290192,0.828827273 1.42089415,0.666709091 1.13042411,0.554509091 C0.839647171,0.442309091 0.533372362,0.367509091 0.211906569,0.330418182 L0.211906569,0.143572727 L6.13132706,0.143572727 L6.13132706,0.330418182 C5.97051744,0.355454545 5.77886552,0.392854545 5.55621785,0.442309091 C5.33341674,0.492381818 5.12304461,0.573363636 4.92525492,0.685563636 C4.72731178,0.797609091 4.55698861,0.956327273 4.4148992,1.16202727 C4.27265634,1.36757273 4.19516697,1.63864545 4.18304487,1.97493636 C4.17061588,2.41137273 4.16125578,2.8101 4.15511801,3.17127273 C4.14882679,3.53275455 4.14268902,3.88774545 4.13655125,4.23655455 C4.13026003,4.58536364 4.12734459,4.94669091 4.12734459,5.32053636 L4.12734459,6.57281818 L4.12734459,7.73144545 L4.12734459,8.72208182 C4.12734459,9.04616364 4.13026003,9.37936364 4.13655125,9.72183636 C4.14268902,10.0647727 4.14591135,10.4477364 4.14591135,10.8713455 C4.15803345,11.2702273 4.17368477,11.6499455 4.19225153,12.0114273 C4.21081829,12.3729091 4.27587867,12.6405818 4.38712578,12.8150636 C4.4363814,12.8775 4.53550641,12.9396273 4.68404049,13.0017545 C4.83242112,13.0645 5.01164405,13.1172 5.22216962,13.1607818 C5.4323883,13.2045182 5.66117375,13.2419182 5.90883283,13.2728273 C6.15603159,13.3040455 6.40338379,13.3196545 6.65104288,13.3196545 C6.749861,13.3196545 6.90775518,13.3167182 7.12426508,13.3102273 C7.34062153,13.3040455 7.57876707,13.2913727 7.83854826,13.2728273 C8.09848289,13.2539727 8.36424841,13.226 8.63661203,13.1887545 C8.90851532,13.1513545 9.14972975,13.1019 9.36025532,13.0391545 C9.85495972,12.9022273 10.2663439,12.7215636 10.5942543,12.4971636 C10.9218579,12.2729182 11.2034282,12.0143636 11.4385048,11.7215 C11.673428,11.4289455 11.8715246,11.1112 12.0324877,10.7685727 C12.1929904,10.4259455 12.3478157,10.0677091 12.4961963,9.69386364 L12.6818639,9.74980909 L11.9953542,13.6" id="Fill-19"></path>
                        <path d="M16.0142136,6.5569 C16.0142136,6.41100909 16.0350821,3.93070909 16.0350821,3.72207273 C16.055797,3.2844 16.241925,3.2011 16.8007691,3.2011 L17.15231,3.2011 C17.2558849,3.2011 17.2765998,3.13850909 17.2765998,3.0549 L17.2765998,2.55479091 C17.2765998,2.49250909 17.2353233,2.45062727 17.15231,2.45062727 C16.986897,2.45062727 15.9315072,2.51321818 15.3313865,2.51321818 C14.3587032,2.53408182 13.075602,2.45062727 12.9514655,2.45062727 C12.8686056,2.45062727 12.8271757,2.49250909 12.8271757,2.57565455 L12.8271757,3.0549 C12.8271757,3.13850909 12.8478907,3.2011 12.9514655,3.2011 L13.3240283,3.2011 C14.1932902,3.2011 14.3794181,3.40942727 14.3794181,3.63892727 C14.3794181,3.93070909 14.4206947,6.01490909 14.4206947,6.34857273 L14.4206947,7.26549091 C14.4206947,7.97423636 14.3999797,10.6212909 14.3794181,10.8090636 C14.3381416,11.1839909 14.006702,11.2048545 13.4895947,11.2048545 L13.0343255,11.2048545 C12.9514655,11.2048545 12.910189,11.2674455 12.910189,11.3298818 L12.910189,11.7884182 C12.910189,11.8927364 12.9514655,11.9554818 13.0343255,11.9554818 C13.1583085,11.9554818 14.3587032,11.8927364 15.0623987,11.8927364 C15.9934987,11.8927364 17.0697569,11.9554818 17.2353233,11.9554818 C17.3388982,11.9554818 17.3594598,11.8927364 17.3594598,11.8095909 L17.3594598,11.3091727 C17.3594598,11.2467364 17.3388982,11.2048545 17.2353233,11.2048545 L16.9249055,11.2048545 C16.3247849,11.2048545 16.0763586,10.9130727 16.0350821,10.4336727 C16.0142136,10.1211818 16.0142136,7.72402727 16.0142136,7.599 L16.0142136,6.5569" id="Fill-20"></path>
                        <path d="M27.4475014,7.14046364 C27.4267864,8.41190909 27.4475014,9.64147273 27.4267864,10.6628636 C27.4267864,11.1212455 27.1783601,11.2048545 26.6818143,11.2048545 L26.433388,11.2048545 C26.3505281,11.2048545 26.3092516,11.2464273 26.3092516,11.3091727 L26.3092516,11.7884182 C26.3092516,11.8927364 26.3505281,11.9551727 26.433388,11.9551727 C26.5782394,11.9551727 27.6336293,11.8927364 28.1510434,11.8927364 C28.834024,11.8927364 29.9517122,11.9551727 30.0965636,11.9551727 C30.2207001,11.9551727 30.2619766,11.9134455 30.2619766,11.8092818 L30.2619766,11.3091727 C30.2619766,11.2464273 30.2207001,11.2048545 30.1378401,11.2048545 L29.599711,11.2048545 C29.1857183,11.2048545 29.0618888,10.9753545 29.0203054,10.6835727 L29.0203054,7.93235455 C29.1651568,7.89078182 29.3515916,7.89078182 29.5584345,7.89078182 C30.427543,7.89078182 30.7379608,8.34916364 31.4830863,9.64147273 C31.6693676,9.95411818 32.5797526,11.6425273 32.9730303,11.9343091 C33.3250315,11.9134455 33.8215773,11.8927364 34.297408,11.8927364 C34.5045578,11.8927364 34.7526773,11.9134455 34.9391121,11.9134455 C35.145955,11.9343091 35.2070258,11.7329364 35.2486092,11.7329364 C35.3311622,11.7329364 35.4772412,11.8927364 35.4772412,11.8092818 L35.4772412,11.3923182 C35.4772412,11.2674455 35.4563728,11.2048545 35.3736663,11.2048545 C35.0011036,11.2048545 34.7319623,11.1839909 34.4422594,10.9753545 C34.0489817,10.6835727 33.573151,10.0584364 33.2834481,9.64147273 C32.4349012,8.43277273 32.0210619,7.78646364 31.5450778,7.68245455 L31.5450778,7.64057273 C33.1798732,7.05700909 33.9871437,6.22308182 33.9871437,4.78488182 C33.9871437,4.30563636 33.7180024,3.70120909 33.2627332,3.26353636 C32.745319,2.80469091 31.814219,2.45062727 30.5723944,2.45062727 C30.3032531,2.45062727 28.5030446,2.51290909 28.2546183,2.51290909 C27.8820556,2.51290909 26.5989544,2.45062727 26.4956864,2.45062727 C26.4128265,2.45062727 26.3713965,2.4922 26.3713965,2.55479091 L26.3713965,3.0549 C26.3713965,3.13850909 26.3921115,3.20079091 26.454103,3.20079091 L26.6612528,3.20079091 C27.2406584,3.20079091 27.4267864,3.43029091 27.4475014,3.8471 L27.4475014,7.14046364 L27.4475014,7.14046364 Z M29.1393781,3.57618182 C29.1393781,3.20079091 29.4497959,3.11764545 29.7600603,3.11764545 C30.5878923,3.11764545 31.1674513,3.30510909 31.726142,3.65932727 C32.0988582,3.90953636 32.4091226,4.47239091 32.4091226,5.09752727 C32.4091226,5.63951818 32.0572748,7.26549091 29.7600603,7.26549091 C29.4910724,7.26549091 29.2842295,7.24447273 29.1393781,7.22360909 L29.1393781,3.57618182 L29.1393781,3.57618182 Z" id="Fill-21"></path>
                        <path d="M46.3131703,7.14061818 C46.2924553,8.41206364 46.3131703,9.64162727 46.2924553,10.6630182 C46.2924553,11.1214 46.044029,11.2050091 45.5476367,11.2050091 L45.2992104,11.2050091 C45.216197,11.2050091 45.1749205,11.2465818 45.1749205,11.3093273 L45.1749205,11.7885727 C45.1749205,11.8928909 45.216197,11.9553273 45.2992104,11.9553273 C45.4440618,11.9553273 46.4992982,11.8928909 47.0168658,11.8928909 C47.6998464,11.8928909 48.8173811,11.9553273 48.9622326,11.9553273 C49.0865224,11.9553273 49.127799,11.9136 49.127799,11.8094364 L49.127799,11.3093273 C49.127799,11.2465818 49.0865224,11.2050091 49.0035091,11.2050091 L48.4653799,11.2050091 C48.0515407,11.2050091 47.9275577,10.9755091 47.8859743,10.6837273 L47.8859743,7.93250909 C48.0308257,7.89093636 48.2172605,7.89093636 48.4241034,7.89093636 C49.2932119,7.89093636 49.6036297,8.34931818 50.3489086,9.64162727 C50.5350366,9.95427273 51.445575,11.6426818 51.8388527,11.9344636 C52.1907005,11.9136 52.6872462,11.8928909 53.1632304,11.8928909 C53.3702268,11.8928909 53.6183462,11.9136 53.8049344,11.9136 C54.0116239,11.9344636 54.1771903,11.9553273 54.2187737,11.9553273 C54.3013267,11.9553273 54.3430636,11.8928909 54.3430636,11.8094364 L54.3430636,11.3924727 C54.3430636,11.2676 54.3220417,11.2050091 54.2394887,11.2050091 C53.8667725,11.2050091 53.5977846,11.1841455 53.3080818,10.9755091 C52.9148041,10.6837273 52.4388199,10.0585909 52.1491171,9.64162727 C51.3007236,8.43292727 50.8867309,7.78661818 50.4109001,7.68260909 L50.4109001,7.64072727 C52.0455422,7.05716364 52.8528126,6.22323636 52.8528126,4.78503636 C52.8528126,4.30579091 52.5836713,3.70136364 52.1285555,3.26369091 C51.6109879,2.80484545 50.679888,2.45078182 49.4380633,2.45078182 C49.1690755,2.45078182 47.3687136,2.51306364 47.1204407,2.51306364 C46.7477245,2.51306364 45.4646233,2.45078182 45.3613553,2.45078182 C45.2784954,2.45078182 45.2372189,2.49235455 45.2372189,2.55494545 L45.2372189,3.05505455 C45.2372189,3.13866364 45.2577804,3.20094545 45.3197719,3.20094545 L45.5269217,3.20094545 C46.1063274,3.20094545 46.2924553,3.43044545 46.3131703,3.84725455 L46.3131703,7.14061818 L46.3131703,7.14061818 Z M48.0050471,3.57633636 C48.0050471,3.20094545 48.3154649,3.1178 48.6258827,3.1178 C49.4537146,3.1178 50.0331203,3.30526364 50.5919644,3.65948182 C50.9645271,3.90969091 51.2749449,4.47254545 51.2749449,5.09768182 C51.2749449,5.63967273 50.9229437,7.26564545 48.6258827,7.26564545 C48.3567414,7.26564545 48.1498985,7.24462727 48.0050471,7.22376364 L48.0050471,3.57633636 L48.0050471,3.57633636 Z" id="Fill-22"></path>
                        <path d="M38.1347429,7.61970909 L40.9492181,7.61970909 C40.8666651,7.32792727 39.8936748,4.20131818 39.8523983,4.03471818 C39.8111218,3.90953636 39.7904068,3.82639091 39.7281085,3.82639091 C39.666117,3.82639091 39.6248404,3.88882727 39.5626955,4.05542727 C39.500704,4.22218182 38.2383178,7.41138182 38.1347429,7.61970909 L38.1347429,7.61970909 Z M34.7502221,11.2048545 L34.9891349,11.2048545 C35.3409827,11.2048545 35.6721155,10.9965273 35.8375284,10.7671818 C35.9823798,10.6004273 37.0380766,8.09895455 37.5346223,7.05700909 C37.6794737,6.76507273 38.9005834,3.9304 39.0245664,3.57618182 C39.0661498,3.451 39.1902862,3.22165455 39.0454348,3.15921818 C39.0038514,3.11764545 38.9418599,3.01332727 38.9625749,2.95089091 C38.9418599,2.90900909 38.9831364,2.84672727 39.1697247,2.80469091 C39.5626955,2.74240909 40.1421012,2.36701818 40.328536,2.20041818 C40.3698125,2.11711818 40.4526724,2.05452727 40.5769623,2.05452727 C40.7007918,2.05452727 40.7425287,2.13798182 40.7838052,2.28387273 C41.073508,3.11764545 42.1287444,6.09805455 42.3978857,6.93182727 C42.7083035,7.97423636 43.5984339,10.4336727 43.7432853,10.642 C44.0119662,11.0173909 44.3639674,11.2048545 44.7156617,11.2048545 L45.1089395,11.2048545 C45.1917994,11.2048545 45.2125144,11.2674455 45.2125144,11.3298818 L45.2125144,11.7675545 C45.2125144,11.8299909 45.1917994,11.9551727 45.067663,11.9551727 C44.8192366,11.9551727 43.7222634,11.8927364 43.2464326,11.8927364 C42.8531549,11.8927364 41.6323521,11.9551727 41.3632108,11.9551727 C41.2183594,11.9551727 41.1976444,11.8508545 41.1976444,11.7675545 L41.1976444,11.3298818 C41.1976444,11.2674455 41.2183594,11.2048545 41.3009125,11.2048545 L41.6323521,11.2048545 C41.8804715,11.2048545 41.9633315,11.0173909 41.9633315,10.8506364 C41.8804715,10.4336727 41.3216274,8.76612727 41.1563679,8.28688182 L37.8243251,8.28688182 C37.7417721,8.53678182 37.0793531,10.2670727 36.9964931,10.5169727 C36.8722033,10.9337818 36.9345017,11.2048545 37.3690559,11.2048545 L37.8863166,11.2048545 C38.010453,11.2048545 38.0314749,11.2674455 38.0314749,11.3507455 L38.0314749,11.8092818 C38.0314749,11.8927364 38.010453,11.9551727 37.9068781,11.9551727 C37.7417721,11.9551727 36.6435713,11.8635273 36.3138195,11.8927364 C35.8545607,11.9333818 33.6213325,11.9306 32.8877153,11.8927364 L34.7502221,11.2048545 Z" id="Fill-23"></path>
                        <path d="M52.6722087,2.50162727 C53.2292115,2.482 53.6455058,2.51337273 54.1423584,2.51337273 C54.5974742,2.51337273 56.0048653,2.45078182 56.1494098,2.45078182 C56.2322697,2.45078182 56.2945681,2.49266364 56.2945681,2.59667273 L56.2945681,3.05505455 C56.2945681,3.13866364 56.2735462,3.20125455 56.1494098,3.20125455 L55.838992,3.20125455 C55.4667361,3.20125455 55.4460212,3.43044545 55.5285742,3.55547273 C55.6528641,3.74293636 57.3705195,6.51532727 57.7014988,7.01543636 C58.0122235,6.49461818 59.7298789,3.97243636 59.812432,3.80568182 C59.9779984,3.47232727 59.9985599,3.20125455 59.5434441,3.20125455 L59.2123113,3.20125455 C59.1088899,3.20125455 59.0674599,3.13866364 59.0674599,3.05505455 L59.0674599,2.59667273 C59.0674599,2.51337273 59.1088899,2.45078182 59.2123113,2.45078182 C59.3366012,2.45078182 60.3712761,2.51337273 60.9922651,2.51337273 C61.3646744,2.51337273 62.0889315,2.45078182 62.2130679,2.45078182 C62.3166428,2.45078182 62.3579193,2.49266364 62.3579193,2.61769091 L62.3579193,3.05505455 C62.3579193,3.15937273 62.3166428,3.20125455 62.2337829,3.20125455 L62.02694,3.20125455 C61.6959607,3.20125455 61.4682493,3.26369091 61.281968,3.36800909 C60.9717036,3.53476364 58.5709142,6.93229091 58.0947765,7.66174545 L58.0947765,9.41259091 C58.1154915,9.93371818 58.0947765,10.4965727 58.1363599,10.7464727 C58.1776365,11.1841455 58.5087692,11.2050091 58.881332,11.2050091 L59.1504733,11.2050091 C59.2537413,11.2050091 59.2953247,11.2468909 59.2953247,11.3093273 L59.2953247,11.8095909 C59.2953247,11.8928909 59.2537413,11.9556364 59.1297583,11.9556364 C59.0056219,11.9556364 57.8463502,11.8928909 57.1636766,11.8928909 C56.7081005,11.8928909 55.5080127,11.9556364 55.3837228,11.9556364 C55.2801479,11.9556364 55.2388714,11.9136 55.2388714,11.7885727 L55.2388714,11.3300364 C55.2388714,11.2676 55.2801479,11.2050091 55.3631612,11.2050091 L55.6734256,11.2050091 C56.3358446,11.2050091 56.459981,11.0801364 56.480696,10.7883545 C56.501411,10.6005818 56.501411,9.85026364 56.501411,8.62039091 L56.501411,7.87007273 C56.3151296,7.49514545 53.7903572,3.76410909 53.4592245,3.45115455 C53.2838376,3.27481818 52.9902987,3.21794545 52.8038639,3.20465455 C52.9267728,3.76951818 52.91373,3.10620909 52.7150196,3.07777273 C52.5229074,3.05010909 52.7411052,2.69310909 52.6582452,2.73468182" id="Fill-24"></path>
                        <path d="M20.8806994,6.647 C21.1582801,6.66430909 21.4214371,6.67280909 21.6700168,6.67280909 C22.5517077,6.67280909 23.1802156,6.55829091 23.5553869,6.32956364 C23.8671857,6.11799091 24.0864576,5.86948182 24.2132025,5.5845 C24.3348839,5.3125 24.3958013,5.02968182 24.3958013,4.73589091 C24.3958013,4.48089091 24.347006,4.22836364 24.2497223,3.97784545 C24.1375545,3.73180909 23.9425268,3.52008182 23.6649461,3.34281818 C23.0949005,3.03202727 22.3862948,3.04825455 22.2161251,3.05088182 C22.0065202,3.05088182 21.0955214,3.11594545 20.9787503,3.12444545 C20.8374281,3.15921818 20.8905198,3.44914545 20.8905198,3.56984545 C20.8711858,3.99762727 20.8806994,4.41211818 20.8806994,5.66872727 L20.8806994,6.647 L20.8806994,6.647 Z M20.8806994,7.92045455 L20.8806994,9.74470909 C20.8704186,10.3573273 20.9822795,10.7991727 21.2161286,11.0708636 C21.4495174,11.3640364 21.9750641,11.3244727 22.5863861,11.3244727 C23.257398,11.3332818 23.7283186,11.3640364 24.2053769,11.0450545 C24.6825886,10.7174182 24.9285598,10.1695545 24.9432905,9.40208182 C24.9086121,8.32381818 24.399177,7.6296 23.4152922,7.31911818 C23.1071761,7.21572727 22.7814138,7.15097273 22.4386193,7.12500909 C22.0807872,7.10800909 21.7231086,7.0992 21.3652765,7.0992 L20.8806994,7.0992 L20.8806994,7.92045455 L20.8806994,7.92045455 Z M19.5437393,6.1285 C19.5337654,5.21745455 19.5162727,4.43560909 19.4917216,3.78358182 C19.4817478,3.41205455 19.2279509,3.35131818 19.0791099,3.26075455 C18.9252053,3.18301818 18.9159987,3.19151818 18.561082,3.17652727 L18.0659173,3.20357273 C17.9816764,3.20357273 17.9057214,3.15643636 17.9057214,3.09585455 L17.9057214,2.55973636 C17.9057214,2.49946364 17.9476117,2.46917273 18.0312389,2.46917273 C18.2819668,2.47798182 18.950984,2.49096364 20.0379833,2.50796364 C20.6528346,2.49946364 21.2920835,2.48648182 21.9561904,2.46917273 C23.1757657,2.46067273 24.068658,2.57920909 24.6342537,2.8254 C25.4650011,3.24421818 25.8674855,3.84648182 25.8418603,4.63219091 C25.8418603,4.94746364 25.8064146,5.21312727 25.7353699,5.42887273 C25.6443775,5.6491 25.5200876,5.83919091 25.3632675,5.99868182 C25.206294,6.15863636 25.0085043,6.29463636 24.7706657,6.40683636 C24.5325201,6.54067273 24.2589289,6.67883636 23.9500456,6.82117273 L23.9959254,6.84713636 C24.7732742,7.05020909 25.3855169,7.36316364 25.8328071,7.78615455 C26.2799437,8.20960909 26.5111843,8.77060909 26.5265287,9.47008182 C26.5265287,9.81564545 26.4247951,10.1783636 26.2211746,10.5580818 C25.9977597,10.9466091 25.7074431,11.2468909 25.3502248,11.4583091 C24.7596177,11.7780636 23.7893894,11.9375545 22.43954,11.9375545 C21.4716134,11.9202455 20.7097624,11.9069545 20.1539872,11.8981455 C19.2656982,11.9069545 18.6129462,11.9202455 18.1961915,11.9375545 C18.0468902,11.9375545 17.9773799,11.9114364 17.9878141,11.8587364 L17.9773799,11.4504273 C17.9670992,11.39 18.0120583,11.2275727 18.1116437,11.2275727 L18.7260346,11.2733182 C18.9643336,11.2733182 19.2851856,11.2280364 19.3646698,11.1414909 C19.4143857,11.0897182 19.4436936,10.9942091 19.4536675,10.9124545 C19.4734618,10.8517182 19.4519796,10.9449091 19.4619535,10.8368818 C19.4966319,10.6341182 19.5188813,10.2066455 19.5288552,9.55430909 C19.5386756,8.8978 19.5437393,8.27807273 19.5437393,7.69528182 L19.5437393,6.1285 L19.5437393,6.1285 Z" id="Fill-25"></path>
                    </g>
                </g>
            </g>
        </g>
    </g>
</svg>