<?xml version="1.0" encoding="UTF-8" standalone="no"?>
<svg width="117px" height="86px" viewBox="0 0 117 86" version="1.1" xmlns="http://www.w3.org/2000/svg" xmlns:xlink="http://www.w3.org/1999/xlink">
    <!-- Generator: Sketch 3.8.2 (29753) - http://www.bohemiancoding.com/sketch -->
    <title>Logo Stacked</title>
    <desc>Created with Sketch.</desc>
    <defs></defs>
    <g id="Symbols" stroke="none" stroke-width="1" fill="none" fill-rule="evenodd">
        <g id="footer" transform="translate(-188.000000, -53.000000)" fill="#FFFFFF">
            <g id="footer-primary">
                <g>
                    <g id="footer-brand" transform="translate(126.000000, 53.000000)">
                        <g id="Logo-Stacked" transform="translate(62.000000, 0.000000)">
                            <g id="Rotunda" transform="translate(43.174911, 0.000000)">
                                <polygon id="Fill-1" points="22.6427067 28.679324 25.4671315 28.679324 25.4671315 15.3748063 22.6427067 15.3748063"></polygon>
                                <polygon id="Fill-2" points="7.39473861 28.679324 10.1290757 28.679324 10.1290757 15.3748063 7.39473861 15.3748063"></polygon>
                                <polygon id="Fill-3" points="11.0702151 28.679324 13.9857341 28.679324 13.9857341 15.3748063 11.0702151 15.3748063"></polygon>
                                <polygon id="Fill-4" points="14.9283834 28.679324 17.8439024 28.679324 17.8439024 15.3748063 14.9283834 15.3748063"></polygon>
                                <polygon id="Fill-5" points="18.7845385 28.679324 21.7000575 28.679324 21.7000575 15.3748063 18.7845385 15.3748063"></polygon>
                                <polyline id="Fill-6" points="24.2532127 14.4347618 8.54675363 14.4347618 16.6083424 9.52741084 24.2532127 14.4347618"></polyline>
                                <polyline id="Fill-7" points="6.73745088 14.4347618 0.00905909583 14.4347618 0.00905909583 9.47712244 14.8830879 9.47712244 6.73745088 14.4347618"></polyline>
                                <polyline id="Fill-8" points="18.271693 9.47712244 32.7632266 9.47712244 32.7632266 14.4347618 25.9940689 14.4347618 18.271693 9.47712244"></polyline>
                                <path d="M30.689197,8.53707793 L2.08258547,8.53707793 C4.88385922,3.53761453 10.2392947,0.159329578 16.3853879,0.159329578 C22.5309779,0.159329578 27.8869167,3.53761453 30.689197,8.53707793" id="Fill-9"></path>
                                <path d="M2.21243252,24.8867821 L1.96632708,25.6321458 L2.60700647,25.1715837 L3.24768586,25.6321458 L3.00309027,24.8867821 L3.64376966,24.4262201 L2.85160205,24.4262201 L2.60700647,23.6813543 L2.36241088,24.4262201 L1.57024328,24.4262201 L2.21243252,24.8867821 L2.21243252,24.8867821 Z M0.00553611412,20.6565818 L0.647222069,21.1171439 L0.401116632,21.8625076 L1.04179602,21.4019455 L1.68247541,21.8625076 L1.43787982,21.1171439 L2.07855921,20.6565818 L1.28689489,20.6565818 L1.04179602,19.9117161 L0.797200433,20.6565818 L0.00553611412,20.6565818 L0.00553611412,20.6565818 Z M6.4541025,28.6788261 L5.58795228,28.6788261 L5.34486654,27.9389393 L5.98554593,27.4783773 L5.19337833,27.4783773 L4.94878274,26.7335115 L4.70418715,27.4783773 L3.91201955,27.4783773 L4.55420879,27.9389393 L4.3096132,28.6788261 L0.00905909583,28.6788261 L0.00553611412,20.6565818 L0.00905909583,17.7642521 L0.609979119,17.3320706 L1.25065851,17.7926327 L1.00606292,17.0477669 L1.64623903,16.5872048 L0.854574707,16.5872048 L0.609979119,15.8418412 L0.498250271,16.1819102 L0.343742358,16.5872048 L0.00905909583,16.5872048 L0.00905909583,15.3748063 L6.4541025,15.3748063 L6.4541025,28.6788261 L6.4541025,28.6788261 Z M5.58241616,28.6788261 L4.31514931,28.6788261 L4.94878274,28.223741 L5.58241616,28.6788261 L5.58241616,28.6788261 Z M0.00905909583,17.6726376 L0.00905909583,16.8998891 L0.197790259,17.0353193 L0.0603939722,17.4500741 L0.00905909583,17.6726376 L0.00905909583,17.6726376 Z" id="Fill-10"></path>
                                <polygon id="Fill-11" points="0.0301969861 33.1505102 6.4541025 33.1505102 6.4541025 29.6188706 0.0301969861 29.6188706"></polygon>
                                <polygon id="Fill-12" points="26.4077676 33.1505102 32.7632266 33.1505102 32.7632266 29.6188706 26.4077676 29.6188706"></polygon>
                                <path d="M20.8037103,32.1128764 L21.4453962,31.6523143 L20.6532286,31.6523143 L20.4086331,30.9069506 L20.1640375,31.6523143 L19.3723732,31.6523143 L20.0130525,32.1128764 L19.7679537,32.8577421 L20.4086331,32.3971801 L21.0493124,32.8577421 L20.8037103,32.1128764 L20.8037103,32.1128764 Z M16.017488,32.607296 L15.8378159,33.1510081 L7.39473861,33.1510081 L7.39473861,29.6188706 L8.43653463,29.6188706 L8.25484943,30.1720429 L7.46268183,30.1720429 L8.10487107,30.632605 L7.85876563,31.3774708 L8.49944502,30.9169087 L9.14012441,31.3774708 L8.89552882,30.6321071 L9.53620821,30.1720429 L8.74404061,30.1720429 L8.56285869,29.6188706 L24.2527094,29.6188706 L24.0710242,30.1720429 L23.2793599,30.1720429 L23.9200393,30.6321071 L23.6754437,31.3774708 L24.3161231,30.9169087 L24.9568024,31.3774708 L24.710697,30.632605 L25.352383,30.1720429 L24.5607186,30.1720429 L24.3790334,29.6188706 L25.4671315,29.6188706 L25.4671315,33.1510081 L16.9868112,33.1510081 L16.8081457,32.607296 L17.4488251,32.1467339 L16.6571608,32.1467339 L16.4120619,31.4018681 L16.1674664,32.1467339 L15.375802,32.1467339 L16.017488,32.607296 L16.017488,32.607296 Z M11.8971092,32.1128764 L11.6510038,32.8577421 L12.2916832,32.3971801 L12.9323626,32.8577421 L12.687767,32.1128764 L13.3284464,31.6523143 L12.5362788,31.6523143 L12.2916832,30.9069506 L12.0470876,31.6523143 L11.2554233,31.6523143 L11.8971092,32.1128764 L11.8971092,32.1128764 Z M16.7764389,33.1510081 L16.0517112,33.1510081 L16.4120619,32.8920976 L16.7764389,33.1510081 L16.7764389,33.1510081 Z" id="Fill-13"></path>
                                <path d="M30.6031356,24.8867821 L31.2453248,24.4262201 L30.4531572,24.4262201 L30.2085616,23.6813543 L29.963966,24.4262201 L29.1717984,24.4262201 L29.8124778,24.8867821 L29.5678822,25.6321458 L30.2085616,25.1715837 L30.849241,25.6321458 L30.6031356,24.8867821 L30.6031356,24.8867821 Z M28.5054516,28.6788261 L28.2613593,27.9389393 L28.9030452,27.4783773 L28.1113809,27.4783773 L27.8667853,26.7335115 L27.6216865,27.4783773 L26.8300222,27.4783773 L27.4707015,27.9389393 L27.2276158,28.6788261 L27.8667853,28.223741 L28.5004188,28.6788261 L28.5054516,28.6788261 L28.5054516,28.6788261 Z M32.7632266,28.6788261 L26.4077676,28.6788261 L26.4077676,15.3748063 L32.7632266,15.3748063 L32.7632266,16.5872048 L32.4501845,16.5872048 L32.205589,15.8418412 L31.9609934,16.5872048 L31.1688258,16.5872048 L31.8095052,17.0477669 L31.5649096,17.7926327 L32.205589,17.3320706 L32.7632266,17.7328841 L32.7632266,20.6570797 L32.0183676,20.6565818 L31.7732688,19.9117161 L31.5286732,20.6565818 L30.7370089,20.6565818 L31.3776883,21.1171439 L31.1325894,21.8625076 L31.7732688,21.4019455 L32.4139482,21.8625076 L32.168346,21.1171439 L32.7632266,20.6904394 L32.7632266,28.6788261 L32.7632266,28.6788261 Z M32.7632266,16.9307592 L32.7632266,17.5406928 L32.6001629,17.0477669 L32.7632266,16.9307592 L32.7632266,16.9307592 Z" id="Fill-14"></path>
                            </g>
                            <g id="library_stacked_logo_blue" transform="translate(0.000000, 33.227273)">
                                <path d="M9.43389448,18.9495117 C11.7012538,18.9495117 13.2909247,18.351516 14.3334901,17.3898234 C15.7929977,16.1421146 16.3663457,14.5049549 16.5227515,12.3734436 C16.6008495,11.3596148 16.6529148,6.81141374 16.6529148,6.4475074 C16.6529148,6.08360106 16.6529148,2.39282027 16.7049801,2.13255814 C16.783078,1.82099737 16.8613859,1.09318469 17.8256434,1.09318469 L18.8940315,1.09318469 C19.0241948,1.09318469 19.0504374,0.989121715 19.0504374,0.833131944 L19.0504374,0.261309039 C19.0504374,0.183209462 19.0241948,0.0795652522 18.789691,0.0795652522 C18.5553972,0.0795652522 17.7213029,0.157664829 15.923161,0.157664829 C14.1770843,0.157664829 12.9781131,0.0795652522 12.7175767,0.0795652522 C12.5611709,0.0795652522 12.5353482,0.131492048 12.5353482,0.261309039 L12.5353482,0.885268122 C12.5353482,1.0152945 12.5611709,1.09318469 12.7175767,1.09318469 L13.8642727,1.09318469 C14.5419612,1.09318469 14.9589034,1.56094462 15.0370013,2.2368305 C15.1153092,2.8865436 15.1671646,4.39388636 15.1671646,6.36940782 L15.1671646,11.9314377 C15.1671646,13.8550324 14.8285302,15.4143019 13.8122074,16.506021 C12.9002251,17.4417502 11.3884422,17.9354735 9.9031119,17.9354735 C8.39132905,17.9354735 6.72356028,17.467923 5.75951267,16.0642244 C5.16013202,15.180422 4.95166092,13.958886 4.92541834,12.7633134 C4.89959563,11.9314377 4.79525511,8.63073605 4.79525511,7.25321027 L4.79525511,5.53753217 C4.79525511,4.21214258 4.82128776,2.39282027 4.84711046,2.15873092 C4.89959563,1.58690802 5.34215059,1.09318469 6.09814699,1.09318469 L7.4012488,1.09318469 C7.58389719,1.09318469 7.60971989,1.04104851 7.60971989,0.911022138 L7.60971989,0.235555023 C7.60971989,0.131492048 7.58389719,0.0795652522 7.37500621,0.0795652522 C7.08843718,0.0795652522 5.83782054,0.157664829 3.80496492,0.157664829 C1.77231924,0.157664829 0.495040128,0.0795652522 0.234713682,0.0795652522 C0.0258227039,0.0795652522 0,0.131492048 0,0.287481819 L0,0.859304724 C0,1.04104851 0.0258227039,1.09318469 0.182648393,1.09318469 L1.40744233,1.09318469 C2.21487419,1.09318469 2.39752259,1.50901782 2.39752259,2.41857429 L2.39752259,8.60456327 C2.39752259,12.0095373 2.50207305,13.7509694 2.81446478,14.9205786 C3.23140697,16.5579478 4.14359924,17.7018029 5.91591847,18.4034428 C6.77583551,18.7673492 8.07893732,18.9495117 9.43389448,18.9495117" id="Fill-1"></path>
                                <path d="M30.2751258,9.98795174 C30.2751258,8.82964918 30.2182319,7.05052826 30.3599419,5.75193959 C30.4164159,5.35662592 30.5581259,5.15896908 31.2660459,5.15896908 L31.5490459,5.15896908 C31.6626238,5.15896908 31.7190979,5.07395989 31.7190979,4.96089348 L31.7190979,4.36834173 C31.7190979,4.19874211 31.6626238,4.14199953 31.5209139,4.14199953 C31.3227298,4.14199953 30.3315999,4.22700872 29.7370479,4.22700872 C28.8309439,4.22700872 27.6134979,4.14199953 27.4153139,4.14199953 C27.2736039,4.14199953 27.2171299,4.19874211 27.2171299,4.28333254 L27.2171299,4.96089348 C27.2171299,5.10201711 27.2736039,5.15896908 27.4153139,5.15896908 L27.8964979,5.15896908 C28.3778919,5.15896908 28.8026019,5.32835931 28.9443119,5.6669304 C29.0860218,6.00592025 29.1708379,7.64370815 29.1708379,8.32147847 C29.2273119,9.22538162 29.2558638,10.1005994 29.2558638,11.7101207 L29.2558638,13.5740414 L29.1424959,13.5740414 C28.8026019,13.2069943 26.1695259,9.90294255 25.6597899,9.30997204 C25.0652379,8.60372574 21.808848,4.5090466 21.7240319,4.39639895 C21.610664,4.22700872 21.440822,4.17047551 21.044244,4.17047551 C20.7047699,4.17047551 20.109798,4.22700872 19.656956,4.22700872 C19.3458239,4.22700872 18.892352,4.19874211 18.5247459,4.17047551 C18.1565099,4.17047551 17.844958,4.14199953 17.7884839,4.14199953 C17.674906,4.14199953 17.618432,4.22700872 17.618432,4.31138976 L17.618432,4.98936946 C17.618432,5.10201711 17.674906,5.15896908 17.7884839,5.15896908 L18.043142,5.15896908 C18.835878,5.15896908 19.5440079,5.6386638 19.5440079,6.65521459 L19.5440079,9.62069529 C19.5440079,12.8116807 19.487114,14.8165156 19.458772,15.1555055 C19.3739559,15.8047998 18.920694,16.0024567 18.637694,16.0024567 L17.9866679,16.0024567 C17.901432,16.0024567 17.8732999,16.031142 17.8732999,16.0874659 L17.8732999,16.8217694 C17.8732999,16.9626836 17.901432,17.0194262 17.9583259,17.0194262 C18.1848519,17.0194262 19.458772,16.934417 19.85514,16.934417 C20.676218,16.934417 21.808848,17.0194262 22.007032,17.0194262 C22.1487419,17.0194262 22.1487419,16.9626836 22.1487419,16.8498266 L22.1487419,16.1720563 C22.1487419,16.0591993 22.1487419,16.0024567 22.007032,16.0024567 L21.41248,16.0024567 C21.1294799,16.0024567 20.817928,15.6921522 20.7331119,15.0426485 C20.676218,14.788249 20.56306,11.9645201 20.56306,10.2699896 L20.56306,6.40123393 L20.6197439,6.40123393 C21.0730059,6.90982339 23.3661879,9.95926638 24.0459759,10.7498937 C24.357108,11.1171502 25.5749739,12.5574906 26.8772359,14.1106881 C28.0379979,15.4944953 29.0007859,16.6521698 29.1989699,16.8498266 C29.3123379,16.934417 29.5953379,17.1320739 29.8504158,17.1320739 C30.1898899,17.1320739 30.2751258,16.8498266 30.2751258,16.5954272 L30.2751258,9.98795174" id="Fill-4"></path>
                                <path d="M36.4421334,9.70528572 C36.4421334,9.50762888 36.4708952,6.14725327 36.4708952,5.86458724 C36.4990273,5.27161673 36.7536853,5.15896908 37.5182893,5.15896908 L37.9994734,5.15896908 C38.1411833,5.15896908 38.1693154,5.07395989 38.1693154,4.96089348 L38.1693154,4.28333254 C38.1693154,4.19874211 38.1128413,4.14199953 37.9994734,4.14199953 C37.7729474,4.14199953 36.3291853,4.22700872 35.5081073,4.22700872 C34.1772933,4.25506594 32.4217693,4.14199953 32.2517174,4.14199953 C32.1383494,4.14199953 32.0818754,4.19874211 32.0818754,4.31138976 L32.0818754,4.96089348 C32.0818754,5.07395989 32.1100074,5.15896908 32.2517174,5.15896908 L32.7616633,5.15896908 C33.9507673,5.15896908 34.2054253,5.44121634 34.2054253,5.75193959 C34.2054253,6.14725327 34.2618994,8.97098219 34.2618994,9.42303845 L34.2618994,10.6655127 C34.2618994,11.6255303 34.2337673,15.2118293 34.2054253,15.4662287 C34.1489513,15.9741901 33.6956894,16.0024567 32.9879793,16.0024567 L32.3648754,16.0024567 C32.2517174,16.0024567 32.1952433,16.0874659 32.1952433,16.1720563 L32.1952433,16.793084 C32.1952433,16.934417 32.2517174,17.0194262 32.3648754,17.0194262 C32.5347174,17.0194262 34.1772933,16.934417 35.1398713,16.934417 C36.4137914,16.934417 37.8865253,17.0194262 38.1128413,17.0194262 C38.2545513,17.0194262 38.2828933,16.934417 38.2828933,16.8217694 L38.2828933,16.1437897 C38.2828933,16.0591993 38.2545513,16.0024567 38.1128413,16.0024567 L37.6883413,16.0024567 C36.8672633,16.0024567 36.5273693,15.607143 36.4708952,14.9578487 C36.4421334,14.5342684 36.4421334,11.2865404 36.4421334,11.1171502 L36.4421334,9.70528572" id="Fill-5"></path>
                                <path d="M64.73248,10.4959131 C64.704138,12.2185008 64.73248,13.884974 64.704138,15.2685719 C64.704138,15.889809 64.3642441,16.0024567 63.685086,16.0024567 L63.345192,16.0024567 C63.2316141,16.0024567 63.17514,16.0591993 63.17514,16.1437897 L63.17514,16.793084 C63.17514,16.934417 63.2316141,17.0194262 63.345192,17.0194262 C63.543376,17.0194262 64.9871381,16.934417 65.695268,16.934417 C66.629714,16.934417 68.1587119,17.0194262 68.3568959,17.0194262 C68.526528,17.0194262 68.5834219,16.9626836 68.5834219,16.8217694 L68.5834219,16.1437897 C68.5834219,16.0591993 68.526528,16.0024567 68.41337,16.0024567 L67.677108,16.0024567 C67.110898,16.0024567 66.940846,15.6921522 66.884372,15.2968385 L66.884372,11.5692064 C67.082556,11.5124639 67.3372141,11.5124639 67.620634,11.5124639 C68.809738,11.5124639 69.234448,12.1341197 70.25371,13.884974 C70.5087879,14.3083449 71.7545759,16.5954272 72.2926539,16.9907409 C72.773628,16.9626836 73.4534159,16.934417 74.1046519,16.934417 C74.3878619,16.934417 74.727336,16.9626836 74.9826239,16.9626836 C75.265414,16.9907409 75.49194,17.0194262 75.548414,17.0194262 C75.6619919,17.0194262 75.718466,16.934417 75.718466,16.8217694 L75.718466,16.2568561 C75.718466,16.0874659 75.690124,16.0024567 75.5771759,16.0024567 C75.06723,16.0024567 74.6992039,15.9741901 74.3028359,15.6921522 C73.764758,15.2968385 73.113522,14.4492592 72.717154,13.884974 C71.5563919,12.2467674 70.989972,11.3715496 70.3389459,11.2302166 L70.3389459,11.1738928 C72.575444,10.3828467 73.6799419,9.25364822 73.6799419,7.30513707 C73.6799419,6.65521459 73.311706,5.83653002 72.6890219,5.24335012 C71.980892,4.62232239 70.7069719,4.14199953 69.007922,4.14199953 C68.639896,4.14199953 66.1768719,4.22700872 65.8369779,4.22700872 C65.327032,4.22700872 63.571508,4.14199953 63.4297981,4.14199953 C63.31685,4.14199953 63.2599561,4.19874211 63.2599561,4.28333254 L63.2599561,4.96089348 C63.2599561,5.07395989 63.288508,5.15896908 63.373324,5.15896908 L63.656744,5.15896908 C64.44948,5.15896908 64.704138,5.46927356 64.73248,6.03418685 L64.73248,10.4959131 L64.73248,10.4959131 Z M66.884372,5.6669304 C66.884372,5.15896908 67.309082,5.04569329 67.7335821,5.04569329 C68.866422,5.04569329 69.659158,5.29988333 70.423552,5.77999681 C70.9334979,6.11898666 71.3582079,6.88113803 71.3582079,7.72850796 C71.3582079,8.46281149 70.8770239,10.6655127 67.7335821,10.6655127 C67.3659759,10.6655127 67.082556,10.6372461 66.884372,10.6089795 L66.884372,5.6669304 L66.884372,5.6669304 Z" id="Fill-6"></path>
                                <path d="M80.1799154,17.2734069 C82.7567273,17.2734069 84.1154634,15.4662287 84.1154634,13.3483274 C84.1154634,11.9364629 83.7759893,11.2302166 83.2097793,10.6372461 C82.5016494,9.90294255 81.4542553,9.59263807 80.1515734,9.1123152 C79.6134954,8.91465837 78.5942334,8.49107809 78.1697334,7.9544314 C77.8579714,7.58717495 77.7166814,6.99420444 77.7166814,6.57083354 C77.7166814,6.06224407 78.1697334,4.84803645 79.7268634,4.84803645 C80.5479414,4.84803645 81.1708354,5.13070248 81.5959653,5.61060658 C82.1905173,6.28816751 82.4168333,7.2764517 82.5868853,7.61544155 C82.6150174,7.70045074 82.6717013,7.75677457 82.7567273,7.72850796 L83.2662533,7.61544155 C83.3510694,7.58717495 83.3796213,7.53085113 83.3796213,7.44605132 C83.3510694,7.05052826 83.0962014,5.2152929 83.0962014,4.28333254 C83.0962014,4.14199953 83.0680693,4.0291425 82.8415433,4.0291425 C82.6150174,4.0291425 82.5299914,4.0291425 82.4735173,4.11373292 L82.3599394,4.31138976 C82.3034654,4.45272277 82.1621753,4.42466555 81.8787554,4.25506594 C81.5388614,4.0856757 80.9443094,3.88801887 79.8685734,3.88801887 C78.8493113,3.88801887 77.9432074,4.14199953 77.2069454,4.7353888 C76.5840514,5.27161673 75.9894994,6.14725327 75.9894994,7.10748023 C75.9894994,8.49107809 76.3289735,9.39456247 76.9804194,10.016009 C77.8298394,10.7785791 79.1887854,11.2865404 79.7552054,11.4841973 C81.2560713,12.0491105 82.3599394,12.7551475 82.3599394,14.3646688 C82.3599394,15.5788764 81.0012033,16.2851227 80.0950993,16.2851227 C79.0474953,16.2851227 78.1130494,15.7202094 77.6881294,14.8732582 C77.1786034,13.9412979 77.1786034,13.3483274 77.1786034,12.9528043 C77.1786034,12.8397379 77.0652354,12.7834141 76.9522873,12.7551475 L76.4423414,12.6984049 C76.3289735,12.6984049 76.2724994,12.7834141 76.2441574,12.8960617 C76.2160254,13.3483274 76.0178414,15.607143 75.9326054,16.3981891 C75.9042635,16.5391034 75.9894994,16.6521698 76.1593414,16.7084936 C76.3858674,16.7650268 76.5275773,16.7084936 76.5840514,16.56737 L76.6688674,16.3414465 C76.7257613,16.1155231 76.8953934,16.1437897 77.0935774,16.2851227 C77.7450234,16.793084 78.7359434,17.2734069 80.1799154,17.2734069" id="Fill-7"></path>
                                <path d="M88.9119782,9.70528572 C88.9119782,9.50762888 88.9405301,6.14725327 88.9405301,5.86458724 C88.9688721,5.27161673 89.2235301,5.15896908 89.9881341,5.15896908 L90.4691082,5.15896908 C90.6108182,5.15896908 90.6391602,5.07395989 90.6391602,4.96089348 L90.6391602,4.28333254 C90.6391602,4.19874211 90.5826861,4.14199953 90.4691082,4.14199953 C90.2427921,4.14199953 88.7988201,4.22700872 87.9777421,4.22700872 C86.6469281,4.25506594 84.8914042,4.14199953 84.7215622,4.14199953 C84.6081942,4.14199953 84.5515102,4.19874211 84.5515102,4.31138976 L84.5515102,4.96089348 C84.5515102,5.07395989 84.5798522,5.15896908 84.7215622,5.15896908 L85.2312981,5.15896908 C86.4206121,5.15896908 86.6752701,5.44121634 86.6752701,5.75193959 C86.6752701,6.14725327 86.7317442,8.97098219 86.7317442,9.42303845 L86.7317442,10.6655127 C86.7317442,11.6255303 86.7034022,15.2118293 86.6752701,15.4662287 C86.6187961,15.9741901 86.1653242,16.0024567 85.4578241,16.0024567 L84.8349301,16.0024567 C84.7215622,16.0024567 84.6650881,16.0874659 84.6650881,16.1720563 L84.6650881,16.793084 C84.6650881,16.934417 84.7215622,17.0194262 84.8349301,17.0194262 C85.0045622,17.0194262 86.6469281,16.934417 87.6097161,16.934417 C88.8836362,16.934417 90.3561601,17.0194262 90.5826861,17.0194262 C90.7243961,17.0194262 90.7525281,16.934417 90.7525281,16.8217694 L90.7525281,16.1437897 C90.7525281,16.0591993 90.7243961,16.0024567 90.5826861,16.0024567 L90.1579761,16.0024567 C89.3368981,16.0024567 88.9970041,15.607143 88.9405301,14.9578487 C88.9119782,14.5342684 88.9119782,11.2865404 88.9119782,11.1171502 L88.9119782,9.70528572" id="Fill-8"></path>
                                <path d="M14.3003195,25.9855926 C16.8989652,25.9855926 18.4575649,22.4292352 18.4575649,20.4635547 C18.4575649,19.2480908 17.7408274,18.3724543 16.5403866,18.3724543 C14.15693,18.3724543 12.4547309,21.4285975 12.4547309,23.6805035 C12.4547309,25.0383474 13.3150679,25.9855926 14.3003195,25.9855926 L14.3003195,25.9855926 Z M14.0318054,25.127963 C13.6018468,25.127963 13.2073683,24.7885543 13.2073683,24.2163127 C13.2073683,23.3766899 13.6373268,22.2862272 14.2467846,21.3211844 C15.1426015,19.873725 16.0923731,19.194489 16.8450105,19.194489 C17.4362034,19.194489 17.7588823,19.6413107 17.7408274,20.1955455 C17.7408274,21.3749956 15.8952388,25.127963 14.0318054,25.127963 L14.0318054,25.127963 Z" id="Fill-9"></path>
                                <path d="M43.2618465,26.4393239 C43.2618465,26.2416671 43.2901885,22.8808727 43.2901885,22.5986255 C43.3183205,22.0056549 43.5733985,21.8925885 44.3380024,21.8925885 L44.8191865,21.8925885 C44.9608964,21.8925885 44.9890285,21.8079981 44.9890285,21.6947223 L44.9890285,21.0173708 C44.9890285,20.9323616 44.9325544,20.8760377 44.8191865,20.8760377 C44.5926605,20.8760377 43.1488984,20.9604188 42.3274005,20.9604188 C40.9965865,20.9891042 39.2414824,20.8760377 39.0714305,20.8760377 C38.9580625,20.8760377 38.9015885,20.9323616 38.9015885,21.045428 L38.9015885,21.6947223 C38.9015885,21.8079981 38.9297205,21.8925885 39.0714305,21.8925885 L39.5809565,21.8925885 C40.7700605,21.8925885 41.0251385,22.1750452 41.0251385,22.485559 C41.0251385,22.8808727 41.0816125,25.7050204 41.0816125,26.1566579 L41.0816125,27.3993415 C41.0816125,28.3595685 41.0534805,31.9458675 41.0251385,32.1998482 C40.9682445,32.7082283 40.5154025,32.7364949 39.8072726,32.7364949 L39.1845885,32.7364949 C39.0714305,32.7364949 39.0145365,32.8215041 39.0145365,32.9058851 L39.0145365,33.5271222 C39.0145365,33.6684553 39.0714305,33.7530457 39.1845885,33.7530457 C39.3544305,33.7530457 40.9965865,33.6684553 41.9591646,33.6684553 C43.2337144,33.6684553 44.7058185,33.7530457 44.9325544,33.7530457 C45.0738445,33.7530457 45.1026064,33.6684553 45.1026064,33.5553888 L45.1026064,32.8778279 C45.1026064,32.7928187 45.0738445,32.7364949 44.9325544,32.7364949 L44.5076345,32.7364949 C43.6865565,32.7364949 43.3470824,32.3411812 43.2901885,31.6916775 C43.2618465,31.2683066 43.2618465,28.0205786 43.2618465,27.8511884 L43.2618465,26.4393239" id="Fill-10"></path>
                                <path d="M47.5595422,27.2299513 C47.5312002,28.952539 47.5595422,30.6183841 47.5312002,32.0021914 C47.5312002,32.6234285 47.1913062,32.7364949 46.5119382,32.7364949 L46.1720442,32.7364949 C46.0586762,32.7364949 46.0022022,32.7928187 46.0022022,32.8778279 L46.0022022,33.5271222 C46.0022022,33.6684553 46.0586762,33.7530457 46.1720442,33.7530457 C46.3704382,33.7530457 47.8142002,33.6684553 48.5223301,33.6684553 C49.4567761,33.6684553 50.9857741,33.7530457 51.1839581,33.7530457 C51.3538001,33.7530457 51.4104841,33.6967219 51.4104841,33.5553888 L51.4104841,32.8778279 C51.4104841,32.7928187 51.3538001,32.7364949 51.2404322,32.7364949 L50.5041702,32.7364949 C49.9377502,32.7364949 49.7683281,32.4257716 49.7114342,32.0302486 L49.7114342,28.3028259 C49.9096182,28.2465021 50.1646961,28.2465021 50.4476961,28.2465021 C51.6368002,28.2465021 52.0615102,28.8677392 53.0811921,30.6183841 C53.3358501,31.0419644 54.5814282,33.3294654 55.1195061,33.7247791 C55.6011101,33.6967219 56.2804781,33.6684553 56.9317141,33.6684553 C57.2149241,33.6684553 57.5543982,33.6967219 57.8094761,33.6967219 C58.0924761,33.7247791 58.3190021,33.7530457 58.375896,33.7530457 C58.4888441,33.7530457 58.5457381,33.6684553 58.5457381,33.5553888 L58.5457381,32.9904756 C58.5457381,32.8215041 58.5171861,32.7364949 58.404238,32.7364949 C57.8942921,32.7364949 57.5262661,32.7082283 57.1298981,32.4257716 C56.5918201,32.0302486 55.9405841,31.1832974 55.5442161,30.6183841 C54.3832442,28.9808056 53.8170341,28.1051691 53.1657981,27.9642548 L53.1657981,27.9075122 C55.4025062,27.1168849 56.5070041,25.9872677 56.5070041,24.0387565 C56.5070041,23.3892528 56.1387681,22.5703589 55.5160841,21.9773883 C54.8079542,21.3559418 53.5340341,20.8760377 51.8349842,20.8760377 C51.4669582,20.8760377 49.0037241,20.9604188 48.6638302,20.9604188 C48.1540942,20.9604188 46.3985702,20.8760377 46.2572801,20.8760377 C46.1439122,20.8760377 46.0874381,20.9323616 46.0874381,21.0173708 L46.0874381,21.6947223 C46.0874381,21.8079981 46.1155702,21.8925885 46.2003862,21.8925885 L46.4838061,21.8925885 C47.2765421,21.8925885 47.5312002,22.2033118 47.5595422,22.7680157 L47.5595422,27.2299513 L47.5595422,27.2299513 Z M49.8743481,22.4009686 C49.8743481,21.8925885 50.2990581,21.7797315 50.7237681,21.7797315 C51.8563981,21.7797315 52.6491341,22.0337122 53.4137381,22.5136163 C53.9234741,22.8526061 54.3481841,23.6151762 54.3481841,24.4621274 C54.3481841,25.1964309 53.8665801,27.3993415 50.7237681,27.3993415 C50.3555322,27.3993415 50.0725321,27.3708655 49.8743481,27.3425989 L49.8743481,22.4009686 L49.8743481,22.4009686 Z" id="Fill-11"></path>
                                <path d="M68.8151965,29.8277568 C68.8151965,29.3478527 69.3528545,29.2347863 69.6362745,29.2347863 L70.1172486,29.2347863 C70.2024845,29.2347863 70.2589585,29.1501958 70.2589585,29.065396 L70.2589585,28.3878351 C70.2589585,28.3028259 70.2024845,28.2465021 70.0891165,28.2465021 C69.9757485,28.2465021 68.7016185,28.3028259 67.6542245,28.3028259 C66.1252265,28.3028259 64.7377285,28.2465021 64.5678865,28.2465021 C64.4545186,28.2465021 64.4261766,28.3028259 64.4261766,28.3878351 L64.4261766,29.065396 C64.4261766,29.1501958 64.4545186,29.2065197 64.5678865,29.2065197 L65.2472546,29.2065197 C65.9835165,29.2065197 66.6345426,29.4043859 66.6345426,30.0536802 L66.6345426,31.098707 C66.6345426,31.6636203 66.5780685,32.0302486 66.2098326,32.3129146 C65.7569905,32.6801711 64.8508866,32.9341517 63.8597566,32.9341517 C63.0670206,32.9341517 61.9343906,32.5105715 61.1416546,31.6636203 C60.0375765,30.5057365 59.4144726,28.8957964 59.4144726,26.7215712 C59.4144726,25.4508304 60.0375765,23.9541661 60.8869965,23.0222057 C61.9343906,21.8925885 63.0388885,21.5820747 63.9168605,21.5820747 C65.2189126,21.5820747 66.0116486,22.146988 66.7762526,22.9376153 C67.4560405,23.6151762 67.9372245,24.4908128 68.1354085,24.9424503 C68.2206444,25.1683737 68.2771185,25.1964309 68.3619345,25.1683737 L68.9000125,24.9987741 C68.9850385,24.9707169 69.0133805,24.9141837 69.0133805,24.7730601 C68.9564865,24.2648893 68.5886705,21.6383985 68.5886705,21.4970655 C68.5886705,21.2994086 68.5317765,21.186761 68.2771185,21.186761 C68.0505925,21.186761 67.9653566,21.2713514 67.9088825,21.3844178 L67.7671726,21.6383985 C67.7106985,21.7229889 67.5973306,21.7229889 67.3708046,21.5253321 C66.8331465,21.1300184 65.5023325,20.6218477 64.1431765,20.6218477 C62.1325746,20.6218477 60.4058125,21.2150276 59.0749985,22.3446448 C57.7158425,23.5305858 56.9795806,25.2531735 56.9795806,26.9755519 C56.9795806,29.1784624 57.5457906,30.7033933 58.6784206,31.9458675 C60.0094445,33.4140558 62.2742846,34.0074451 63.7468085,34.0074451 C65.5588065,34.0074451 67.0878045,33.6117127 68.5886705,32.8778279 C68.7868545,32.7928187 68.9000125,32.7082283 68.9000125,32.5668953 C68.9000125,32.4257716 68.8151965,32.2565908 68.8151965,32.0021914 L68.8151965,29.8277568" id="Fill-12"></path>
                                <path d="M74.3399954,26.4393239 C74.3399954,26.2416671 74.3683374,22.8808727 74.3683374,22.5986255 C74.3964695,22.0056549 74.6517573,21.8925885 75.4161514,21.8925885 L75.8973354,21.8925885 C76.0390454,21.8925885 76.0673874,21.8079981 76.0673874,21.6947223 L76.0673874,21.0173708 C76.0673874,20.9323616 76.0107034,20.8760377 75.8973354,20.8760377 C75.6708094,20.8760377 74.2270473,20.9604188 73.4055495,20.9604188 C72.0751554,20.9891042 70.3196314,20.8760377 70.1497894,20.8760377 C70.0362115,20.8760377 69.9797374,20.9323616 69.9797374,21.045428 L69.9797374,21.6947223 C69.9797374,21.8079981 70.0080794,21.8925885 70.1497894,21.8925885 L70.6591055,21.8925885 C71.8482095,21.8925885 72.1032874,22.1750452 72.1032874,22.485559 C72.1032874,22.8808727 72.1599714,25.7050204 72.1599714,26.1566579 L72.1599714,27.3993415 C72.1599714,28.3595685 72.1316294,31.9458675 72.1032874,32.1998482 C72.0463935,32.7082283 71.5935514,32.7364949 70.8860513,32.7364949 L70.2627375,32.7364949 C70.1497894,32.7364949 70.0926855,32.8215041 70.0926855,32.9058851 L70.0926855,33.5271222 C70.0926855,33.6684553 70.1497894,33.7530457 70.2627375,33.7530457 C70.4325795,33.7530457 72.0751554,33.6684553 73.0379433,33.6684553 C74.3118634,33.6684553 75.7843873,33.7530457 76.0107034,33.7530457 C76.1524133,33.7530457 76.1807553,33.6684553 76.1807553,33.5553888 L76.1807553,32.8778279 C76.1807553,32.7928187 76.1524133,32.7364949 76.0107034,32.7364949 L75.5862033,32.7364949 C74.7647054,32.7364949 74.4252314,32.3411812 74.3683374,31.6916775 C74.3399954,31.2683066 74.3399954,28.0205786 74.3399954,27.8511884 L74.3399954,26.4393239" id="Fill-13"></path>
                                <path d="M89.5842082,26.7215712 C89.5842082,25.5636874 89.5277342,23.7845665 89.6694441,22.485559 C89.7259182,22.0902454 89.8676281,21.8925885 90.5757581,21.8925885 L90.8585482,21.8925885 C90.9721261,21.8925885 91.0286001,21.8079981 91.0286001,21.6947223 L91.0286001,21.1017518 C91.0286001,20.9323616 90.9721261,20.8760377 90.8304161,20.8760377 C90.6322321,20.8760377 89.6413121,20.9604188 89.0465501,20.9604188 C88.1404462,20.9604188 86.9230001,20.8760377 86.7248161,20.8760377 C86.5831062,20.8760377 86.5266321,20.9323616 86.5266321,21.0173708 L86.5266321,21.6947223 C86.5266321,21.8360553 86.5831062,21.8925885 86.7248161,21.8925885 L87.2060002,21.8925885 C87.6876041,21.8925885 88.1121042,22.0619788 88.2538141,22.4009686 C88.3951042,22.7399585 88.4803401,24.377537 88.4803401,25.0550979 C88.5368142,25.9590011 88.5651562,26.8346376 88.5651562,28.4441589 L88.5651562,30.3080796 L88.4519981,30.3080796 C88.1121042,29.9410326 85.4790281,26.6369808 84.9692922,26.0440103 C84.3747401,25.337764 81.1183502,21.2430848 81.0335342,21.1300184 C80.9201662,20.9604188 80.7503242,20.904095 80.3539562,20.904095 C80.0144821,20.904095 79.4197202,20.9604188 78.9664582,20.9604188 C78.6549063,20.9604188 78.2020642,20.9323616 77.8338283,20.904095 C77.4662221,20.904095 77.1544602,20.8760377 77.0979862,20.8760377 C76.9846182,20.8760377 76.9281442,20.9604188 76.9281442,21.045428 L76.9281442,21.7229889 C76.9281442,21.8360553 76.9846182,21.8925885 77.0979862,21.8925885 L77.3526442,21.8925885 C78.1453802,21.8925885 78.8530903,22.372702 78.8530903,23.3892528 L78.8530903,26.3543147 C78.8530903,29.5455095 78.7966162,31.5505539 78.7682742,31.8893343 C78.6834582,32.5388381 78.2301963,32.7364949 77.9471962,32.7364949 L77.2961702,32.7364949 C77.2109343,32.7364949 77.1828022,32.7645521 77.1828022,32.8215041 L77.1828022,33.5553888 C77.1828022,33.6967219 77.2109343,33.7530457 77.2676182,33.7530457 C77.4939343,33.7530457 78.7682742,33.6684553 79.1646422,33.6684553 C79.9857203,33.6684553 81.1183502,33.7530457 81.3165342,33.7530457 C81.4582442,33.7530457 81.4582442,33.6967219 81.4582442,33.5834461 L81.4582442,32.9058851 C81.4582442,32.7928187 81.4582442,32.7364949 81.3165342,32.7364949 L80.7219822,32.7364949 C80.4389822,32.7364949 80.1274302,32.4257716 80.0426142,31.7762679 C79.9857203,31.5222873 79.8727722,28.6981396 79.8727722,27.0040278 L79.8727722,23.1352721 L79.9292462,23.1352721 C80.3820883,23.6432335 82.6756902,26.6933046 83.3554781,27.4839319 C83.6666102,27.8511884 84.8840562,29.2911101 86.1867382,30.8443076 C87.3477101,32.2279054 88.3102882,33.3857892 88.5084722,33.5834461 C88.6220501,33.6684553 88.9048402,33.8661121 89.1597082,33.8661121 C89.4996021,33.8661121 89.5842082,33.5834461 89.5842082,33.3294654 L89.5842082,26.7215712" id="Fill-14"></path>
                                <path d="M20.4574598,19.3370783 L18.8625404,19.3370783 C18.7733157,19.3370783 18.7290182,19.2497659 18.765128,19.1247647 L18.8367177,18.820951 C18.8724077,18.6959498 18.9964826,18.4095149 19.1396621,18.4095149 L20.6986816,18.4095149 C21.2363397,16.8724399 21.7576224,15.6217997 22.7071841,14.5677695 C23.2089424,13.9955279 24.1946139,13.3523056 25.3591548,13.3523056 C26.3985712,13.3523056 26.9717092,13.9779398 26.9717092,14.4067546 C26.9717092,14.9605706 26.6135504,15.2289987 26.2551817,15.2289987 C25.6818337,15.2289987 25.5205992,14.9071782 25.4668544,14.5137489 C25.4487995,14.3353553 25.2695102,13.9955279 24.732272,13.9955279 C23.0655529,13.9955279 22.7057146,16.356522 22.1143117,18.3582163 C22.1143117,18.3582163 24.6044181,18.4247998 26.6372737,18.4247998 C28.8263252,18.4247998 29.9990538,18.3467003 30.2333476,18.3467003 C30.4680613,18.3467003 30.4943039,18.4247998 30.4943039,18.528444 L30.4943039,19.1264397 C30.4943039,19.2562567 30.4680613,19.3603197 30.2858328,19.3603197 L29.0347963,19.3603197 C28.3050425,19.3603197 27.9401656,19.594409 27.9401656,20.0362056 C27.9401656,20.2441221 27.9664082,20.5556829 28.044716,20.9195893 C28.200702,21.8553185 29.1649595,24.9485224 29.6343869,26.4041477 C29.9467786,27.3915944 31.4585615,31.8621146 32.0577322,33.4479758 C32.6571128,32.226021 34.6899684,26.8716983 34.8984395,26.273912 C35.1591859,25.5722721 36.1492661,22.5831312 36.5403856,21.4394854 C36.7488567,20.7897723 36.9052625,20.321803 36.9052625,19.9583154 C36.9052625,19.6463358 36.7226141,19.3603197 36.0711682,19.3603197 L35.3938995,19.3603197 C35.2893491,19.3603197 35.2631065,19.2824295 35.2631065,19.1264397 L35.2631065,18.528444 C35.2631065,18.3986271 35.2893491,18.3467003 35.4197223,18.3467003 C35.654226,18.3467003 36.8527773,18.4247998 38.4949334,18.4247998 C40.3974158,18.4247998 41.0488618,18.3467003 41.2831556,18.3467003 C41.4395614,18.3467003 41.4658039,18.3986271 41.4658039,18.528444 L41.4658039,19.1781571 C41.4658039,19.2824295 41.4395614,19.3603197 41.2831556,19.3603197 L40.5796443,19.3603197 C39.7197273,19.3603197 39.2246872,19.7761528 38.7292272,20.3739391 C38.0519585,21.2056054 35.9670376,26.5339647 35.5240628,27.6256837 C35.2112512,28.4833134 31.8492611,36.7486774 31.7190979,37.0083114 C31.6149673,37.2166467 31.4843842,37.3464637 31.354221,37.3464637 C31.1457499,37.3464637 31.0414093,37.086411 30.9110362,36.7486774 C30.0773617,34.3573228 27.9664082,28.4313866 27.627354,27.4958667 L27.3670275,26.6120643 C26.7416142,24.7663598 25.5164004,20.9976888 25.1777661,20.2179494 C24.9172297,19.6201631 24.6564834,19.3603197 24.109378,19.3603197 L21.6856128,19.3370783 C21.2199644,20.7849565 20.3957372,23.8425654 19.4997104,26.1300664 C18.4067592,28.9182003 17.1345187,30.9018877 15.2171304,30.9018877 C14.500183,30.9018877 13.926835,30.4192616 13.926835,29.8474387 C13.926835,29.4366307 14.2314589,29.0792153 14.6975273,29.0792153 C15.2171304,29.0792153 15.4858545,29.5794294 15.5393894,29.8832431 C15.5754992,30.0618461 15.7008338,30.1872661 15.8442233,30.1872661 C16.7045602,30.1872661 17.6721768,28.6859954 18.6397934,25.3798498 L20.4574598,19.3370783" id="Fill-15"></path>
                                <path d="M91.2983739,4.0999137 C91.3340638,4.07499721 91.322937,4.07457844 91.4090126,4.08400064 C91.8496781,4.13299609 93.4565641,4.28333254 96.5666254,4.28333254 L97.6992553,4.28333254 C98.6246739,4.28333254 99.6214722,4.24564374 100.700357,4.2012547 C101.243054,4.18576041 104.568934,4.22700872 105.248722,4.22700872 C105.871616,4.22700872 107.796982,4.14199953 107.994746,4.14199953 C108.108114,4.14199953 108.19335,4.19874211 108.19335,4.33965636 L108.19335,4.96089348 C108.19335,5.07395989 108.164798,5.15896908 107.994746,5.15896908 L107.570036,5.15896908 C107.06072,5.15896908 107.032378,5.46927356 107.145536,5.6386638 C107.315378,5.89285384 109.665454,9.64896189 110.118296,10.3265228 C110.543426,9.62069529 112.893502,6.20357709 113.00666,5.97765365 C113.232976,5.52601615 113.261318,5.15896908 112.638424,5.15896908 L112.185582,5.15896908 C112.043872,5.15896908 111.987398,5.07395989 111.987398,4.96089348 L111.987398,4.33965636 C111.987398,4.22700872 112.043872,4.14199953 112.185582,4.14199953 C112.355424,4.14199953 113.771054,4.22700872 114.620684,4.22700872 C115.13021,4.22700872 116.12113,4.14199953 116.291182,4.14199953 C116.432892,4.14199953 116.489366,4.19874211 116.489366,4.36834173 L116.489366,4.96089348 C116.489366,5.10201711 116.432892,5.15896908 116.319314,5.15896908 L116.036314,5.15896908 C115.583472,5.15896908 115.27192,5.24335012 115.017262,5.38468314 C114.592552,5.61060658 111.30803,10.2136658 110.656374,11.2021594 L110.656374,13.5740414 C110.684716,14.2802877 110.656374,15.0426485 110.713478,15.3812196 C110.769952,15.9741901 111.222794,16.0024567 111.73253,16.0024567 L112.100766,16.0024567 C112.242056,16.0024567 112.29895,16.0591993 112.29895,16.1437897 L112.29895,16.8217694 C112.29895,16.934417 112.242056,17.0194262 112.072424,17.0194262 C111.902582,17.0194262 110.31669,16.934417 109.382454,16.934417 C108.75935,16.934417 107.117194,17.0194262 106.947352,17.0194262 C106.805642,17.0194262 106.749168,16.9626836 106.749168,16.793084 L106.749168,16.1720563 C106.749168,16.0874659 106.805642,16.0024567 106.91901,16.0024567 L107.34372,16.0024567 C108.249824,16.0024567 108.419876,15.8334852 108.448008,15.4379621 C108.47635,15.1835627 108.47635,14.1670119 108.47635,12.500748 L108.47635,11.4841973 C108.221692,10.9762359 104.767118,5.92132983 104.314276,5.49754017 C104.074314,5.25863503 103.672488,5.18137298 103.41741,5.16336611 C103.585782,5.9286582 103.814198,6.93180853 103.904682,7.41778471 C103.933024,7.53085113 103.87655,7.58717495 103.762972,7.64370815 L103.281578,7.78483179 C103.111946,7.84136499 103.02671,7.81309839 102.970236,7.67218414 C102.630342,6.96614722 102.149158,6.03418685 101.554606,5.49754017 C100.846686,5.24335012 98.7754113,5.2152929 98.2656753,5.2152929 L98.2656753,9.95926638 C98.2656753,12.9247471 98.2656753,15.0426485 98.2938074,15.2685719 C98.3507013,15.7202094 98.4919914,16.0024567 98.9452533,16.0024567 L100.020989,16.0024567 C100.162699,16.0024567 100.219173,16.0874659 100.219173,16.2568561 L100.219173,16.8498266 C100.219173,16.934417 100.162699,17.0194262 100.020989,17.0194262 C99.8228053,17.0194262 98.0672814,16.934417 97.1328354,16.934417 C96.3400994,16.934417 94.4997593,17.0194262 94.2734433,17.0194262 C94.1033913,17.0194262 94.0464974,16.934417 94.0464974,16.7650268 L94.0464974,16.2001135 C94.0464974,16.0591993 94.1033913,16.0024567 94.2169693,16.0024567 L95.3491793,16.0024567 C95.7738893,16.0024567 95.9720734,15.7765332 96.0006253,15.5508192 C96.0854413,14.4779446 96.0854413,12.9810709 96.0854413,11.2865404 L96.0854413,5.2152929 C95.5473634,5.2152929 93.9572726,5.1870263 92.9098786,5.46927356 C92.2021685,6.00592025 91.6071966,6.90982339 91.2393806,7.64370815 C91.1824866,7.75677457 91.0978805,7.84136499 90.9843026,7.78483179 L90.4749865,7.58717495 C90.3332766,7.53085113 90.3332766,7.41778471 90.3614086,7.30513707 C90.5253723,6.79173181 91.0170534,5.05071846 91.2471484,4.19581076 C91.2595349,4.15100296 91.2639436,4.12441142 91.2983739,4.0999137" id="Fill-16"></path>
                                <path d="M101.748801,27.8792456 L105.599533,27.8792456 C105.486585,27.4839319 104.155351,23.2479198 104.098877,23.0222057 C104.042403,22.8526061 104.014061,22.7399585 103.928825,22.7399585 C103.844219,22.7399585 103.787535,22.8245489 103.702509,23.050263 C103.617693,23.2761864 101.890511,27.5969984 101.748801,27.8792456 L101.748801,27.8792456 Z M95.8725615,26.4393239 L95.8725615,27.8511884 C95.8725615,28.0205786 95.8725615,31.2683066 95.9006935,31.6916775 C95.9571676,32.3411812 96.2970615,32.7364949 97.1181395,32.7364949 L97.4450172,32.7364949 C97.9264112,32.7364949 98.3794631,32.4542476 98.6057792,32.1435244 C98.8039632,31.9176009 100.248355,28.5287493 100.927723,27.1168849 C101.125907,26.7215712 102.796615,22.8808727 102.966247,22.4009686 C103.023141,22.231369 103.192983,21.9206458 102.994799,21.8360553 C102.937905,21.7797315 102.853089,21.6383985 102.881431,21.5540175 C102.853089,21.4970655 102.909563,21.4126844 103.164851,21.3559418 C103.702509,21.2713514 104.495245,20.762762 104.750323,20.5370479 C104.806797,20.4241909 104.920375,20.3393911 105.090217,20.3393911 C105.259849,20.3393911 105.316743,20.4524575 105.373217,20.6501143 C105.769585,21.7797315 107.213347,25.8176681 107.581583,26.9472853 C108.006293,28.3595685 109.224159,31.6916775 109.422343,31.9739248 C109.789949,32.4825142 110.271553,32.7364949 110.752737,32.7364949 L111.290815,32.7364949 C111.404183,32.7364949 111.432525,32.8215041 111.432525,32.9058851 L111.432525,33.4988556 C111.432525,33.5834461 111.404183,33.7530457 111.234341,33.7530457 C110.894447,33.7530457 109.393581,33.6684553 108.742555,33.6684553 C108.204477,33.6684553 106.534189,33.7530457 106.165953,33.7530457 C105.967769,33.7530457 105.939427,33.6117127 105.939427,33.4988556 L105.939427,32.9058851 C105.939427,32.8215041 105.967769,32.7364949 106.080717,32.7364949 L106.534189,32.7364949 C106.873663,32.7364949 106.987031,32.4825142 106.987031,32.2565908 C106.873663,31.6916775 106.109059,29.4324431 105.882953,28.7831488 L101.324091,28.7831488 C101.211143,29.1217199 100.304829,31.4659634 100.191461,31.8045345 C100.021409,32.3692384 100.106645,32.7364949 100.701197,32.7364949 L101.408907,32.7364949 C101.578749,32.7364949 101.607511,32.8215041 101.607511,32.9341517 L101.607511,33.5553888 C101.607511,33.6684553 101.578749,33.7530457 101.437039,33.7530457 C101.211143,33.7530457 99.7102771,33.6684553 99.2574351,33.6684553 L94.5698795,33.6684553 C93.6070916,33.6684553 91.9651455,33.7530457 91.7950935,33.7530457 C91.6817256,33.7530457 91.6252515,33.6684553 91.6252515,33.5271222 L91.6252515,32.9058851 C91.6252515,32.8215041 91.6817256,32.7364949 91.7950935,32.7364949 L92.4179875,32.7364949 C93.1261175,32.7364949 93.5789595,32.7082283 93.6354336,32.1998482 C93.6639855,31.9458675 93.6923275,28.3595685 93.6923275,27.3993415 L93.6923275,26.1566579 C93.6923275,25.7050204 93.6354336,22.8808727 93.6354336,22.485559 C93.6354336,22.1750452 93.3807755,21.8925885 92.1914616,21.8925885 L91.6817256,21.8925885 C91.5404355,21.8925885 91.5120935,21.8079981 91.5120935,21.6947223 L91.5120935,21.045428 C91.5120935,20.9323616 91.5687775,20.8760377 91.6817256,20.8760377 C91.8515676,20.8760377 93.6070916,20.9891042 94.9381155,20.9604188 C95.7589836,20.9604188 97.2033755,20.8760377 97.4299014,20.8760377 C97.5428495,20.8760377 97.5997435,20.9323616 97.5997435,21.0173708 L97.5997435,21.6947223 C97.5997435,21.8079981 97.5714015,21.8925885 97.4299014,21.8925885 L96.9482975,21.8925885 C96.1841134,21.8925885 95.9290355,22.0056549 95.9006935,22.5986255 C95.9006935,22.8808727 95.8725615,26.2416671 95.8725615,26.4393239 L95.8725615,26.4393239 Z" id="Fill-17"></path>
                                <path d="M44.081245,4.33965636 L44.081245,4.98936946 C44.081245,5.10201711 43.9964289,5.15896908 43.883061,5.15896908 L43.2320349,5.15896908 C42.863799,5.15896908 42.439089,5.2152929 42.439089,5.58233997 C42.439089,6.23184369 42.920273,7.33319429 43.684877,9.70528572 C43.911403,10.4113226 44.9592169,13.6873172 45.128849,14.1389547 L45.2138749,14.1389547 C45.3839269,13.5459842 46.7712149,10.0442756 46.912505,9.62069529 C47.9886609,6.48582435 48.3568969,5.72367299 48.3568969,5.44121634 C48.3568969,5.29988333 48.243319,5.15896908 47.7621349,5.15896908 L47.450583,5.15896908 C47.3376349,5.15896908 47.2809509,5.10201711 47.2809509,4.96089348 L47.2809509,4.31138976 C47.2809509,4.22700872 47.3376349,4.14199953 47.450583,4.14199953 C47.620425,4.14199953 49.0931589,4.22700872 49.7441849,4.22700872 L54.0721121,4.22700872 L60.41484,4.19874211 C60.69763,4.19874211 61.0662859,4.14199953 61.179234,4.14199953 C61.235708,4.14199953 61.292392,4.19874211 61.3492859,4.5373132 C61.40576,4.79171263 62.198496,7.22012788 62.25497,7.41778471 C62.2837319,7.53085113 62.2837319,7.58717495 62.226838,7.61544155 L61.773786,7.81309839 C61.7173119,7.84136499 61.603944,7.84136499 61.5191279,7.70045074 C61.462234,7.61544155 60.103078,6.03418685 59.621894,5.58233997 C59.28221,5.27161673 58.829158,5.15896908 58.5461579,5.15896908 L55.544636,5.10201711 L55.544636,9.90294255 C55.714688,9.90294255 57.3853959,9.81835213 57.611712,9.76160954 C58.3479739,9.5639527 58.630974,9.16863903 58.630974,8.29342125 C58.630974,8.18035484 58.659316,8.15208824 58.7726839,8.15208824 L59.3955779,8.18035484 C59.5089459,8.18035484 59.5937619,8.23667867 59.56542,8.34974508 C59.5089459,8.60372574 59.5089459,10.1005994 59.5089459,10.3545801 C59.5089459,10.9762359 59.5937619,11.8514537 59.621894,12.2185008 C59.621894,12.3313578 59.56542,12.3598338 59.480394,12.3598338 L58.885632,12.4161576 C58.8010259,12.4161576 58.7443419,12.4161576 58.71579,12.3030912 C58.5744999,11.597473 58.4046579,11.1452074 57.668396,10.9762359 C56.8185561,10.7785791 55.8280559,10.7785791 55.544636,10.7785791 L55.544636,11.7383873 C55.544636,12.7270902 55.6011101,14.3646688 55.6011101,14.7319252 C55.6011101,16.0591993 56.4226079,16.1437897 57.640054,16.1437897 C58.885632,16.1437897 59.678578,16.1155231 60.641156,15.3531623 C60.867682,15.1835627 61.858602,13.9130313 62.1420219,13.460975 C62.2837319,13.2633182 62.425022,13.2350516 62.510048,13.2913754 L62.9630999,13.5459842 C63.019574,13.5740414 63.0764679,13.6586318 63.0483359,13.743641 L62.028654,16.7367602 C61.9721799,16.8780932 61.83047,17.0194262 61.7173119,17.0194262 C61.5191279,17.0194262 60.0184719,16.934417 54.0721121,16.934417 C53.562796,16.934417 52.005456,17.0194262 51.665562,17.0194262 C51.5238521,17.0194262 51.4955101,16.934417 51.4955101,16.8217694 L51.4955101,16.1720563 C51.4955101,16.0591993 51.552404,16.0024567 51.6936941,16.0024567 L51.948982,16.0024567 C53.2793761,16.0024567 53.364402,15.889809 53.364402,15.4944953 L53.364402,9.47936228 C53.364402,7.98269801 53.33627,6.14725327 53.307928,5.86458724 C53.222902,5.27161673 53.0528501,5.15896908 51.9202201,5.15896908 L51.2450509,5.15896908 C50.7069729,5.15896908 50.3103949,5.32835931 50.0557369,5.58233997 C49.5176589,6.11898666 47.9886609,9.81835213 47.7056609,10.5522369 C47.450583,11.1452074 45.128849,16.6804364 44.902323,17.0476928 C44.8175069,17.1883977 44.675797,17.2734069 44.4494809,17.2734069 C44.2229549,17.2734069 44.081245,17.07575 43.9964289,16.8498266 C43.373325,15.1835627 41.8728789,11.0888836 41.6463529,10.4676465 L41.4481689,9.84661873 C40.966565,8.54740191 40.117355,5.97765365 39.9191709,5.695197 C39.692645,5.38468314 39.465909,5.15896908 39.0976731,5.15896908 L38.814673,5.15896908 C38.7013051,5.15896908 38.673173,5.07395989 38.673173,4.98936946 L38.673173,4.28333254 C38.673173,4.19874211 38.7300669,4.14199953 38.843015,4.14199953 C38.984725,4.14199953 40.5420649,4.22700872 41.2783269,4.22700872 C41.957695,4.22700872 43.684877,4.14199953 43.854719,4.14199953 C44.0247709,4.14199953 44.081245,4.19874211 44.081245,4.33965636" id="Fill-18"></path>
                                <path d="M34.6767422,52.1361784 L18.3771576,52.1361784 L18.3771576,51.8828259 C18.7999781,51.8154049 19.2188098,51.7056886 19.6336526,51.5538864 C20.0484954,51.4018749 20.3741133,51.1908176 20.6113463,50.9209239 C20.6959524,50.8195829 20.7675422,50.6719684 20.8269554,50.4776617 C20.8861587,50.2835644 20.9325556,50.0597347 20.9667759,49.8065916 C21.0003664,49.5532391 21.030178,49.287533 21.0555808,49.0088453 C21.0809836,48.7303669 21.09379,48.4560761 21.09379,48.1859731 C21.09379,47.9499993 21.0975689,47.6288069 21.1063864,47.2236523 C21.1147841,46.8189164 21.1229718,46.3752354 21.1317893,45.8942844 C21.1401869,45.4133334 21.1445957,44.9196101 21.1445957,44.4131144 L21.1445957,42.9445074 L21.1445957,38.0321906 L21.1445957,37.1458755 C21.1445957,36.8420619 21.1317893,36.5596053 21.1063864,36.2976681 C21.0809836,36.036359 21.0429844,35.8039447 20.9921787,35.6012627 C20.9413731,35.3985807 20.8651646,35.2386127 20.7635533,35.1203117 C20.5263203,34.8334581 20.20889,34.6138161 19.8114723,34.4618046 C19.4136347,34.3097931 18.9945931,34.2084521 18.5547674,34.1582003 L18.5547674,33.9050572 L26.6536491,33.9050572 L26.6536491,34.1582003 C26.4336312,34.1921202 26.1714153,34.2427907 25.8667914,34.3097931 C25.5619575,34.3776329 25.2741289,34.4873492 25.0035153,34.6393607 C24.7326918,34.7911628 24.4996577,35.0061984 24.3052526,35.2848862 C24.1106376,35.5633645 24.0046176,35.930621 23.9880322,36.3862368 C23.9710271,36.9775322 23.9582207,37.5177384 23.949823,38.0070647 C23.9412155,38.4968098 23.9328178,38.9777608 23.9244202,39.4503365 C23.9158127,39.9229122 23.9118238,40.4124479 23.9118238,40.9189436 L23.9118238,42.6155679 L23.9118238,44.1853065 L23.9118238,45.5274467 C23.9118238,45.9665213 23.9158127,46.4179494 23.9244202,46.8819404 C23.9328178,47.3465596 23.9372266,47.8654088 23.9372266,48.4393256 C23.9538119,48.9797411 23.9752259,49.4941933 24.0006287,49.9839384 C24.0260315,50.4736834 24.1150464,50.8363335 24.2672534,51.072726 C24.3346443,51.1573165 24.470266,51.2414881 24.6734886,51.3256598 C24.8765012,51.410669 25.1217119,51.4820683 25.4097505,51.5411141 C25.6973693,51.6003693 26.0103908,51.6510398 26.3492351,51.6929162 C26.6874495,51.7352115 27.0258739,51.7563591 27.3647182,51.7563591 C27.49992,51.7563591 27.7159489,51.7523808 28.0121752,51.7435867 C28.3081916,51.7352115 28.6340195,51.7180421 28.9894491,51.6929162 C29.3450886,51.6673716 29.7087059,51.6294734 30.0813506,51.5790123 C30.4533655,51.5283418 30.7833922,51.4613395 31.0714309,51.3763303 C31.7482796,51.1908176 32.3111306,50.9460498 32.7597738,50.6420268 C33.2079972,50.3382131 33.5932383,49.9879166 33.9148674,49.5911373 C34.2362866,49.1947767 34.5073201,48.7642868 34.7275478,48.3000864 C34.9471458,47.8358859 35.1589759,47.3505379 35.3619886,46.8440423 L35.6160168,46.9198386 L34.6767422,52.1361784" id="Fill-19"></path>
                                <path d="M40.1752986,42.5940015 C40.1752986,42.3963447 40.2038505,39.035969 40.2038505,38.753303 C40.2321925,38.1603325 40.4868506,38.0474755 41.2514545,38.0474755 L41.7324286,38.0474755 C41.8741386,38.0474755 41.9024806,37.9626757 41.9024806,37.8493999 L41.9024806,37.1718389 C41.9024806,37.0874579 41.8460065,37.0307153 41.7324286,37.0307153 C41.5061126,37.0307153 40.0621406,37.1155151 39.2410625,37.1155151 C37.9102486,37.1437817 36.1547246,37.0307153 35.9848826,37.0307153 C35.8715146,37.0307153 35.8148306,37.0874579 35.8148306,37.2001055 L35.8148306,37.8493999 C35.8148306,37.9626757 35.8431726,38.0474755 35.9848826,38.0474755 L36.4946185,38.0474755 C37.6839325,38.0474755 37.9385906,38.3297227 37.9385906,38.6406554 C37.9385906,39.035969 37.9950646,41.859698 37.9950646,42.3117542 L37.9950646,43.5540191 C37.9950646,44.514246 37.9667226,48.1005451 37.9385906,48.3549445 C37.8821165,48.8629058 37.4286446,48.8911724 36.7211445,48.8911724 L36.0982505,48.8911724 C35.9848826,48.8911724 35.9284085,48.9759723 35.9284085,49.0605627 L35.9284085,49.6817998 C35.9284085,49.8231328 35.9848826,49.908142 36.0982505,49.908142 C36.2678826,49.908142 37.9102486,49.8231328 38.8730365,49.8231328 C40.1469566,49.8231328 41.6194805,49.908142 41.8460065,49.908142 C41.9877165,49.908142 42.0158485,49.8231328 42.0158485,49.7104852 L42.0158485,49.0325055 C42.0158485,48.947915 41.9877165,48.8911724 41.8460065,48.8911724 L41.4212965,48.8911724 C40.6002185,48.8911724 40.2603246,48.4958588 40.2038505,47.8463551 C40.1752986,47.4229842 40.1752986,44.1752562 40.1752986,44.005866 L40.1752986,42.5940015" id="Fill-20"></path>
                                <path d="M55.8181887,43.3846288 C55.7898467,45.1072166 55.8181887,46.7730617 55.7898467,48.1568689 C55.7898467,48.7778967 55.4499528,48.8911724 54.7705847,48.8911724 L54.4306908,48.8911724 C54.3173228,48.8911724 54.2608487,48.9474963 54.2608487,49.0325055 L54.2608487,49.6817998 C54.2608487,49.8231328 54.3173228,49.9077232 54.4306908,49.9077232 C54.6288748,49.9077232 56.0728468,49.8231328 56.7807667,49.8231328 C57.7152127,49.8231328 59.2444206,49.9077232 59.4426047,49.9077232 C59.6124467,49.9077232 59.6689207,49.85119 59.6689207,49.7100664 L59.6689207,49.0325055 C59.6689207,48.9474963 59.6124467,48.8911724 59.4990787,48.8911724 L58.7628167,48.8911724 C58.1963968,48.8911724 58.0269746,48.5802398 57.9700807,48.1849261 L57.9700807,44.4575035 C58.1682647,44.4011796 58.4233426,44.4011796 58.7063427,44.4011796 C59.8954467,44.4011796 60.3201567,45.0222074 61.3396287,46.7730617 C61.5944966,47.196642 62.8400747,49.484143 63.3781527,49.8794566 C63.8597566,49.85119 64.5391246,49.8231328 65.1901507,49.8231328 C65.4735706,49.8231328 65.8130447,49.85119 66.0681226,49.85119 C66.3511227,49.8794566 66.4346791,49.6066316 66.491573,49.6066316 C66.6045211,49.6066316 66.8043846,49.8231328 66.8043846,49.7100664 L66.8043846,49.1451531 C66.8043846,48.9759723 66.7758327,48.8911724 66.6626746,48.8911724 C66.1529387,48.8911724 65.7847027,48.8629058 65.3883347,48.5802398 C64.8502567,48.1849261 64.1992307,47.337975 63.8028627,46.7730617 C62.6418907,45.1354832 62.0756807,44.2598466 61.4244447,44.1189324 L61.4244447,44.0621898 C63.6611527,43.2715624 64.7656506,42.1417359 64.7656506,40.1932247 C64.7656506,39.5439304 64.3974147,38.7250364 63.7745207,38.1320659 C63.0666007,37.51041 61.7926806,37.0307153 60.0936307,37.0307153 C59.7253948,37.0307153 57.2623707,37.1150964 56.9224767,37.1150964 C56.4127407,37.1150964 54.6572168,37.0307153 54.5159267,37.0307153 C54.4025587,37.0307153 54.3458747,37.0870391 54.3458747,37.1718389 L54.3458747,37.8493999 C54.3458747,37.9626757 54.3742167,38.0470567 54.4590327,38.0470567 L54.7424527,38.0470567 C55.5351887,38.0470567 55.7898467,38.3579893 55.8181887,38.9226933 L55.8181887,43.3846288 L55.8181887,43.3846288 Z M58.1329947,38.5556462 C58.1329947,38.0470567 58.5577047,37.9344091 58.9822047,37.9344091 C60.1148347,37.9344091 60.9077807,38.1883897 61.6721747,38.6682938 C62.1821206,39.0072837 62.6066207,39.7698538 62.6066207,40.616805 C62.6066207,41.3511085 62.1252267,43.5540191 58.9822047,43.5540191 C58.6141787,43.5540191 58.3311787,43.5255431 58.1329947,43.4972765 L58.1329947,38.5556462 L58.1329947,38.5556462 Z" id="Fill-21"></path>
                                <path d="M81.6299757,43.3848382 C81.6016337,45.1074259 81.6299757,46.7732711 81.6016337,48.1570783 C81.6016337,48.778106 81.2617397,48.8913818 80.5825816,48.8913818 L80.2426876,48.8913818 C80.1291097,48.8913818 80.0726357,48.9477057 80.0726357,49.0327148 L80.0726357,49.6820092 C80.0726357,49.8233422 80.1291097,49.9079326 80.2426876,49.9079326 C80.4408717,49.9079326 81.8846337,49.8233422 82.5927636,49.8233422 C83.5272096,49.8233422 85.0562076,49.9079326 85.2543916,49.9079326 C85.4244436,49.9079326 85.4809176,49.8513994 85.4809176,49.7102758 L85.4809176,49.0327148 C85.4809176,48.9477057 85.4244436,48.8913818 85.3108656,48.8913818 L84.5746037,48.8913818 C84.0083937,48.8913818 83.8387616,48.5804492 83.7818677,48.1851355 L83.7818677,44.4577128 C83.9800517,44.401389 84.2351296,44.401389 84.5181296,44.401389 C85.7072337,44.401389 86.1319437,45.0224167 87.1516255,46.7732711 C87.4062836,47.1968513 88.6520716,49.4843523 89.1901496,49.879666 C89.6715435,49.8513994 90.3509116,49.8233422 91.0021476,49.8233422 C91.2853576,49.8233422 91.6248317,49.8513994 91.8801195,49.8513994 C92.1629096,49.879666 92.3894356,49.9079326 92.4463295,49.9079326 C92.5592776,49.9079326 92.6163815,49.8233422 92.6163815,49.7102758 L92.6163815,49.1453625 C92.6163815,48.9761816 92.5876196,48.8913818 92.4746715,48.8913818 C91.9647256,48.8913818 91.5966996,48.8631152 91.2003316,48.5804492 C90.6622536,48.1851355 90.0110176,47.3381844 89.6146496,46.7732711 C88.4538876,45.1356925 87.8874676,44.260056 87.2364416,44.1191418 L87.2364416,44.0623992 C89.4729397,43.2717718 90.5774376,42.1419452 90.5774376,40.1934341 C90.5774376,39.5441397 90.2092016,38.7252458 89.5865176,38.1322753 C88.8783877,37.5106194 87.6044676,37.0309247 85.9054177,37.0309247 C85.5373916,37.0309247 83.0741576,37.1153057 82.7344736,37.1153057 C82.2245277,37.1153057 80.4690037,37.0309247 80.3277136,37.0309247 C80.2143457,37.0309247 80.1578716,37.0872485 80.1578716,37.1720483 L80.1578716,37.8496093 C80.1578716,37.9628851 80.1860037,38.0472661 80.2708197,38.0472661 L80.5542396,38.0472661 C81.3469756,38.0472661 81.6016337,38.3581987 81.6299757,38.9229026 L81.6299757,43.3848382 L81.6299757,43.3848382 Z M83.9447816,38.5558556 C83.9447816,38.0472661 84.3694916,37.9346184 84.7942016,37.9346184 C85.9268316,37.9346184 86.7195676,38.1885991 87.4841716,38.6685032 C87.9939076,39.0074931 88.4186176,39.7700632 88.4186176,40.6170144 C88.4186176,41.3513179 87.9370136,43.5542285 84.7942016,43.5542285 C84.4259657,43.5542285 84.1429656,43.5257525 83.9447816,43.4974859 L83.9447816,38.5558556 L83.9447816,38.5558556 Z" id="Fill-22"></path>
                                <path d="M70.4403473,44.0339232 L74.2910793,44.0339232 C74.1781312,43.6386095 72.8468973,39.4025974 72.7904233,39.1768833 C72.7339492,39.0072837 72.7056072,38.894636 72.6203713,38.894636 C72.5355553,38.894636 72.4790812,38.9792265 72.3940553,39.2049405 C72.3092392,39.430864 70.5820572,43.7516759 70.4403473,44.0339232 L70.4403473,44.0339232 Z M65.8096857,48.8911724 L66.1365633,48.8911724 C66.6179573,48.8911724 67.0710093,48.6089252 67.2973253,48.2982019 C67.4955093,48.0722785 68.9399012,44.6832175 69.6192693,43.2715624 C69.8174533,42.8760394 71.4881612,39.0355503 71.6577933,38.5556462 C71.7146872,38.3860466 71.8845292,38.0753233 71.6863452,37.9907329 C71.6294513,37.9344091 71.5446353,37.7930761 71.5729772,37.7084856 C71.5446353,37.651743 71.6011093,37.567362 71.8563972,37.51041 C72.3940553,37.426029 73.1867913,36.9174395 73.4418692,36.6917255 C73.4983432,36.5788684 73.6117112,36.4940686 73.7817632,36.4940686 C73.9511853,36.4940686 74.0082892,36.607135 74.0647632,36.8047919 C74.4611312,37.9344091 75.9048933,41.9723456 76.2731292,43.1019628 C76.6978392,44.514246 77.9157051,47.8463551 78.1138891,48.1286023 C78.4814953,48.6371918 78.9630992,48.8911724 79.4442832,48.8911724 L79.9823612,48.8911724 C80.0957292,48.8911724 80.1240712,48.9759723 80.1240712,49.0605627 L80.1240712,49.6535332 C80.1240712,49.7381236 80.0957292,49.9077232 79.9258872,49.9077232 C79.5859932,49.9077232 78.0851273,49.8231328 77.4341012,49.8231328 C76.8960232,49.8231328 75.2257352,49.9077232 74.8574992,49.9077232 C74.6593152,49.9077232 74.6309732,49.7663902 74.6309732,49.6535332 L74.6309732,49.0605627 C74.6309732,48.9759723 74.6593152,48.8911724 74.7722633,48.8911724 L75.2257352,48.8911724 C75.5652093,48.8911724 75.6785772,48.6371918 75.6785772,48.4112683 C75.5652093,47.8463551 74.8006053,45.5871207 74.5744992,44.9378263 L70.0156373,44.9378263 C69.9026892,45.2763974 68.9963753,47.620641 68.8830073,47.9592121 C68.7129553,48.523916 68.7981913,48.8911724 69.3927433,48.8911724 L70.1004533,48.8911724 C70.2702953,48.8911724 70.2990572,48.9759723 70.2990572,49.0888293 L70.2990572,49.7100664 C70.2990572,49.8231328 70.2702953,49.9077232 70.1285854,49.9077232 C69.9026892,49.9077232 68.4001437,49.7835596 67.9489812,49.8231328 C67.3206287,49.8782003 64.2651521,49.8744315 63.2614257,49.8231328 L65.8096857,48.8911724 Z" id="Fill-23"></path>
                                <path d="M90.3303374,37.0998114 C91.0924221,37.0732199 91.6619912,37.1157245 92.3417791,37.1157245 C92.9644631,37.1157245 94.8900391,37.0309247 95.0878032,37.0309247 C95.2011712,37.0309247 95.2864071,37.0876673 95.2864071,37.2285815 L95.2864071,37.8496093 C95.2864071,37.9628851 95.2576452,38.0476849 95.0878032,38.0476849 L94.6630932,38.0476849 C94.1537771,38.0476849 94.1254351,38.3581987 94.2383832,38.527589 C94.4084352,38.7815696 96.7585111,42.5376777 97.2113532,43.2152386 C97.6364831,42.5096205 99.9865591,39.0925023 100.099507,38.8665788 C100.326033,38.4149413 100.354165,38.0476849 99.7314811,38.0476849 L99.2784291,38.0476849 C99.1369291,38.0476849 99.0802451,37.9628851 99.0802451,37.8496093 L99.0802451,37.2285815 C99.0802451,37.1157245 99.1369291,37.0309247 99.2784291,37.0309247 C99.4484811,37.0309247 100.864111,37.1157245 101.713741,37.1157245 C102.223267,37.1157245 103.214187,37.0309247 103.384029,37.0309247 C103.525739,37.0309247 103.582213,37.0876673 103.582213,37.2570575 L103.582213,37.8496093 C103.582213,37.9909423 103.525739,38.0476849 103.412371,38.0476849 L103.129371,38.0476849 C102.676529,38.0476849 102.364977,38.1322753 102.110109,38.2736083 C101.685609,38.4995317 98.4008771,43.102591 97.7494312,44.0908752 L97.7494312,46.4629666 C97.7777732,47.1690035 97.7494312,47.9315736 97.8063251,48.2701447 C97.8627991,48.8631152 98.3158511,48.8913818 98.8255871,48.8913818 L99.1938231,48.8913818 C99.3351131,48.8913818 99.3920071,48.9481244 99.3920071,49.0327148 L99.3920071,49.7104852 C99.3920071,49.8233422 99.3351131,49.9083514 99.1654811,49.9083514 C98.9956391,49.9083514 97.4095372,49.8233422 96.4755111,49.8233422 C95.8521972,49.8233422 94.2102511,49.9083514 94.0401992,49.9083514 C93.8984892,49.9083514 93.8420152,49.8513994 93.8420152,49.6820092 L93.8420152,49.0607721 C93.8420152,48.9761816 93.8984892,48.8913818 94.0120671,48.8913818 L94.4365672,48.8913818 C95.3428811,48.8913818 95.5127231,48.722201 95.5410651,48.3268873 C95.5694071,48.0724879 95.5694071,47.0559371 95.5694071,45.3896732 L95.5694071,44.3731224 C95.3145391,43.8651611 91.8601752,38.810255 91.4071232,38.3862559 C91.167161,38.1473508 90.7655444,38.0702981 90.5104665,38.0522913 C90.678629,38.8175834 90.660784,37.9189148 90.3889109,37.8803884 C90.1260651,37.842909 90.4246008,37.359236 90.3112328,37.4155599" id="Fill-24"></path>
                                <path d="M46.8335673,42.7160713 C47.21335,42.7395222 47.5733983,42.7510382 47.9135022,42.7510382 C49.1198213,42.7510382 49.9797384,42.5958859 50.4930433,42.2860002 C50.9196428,41.9993559 51.219648,41.6626693 51.393059,41.2765684 C51.559542,40.9080557 51.6428884,40.5248862 51.6428884,40.1268505 C51.6428884,39.7813698 51.5761273,39.4392392 51.4430249,39.0998306 C51.2895583,38.7664941 51.0227237,38.4796404 50.642941,38.239479 C49.8630113,37.8184113 48.8935053,37.8403964 48.6606811,37.8439559 C48.3739021,37.8439559 47.1274843,37.9321059 46.9677194,37.9436219 C46.774364,37.9907329 46.8470035,38.383534 46.8470035,38.5470615 C46.820551,39.1266316 46.8335673,39.6881947 46.8335673,41.3906817 L46.8335673,42.7160713 L46.8335673,42.7160713 Z M46.8335673,44.441381 L46.8335673,46.912929 C46.8195013,47.7429202 46.972548,48.3415441 47.2924976,48.709638 C47.6118174,49.1068362 48.3308642,49.0532343 49.1672679,49.0532343 C50.0853385,49.0651691 50.7296465,49.1068362 51.3823521,48.6746712 C52.0352676,48.2307809 52.3718025,47.4885208 52.3919568,46.4487286 C52.3445102,44.9878687 51.6475071,44.0473236 50.3013675,43.6266747 C49.8798066,43.486598 49.4341025,43.3988668 48.965095,43.3636906 C48.4755134,43.3406586 47.9861416,43.3287238 47.49656,43.3287238 L46.8335673,43.3287238 L46.8335673,44.441381 L46.8335673,44.441381 Z M45.0043541,42.0135939 C44.990708,40.7792856 44.9667748,39.7200208 44.9331843,38.8366372 C44.9195381,38.3332822 44.5722962,38.250995 44.3686538,38.128297 C44.1580833,38.0229778 44.1454868,38.0344938 43.659894,38.0141837 L42.9824154,38.0508256 C42.867158,38.0508256 42.7632374,37.986964 42.7632374,37.9048862 L42.7632374,37.1785392 C42.7632374,37.0968801 42.8205512,37.0558412 42.9349688,37.0558412 C43.2780119,37.067776 44.1933533,37.0853641 45.6805731,37.1083961 C46.5218054,37.0968801 47.3964183,37.079292 48.3050415,37.0558412 C49.9736501,37.0443252 51.1952949,37.2049213 51.9691363,37.5384672 C53.1057551,38.1058931 53.6564295,38.9218557 53.6213694,39.986355 C53.6213694,40.4134948 53.5728731,40.7734229 53.4756706,41.0657205 C53.3511758,41.3640902 53.1811238,41.6216304 52.9665644,41.8377128 C52.7517951,42.0544235 52.4811816,42.2386798 52.1557735,42.3906913 C51.8299456,42.5720164 51.4556214,42.7592041 51.0330108,42.9520451 L51.095783,42.9872213 C52.1593425,43.2623496 52.9970058,43.6863487 53.6089829,44.2594279 C54.2207501,44.8331352 54.5371307,45.5931927 54.5581248,46.5408568 C54.5581248,47.0090355 54.4189341,47.5004556 54.1403428,48.0149078 C53.8346692,48.5412947 53.4374614,48.9481244 52.9487195,49.2345593 C52.1406578,49.6677712 50.8132029,49.8838537 48.9663547,49.8838537 C47.6420489,49.8604028 46.5996934,49.842396 45.8392882,49.8304612 C44.6239416,49.842396 43.730854,49.8604028 43.1606551,49.8838537 C42.9563828,49.8838537 42.8612797,49.8484681 42.8755556,49.7770687 L42.8612797,49.2238808 C42.8472136,49.1420124 42.9087263,48.9219516 43.0449778,48.9219516 L43.8855802,48.9839288 C44.2116181,48.9839288 44.6506041,48.9225798 44.7593534,48.8053257 C44.8273741,48.7351827 44.8674728,48.6057845 44.881119,48.4950212 C44.9082013,48.412734 44.8788096,48.5389915 44.8924558,48.3926333 C44.9399024,48.1179238 44.9703438,47.5387725 44.9839899,46.6549701 C44.9974261,45.7655143 45.0043541,44.9258915 45.0043541,44.1363111 L45.0043541,42.0135939 L45.0043541,42.0135939 Z" id="Fill-25"></path>
                            </g>
                        </g>
                    </g>
                </g>
            </g>
        </g>
    </g>
</svg>